<svg xmlns="http://www.w3.org/2000/svg" class="font" viewBox="0 0 345.505 60"><path d="M41.568 18.479q-.982-.197-2.684-.328-1.636-.196-3.338-.327-1.964-.065-4.19-.065-2.226-.197-5.564-.066-3.404.131-7.07.131-.066 2.357-.327 4.779-.197 2.422-.393 4.713-.458 4.32-.72 8.772-.328 4.517-.328 8.51 0 4.058.459 7.332.523 3.273 1.833 5.106-1.048.85-2.292 1.243t-2.225.59q-1.178.261-2.357.261-1.047 0-1.767-.72t-.851-2.487q-.131-3.077 0-6.154.13-3.076.327-6.48.262-3.404.524-7.332.262-3.862.523-8.51.262-4.844.262-9.426-3.404.13-5.695.13-2.356 0-2.618-.13-.262-.197-.655-.786-.327-.524-.916-1.636Q.916 14.55 0 12.587h3.731q2.03 0 3.732-.13l3.927-.132q-.065-1.44-.065-3.076-.131-1.244-.131-2.815t-.066-2.88q0-.524 1.31-1.31Q13.747 1.46 15.252.87q1.506-.655 2.815-.851 1.31-.131 1.31.654 0 .786-.066 3.863-.065 3.142-.196 7.528.85 0 1.309-.131 4.779-.131 7.659-.393 2.88-.196 4.779-.066 1.898.197 3.338.917t3.208 2.357q.654.523 1.047 1.112.458.59.786 1.244.327.655.327 1.375M38.491 59.26q-6.219 0-9.623-4.19-3.404-4.189-3.404-10.997 0-4.713 1.375-8.903t3.731-7.2q2.292-3.077 5.368-4.779 3.142-1.767 6.481-1.767t5.695 2.356q2.291 2.422 2.291 6.808 0 2.815-1.244 5.63-1.243 2.88-3.273 5.04-2.029 2.16-4.451 3.535-2.357 1.375-4.648 1.375-1.44 0-2.422-.393-.982-.327-1.767-1.047.262 5.106 2.225 7.07 1.964 2.029 5.106 2.029 2.16 0 3.797-.917 1.702-.85 2.815-2.029 1.178-1.178 1.898-2.356.72-1.244.982-1.833.262-.524.917-.524.72 0 .72 1.047 0 .982-.72 3.012-.655 1.963-2.16 3.993t-3.863 3.535q-2.422 1.505-5.826 1.505m4.124-33.974q-.523 0-2.029 1.113-1.44 1.112-3.077 3.273-1.702 2.16-3.076 5.171-1.375 2.946-1.768 6.743 5.368-1.244 8.51-3.928t3.142-7.92q0-2.554-.589-3.536-.654-.916-1.113-.916M80.78 47.02q0 .982-.72 3.011-.654 2.03-2.16 4.059-1.506 1.964-3.928 3.535-2.356 1.505-5.76 1.505-4.844 0-8.052-2.684-3.273-2.618-4.648-7.528-1.047-4.124-.589-8.837.524-4.713 2.553-8.706 2.095-4.059 5.76-6.874 3.666-2.815 8.903-3.076 2.684-.066 4.517.981 1.768 1.113 2.75 2.815t1.178 3.666q.196 2.03-.393 3.797-.589 1.833-1.833 3.011-1.178 1.244-3.076 1.31-1.833.196-3.077-.459-1.178-.72-1.899-1.702-.654-.982-.85-2.03-.262-1.112-.066-1.898.262-1.178.916-2.16.524-.85 1.572-1.767.981-.917 2.683-1.44-.261-.197-.523-.197t-.524-.065q-.393 0-.524-.066-1.44 0-3.273.982t-3.535 3.077q-1.636 2.16-2.749 5.564-1.113 3.339-1.113 8.052 0 2.095.458 4.058.459 2.03 1.375 3.6.917 1.572 2.357 2.488 1.374.982 3.207.982 2.16 0 3.863-.982 1.636-.916 2.814-2.16 1.113-1.244 1.833-2.487.655-1.244.917-1.899.262-.523.916-.523.72 0 .72 1.047m12.7-2.75q1.047-3.207 1.833-5.498.72-2.226 1.309-3.535.59-1.637 1.047-2.619.524-1.44 1.179-2.88.72-1.44 1.44-2.618.72-1.179 1.309-2.03.655-.785 1.113-1.047.327-.196 1.636 0 1.31.196 2.88.851 1.572.655 2.946 1.833t1.899 2.88q.524 2.03.393 5.368-.197 3.273-.524 6.808-.327 3.47-.458 6.612t.392 4.713q.393.916.72 1.767.393.72.852 1.506.523.785 1.112 1.31-2.553.981-4.124 1.44-1.57.523-2.356.72-.982.261-1.375.065-.72-.262-1.31-1.31-.654-1.112-1.112-3.403-.196-.72-.066-2.553.066-1.768.262-3.994.197-2.225.328-4.713.196-2.487.392-4.582.197-2.16.197-3.797.065-1.57 0-2.16-.458-1.506-1.31-2.16-.785-.655-1.243-.131-1.048 1.31-2.357 4.582-1.31 3.273-2.422 7.07-1.178 3.797-2.03 7.593-.85 3.732-1.047 6.154 0 .524-.85 1.113-.852.589-1.899 1.047-.982.458-1.964.59-.982.13-1.374-.328-.262-.262-1.113-1.244t-.917-3.338q-.196-2.226 0-6.088.131-3.928.066-8.183v-6.677q0-3.993-.066-11.128 0-7.136-.13-18.853.981-.524 1.832-.917.786-.393 1.506-.654.785-.393 1.505-.524 3.863-.982 4.059 0 .065.85-.196 5.695-.131 2.03-.262 5.172-.197 3.142-.393 7.658-.262 4.452-.59 10.474-.261 6.023-.72 13.944m64.937-21.34q4.32 0 3.404 5.499-.327 2.291-1.243 6.284-.851 3.928-2.226 8.183t-3.077 8.248q-1.767 4.059-3.796 6.612-1.899.916-3.208 1.112-.72.131-1.31.066-.72 0-1.309-.196-.654-.131-1.243-.72-.524-.524-1.048-1.572-.523-1.112-.785-2.945-.393-2.815-1.244-6.023t-1.767-5.891q-.786 2.422-1.637 4.844-.851 2.487-1.702 4.648-.85 2.16-1.702 3.796-.785 1.702-1.506 2.619-2.945 1.374-4.32 1.636-.786.262-1.31.131-1.767-2.29-3.141-4.91-1.31-2.683-2.16-4.974-.983-2.684-1.572-5.368-.72-3.404-.982-6.546-.261-3.143-.523-5.761-.197-2.684-.524-4.648t-1.113-3.142q.786-.59 1.899-1.178 1.047-.59 2.225-.72 1.113-.131 2.357.196 1.178.327 2.356 1.375.197 2.356.262 4.517.131 2.225.197 3.993.065 2.03.065 3.862.131 2.226.262 4.713.13 2.488.393 4.91.262 2.422.85 4.517.59 2.094 1.572 3.535.982-1.572 2.75-5.303 1.832-3.731 2.945-9.36.458-2.292.59-4.649.13-2.356 0-4.255-.132-1.898-.328-3.404-.262-1.44-.524-2.094.72-.459 1.571-.655.786-.262 1.506-.393.785-.196 1.505-.196 2.357-.196 3.208.85.851 1.048.393 3.798-.131.72-.458 2.16-.393 1.506-.917 3.535.524 1.833 1.244 4.582.72 2.684 1.44 5.302.524 2.488 1.113 5.106.524 2.553.85 4.583.46-.131.917-.393.459-.262.786-.982.393-.655.982-2.03.654-1.44 1.374-3.534.72-2.03 1.375-4.517.655-2.553 1.178-5.433.982-5.695.786-8.314-.196-2.553-1.047-3.47.916-.654 1.833-.916.981-.327 1.767-.523.982-.197 1.767-.197m8.38 3.666q0-.524 1.374-1.113 1.44-.654 3.208-1.047 1.767-.393 3.207-.458 1.506-.066 1.506.654 0 1.375-.196 3.797-.197 2.487-.459 5.237-.261 2.684-.523 5.433-.262 2.75-.393 4.648-.131 1.964-.327 4.255-.197 1.964-.262 4.386-.066 2.422 0 4.91 0 .458-.917.916-.85.458-1.964.654-1.047.262-2.029.262t-1.113-.392q-.13-.328-.327-1.244-.196-.917-.393-2.553-.13-1.637-.262-4.255-.065-2.684.131-6.415.328-7.463.066-11.522-.262-4.058-.328-6.153m6.218-17.805q1.833 0 3.404 1.112 1.637 1.048 1.637 2.88 0 1.31-.655 2.554-.72 1.243-1.702 2.225t-2.225 1.571q-1.244.59-2.292.59-1.44 0-2.356-.459-.917-.523-1.375-1.178-.524-.655-.655-1.506-.196-.785-.196-1.505 0-.917.262-2.03t.982-2.029q.72-.916 1.964-1.57 1.243-.655 3.207-.655m-2.225 8.379q.523 0 1.178-.459.72-.392 1.31-.916.588-.524.981-1.178.393-.59.393-1.048 0-.72-.72-.72-.458 0-1.113.327-.655.393-1.31.851-.654.524-1.047 1.113-.392.59-.392 1.113 0 .917.72.917m45.103 1.309q-.982-.197-2.619-.328-1.702-.196-3.404-.327-1.964-.065-4.19-.065-2.225-.197-5.564-.066t-7.07.131q-.065 2.357-.261 4.779-.262 2.422-.393 4.713-.458 4.32-.786 8.772-.327 4.517-.327 8.51 0 4.058.524 7.332.458 3.273 1.833 5.106-1.113.85-2.357 1.243t-2.226.59q-1.178.261-2.356.261-1.048 0-1.768-.72t-.785-2.487q-.197-3.077-.066-6.154t.393-6.48q.196-3.404.458-7.332.262-3.862.524-8.51.262-4.844.262-9.426-3.404.13-5.695.13-2.357 0-2.619-.13-.262-.197-.589-.786-.393-.524-.982-1.636-.589-1.048-1.44-3.012h3.666q2.03 0 3.731-.13l3.928-.132q-.066-1.44-.066-3.076-.065-1.244-.065-2.815t-.131-2.88q0-.524 1.31-1.31 1.308-.785 2.814-1.374 1.506-.655 2.815-.851 1.31-.131 1.31.654 0 .786-.066 3.863 0 3.142-.197 7.528.917 0 1.31-.131 4.778-.131 7.658-.393 2.946-.196 4.78-.066 1.898.197 3.338.917t3.207 2.357q.655.523 1.113 1.112t.72 1.244q.328.655.328 1.375m-7.529 25.792q1.113-3.208 1.833-5.5.786-2.225 1.31-3.534.654-1.637 1.112-2.619.524-1.44 1.179-2.88.654-1.44 1.374-2.618.72-1.179 1.375-2.03.59-.785 1.047-1.047.393-.196 1.637 0 1.31.196 2.88.851 1.571.655 2.946 1.833t1.964 2.88q.524 2.03.327 5.368-.196 3.273-.458 6.808-.327 3.47-.458 6.612t.393 4.713q.327.916.72 1.767.327.72.85 1.506.459.785 1.113 1.31-2.618.981-4.19 1.44-1.57.523-2.356.72-.982.261-1.309.065-.72-.262-1.375-1.31-.589-1.112-1.047-3.403-.196-.72-.13-2.553.13-1.768.261-3.994.196-2.225.393-4.713.196-2.487.327-4.582.196-2.16.262-3.797 0-1.57-.066-2.16-.458-1.506-1.243-2.16t-1.244-.131q-1.113 1.31-2.357 4.582-1.309 3.273-2.487 7.07t-2.03 7.593q-.85 3.732-1.047 6.154 0 .524-.785 1.113-.851.589-1.899 1.047-1.047.458-2.03.59-.981.13-1.308-.328-.328-.262-1.179-1.244-.85-.982-.916-3.338-.197-2.226 0-6.088.196-3.928.065-8.183V22.276q-.065-7.136-.13-18.853.981-.524 1.767-.917t1.505-.654q.851-.393 1.572-.524 3.796-.982 3.993 0 .065.85-.197 5.695-.065 2.03-.262 5.172-.196 3.142-.392 7.658-.197 4.452-.524 10.474t-.786 13.944m39.605-2.946q1.963.72 3.73 1.309 1.768.655 3.143 1.506 1.31.916 2.16 2.16.786 1.178.786 2.946 0 2.16-.917 4.058-.982 1.899-2.75 3.273-1.767 1.44-4.32 2.291t-5.695.851q-3.535 0-5.63-.654-2.16-.655-3.338-1.571-1.178-.917-1.505-1.768-.393-.916-.393-1.44 0-1.047.458-2.356.458-1.31 1.702-2.815.524-.655 1.178-1.179 1.244-1.112 2.488-1.374-.197 2.094.524 3.404.654 1.243 1.767 1.964t2.487.981q1.44.328 2.684.328t2.553-.393q1.244-.327 2.357-.916 1.047-.59 1.767-1.375.655-.72.655-1.637 0-.982-.85-1.636-.786-.59-1.965-.982-1.244-.458-2.618-.655-1.375-.196-2.619-.523l-3.404-.72q-2.094-.524-4.058-1.572-2.03-1.047-3.535-2.88-1.44-1.767-1.44-4.713 0-3.404 1.702-5.957 1.767-2.553 4.32-4.32 2.553-1.703 5.433-2.619 2.815-.916 5.106-.916 1.113 0 2.488.327 1.31.327 2.487 1.047 1.179.786 1.964 2.03.72 1.243.72 3.207t-.327 3.208q-.262 1.178-.85 1.898-.59.655-1.376.851-.85.131-1.898.131-.72 0-1.375-.13-.523-.197-1.113-.394-.654-.196-1.178-.589.851-1.113 1.375-2.095.524-.981.524-2.422 0-1.243-.72-2.225-.655-.982-2.16-.982-1.637 0-3.077.654-1.506.59-2.619 1.702-1.113 1.048-1.767 2.422-.72 1.375-.72 3.012 0 2.422 1.833 4.582 1.832 2.095 5.826 3.666m40.847 12.437q.197.59.59 1.113.261.459.72.851.523.459 1.243.524-.654 1.244-1.309 1.702-.327.262-.589.327-.785.328-2.422.328t-3.142-.982q-.524-.459-.982-1.375-.458-.72-.786-2.03-.261-1.309-.458-3.338-1.244 2.684-2.815 4.255t-3.076 2.291q-1.702.982-3.535 1.179-2.226.13-4.255-.786-1.964-.916-3.339-2.88-1.44-1.899-2.16-4.713-.72-2.75-.393-6.22.262-3.665 1.375-6.545 1.178-2.88 2.815-5.106 1.57-2.226 3.404-3.797 1.767-1.571 3.404-2.619 1.702-1.047 2.88-1.505 1.244-.524 1.571-.59.982-.261 1.702-.196.72.131 1.244.851.196.262.458.59.196.392.458.981.262.524.459 1.244-2.16.982-4.06 2.226-1.897 1.178-3.403 2.88-1.571 1.702-2.75 4.124-1.178 2.422-1.767 5.892-.916 4.386.458 7.07 1.375 2.683 3.797 2.29 1.44-.458 2.815-1.701 1.113-1.113 2.422-3.273 1.31-2.095 2.488-5.892l.72-8.444q.327-3.077.589-4.714.393-1.833.523-2.487.328-.458 1.113-.851.786-.393 1.768-.655t1.833-.327q.785-.066 1.047.065.196.066.196 2.16t-.13 5.303q-.131 3.142-.328 6.873-.196 3.732-.327 7.005-.131 3.338-.196 5.826 0 2.422.13 3.076m27.494-23.37q-.72 0-1.57.786-.852.72-1.637 2.03-.786 1.309-1.637 2.88-.785 1.571-1.44 3.142-1.506 3.797-2.946 7.724t-1.702 6.808q-.065.262-.065.459v.392q-.066.197-.066.59-.196 1.243-.523 1.963-.328.786-1.31 1.048-1.047.196-2.16.262-1.047.13-2.03-.197-.654-.13-.916-.654-.327-.459-.458-1.179-.13-.654-.196-1.243-.066-.655-.066-1.113 0-.524.131-3.339.066-2.815.131-6.415.131-3.6.131-7.004 0-3.47-.13-5.237-.132-1.244-.328-2.357l-.393-1.964q-.262-.982-.655-1.702.982-.523 1.964-.85.982-.393 1.768-.59.982-.262 1.767-.327 2.16-.197 3.404 0 1.178.196 1.178 1.898 0 1.506-.196 4.648-.262 3.208-.524 8.837.982-2.225 2.357-5.04 1.31-2.815 2.815-5.303 1.57-2.422 3.142-4.124 1.637-1.636 3.077-1.636.982 0 2.29.393 1.245.392 2.423 1.112 1.178.655 2.095 1.44.982.786 1.309 1.637.393.851.458 2.75.066 1.898 0 4.189.72-1.702 1.637-3.273.85-1.637 1.833-3.011.916-1.375 1.898-2.357t1.767-1.375q1.113-.458 2.619-.196 1.505.327 3.011.982 1.44.655 2.553 1.571 1.178.851 1.44 1.702t.458 2.75q.131 1.898.262 4.123.066 2.226.066 4.583 0 2.422-.066 4.19-.196 5.17.066 8.182.262 3.011 2.16 4.451-1.244.786-2.357 1.179-1.047.392-1.833.589-1.047.262-1.702.262-.981 0-1.636-.459-.655-.523-.982-1.309-.393-.785-.458-1.767-.066-1.048-.066-2.03 0-.85.131-2.945t.197-4.78q.13-2.748 0-5.563-.066-2.815-.393-5.172t-1.048-3.862Q334.638 30 333.395 30q-1.048 0-2.03 1.31-.982 1.308-1.898 3.403-.917 2.095-1.571 4.648-.655 2.553-1.178 5.106-.59 2.487-.851 4.582-.262 2.095-.262 3.339l-.066-.786q0 1.702.066 3.142 0 1.44.13 2.88.066.524-.981.917-1.113.393-2.422.327-1.244 0-2.357-.589-1.047-.523-1.047-1.767v-2.684q0-1.768-.066-3.993-.065-2.291-.065-4.713-.066-2.488-.131-4.714 0-1.702-.066-3.47-.065-1.832-.196-3.272-.196-1.506-.72-2.357-.458-.916-1.375-.916"/></svg>