<svg xmlns="http://www.w3.org/2000/svg" xml:space="preserve" viewBox="0 0 1024 1024"><path d="M447.003 621.592c5.036 3.263 6.386 7.86 6.383 13.148-.012 17.5.045 35 .04 52.499-.013 53.656.026 107.311-.176 160.966-.02 5.115 1.493 6.909 6.52 6.51a80 80 0 0 1 12.989.023c4.987.417 6.258-1.766 6.21-6.384-.176-16.83-.034-33.665-.037-50.498-.017-82.5-.055-164.998-.025-247.497.002-4.315.376-8.653.907-12.94.82-6.628 6.013-11.466 13.59-11.552 23.466-.268 46.94-.297 70.406-.011 8.422.102 13.427 6.04 13.49 14.91.119 16.666.068 33.333.067 50-.008 85.499-.024 170.998-.034 256.497 0 7.388.009 7.392 7.404 7.404 4.333.007 8.67-.105 12.998.036 3.024.099 4.189-1.175 4.152-4.136-.087-7.165-.023-14.333-.025-21.5-.029-127.664-.057-255.33-.097-382.995-.001-4.005.175-7.98.735-11.959 1.002-7.115 4.057-10.648 11.021-12.42a30.3 30.3 0 0 1 8.918-.919c17.951.831 35.9 1.051 53.856.033 4.314-.245 8.62.116 12.931.79 8.12 1.27 12.495 5.649 13.006 13.862.227 3.654.12 7.33.12 10.996.004 133.665.002 267.33.004 400.996 0 7.168.015 7.173 7.085 7.198 4.167.014 8.348-.204 12.496.074 3.976.267 5.45-1.59 5.507-5.212.036-2.332.139-4.664.126-6.995-.87-168.326-.377-336.653-.451-504.98-.003-6.826.258-13.658.578-20.48.422-8.99 4.448-13.356 13.32-14.564 2.466-.335 4.984-.515 7.469-.448 19.302.517 38.6.526 57.903-.008 2.976-.082 6.002.24 8.947.724 6.775 1.112 10.069 4.8 11.079 11.581.593 3.984.623 7.966.623 11.964q-.042 259.996-.086 519.993 0 1 .002 2c.02 6.331.295 6.404 6.475 6.116 11.482-.536 22.982-.822 34.456.185 5.519.484 11.067 2.03 13.002 7.716 2.332 6.853 2.893 14.106-1.568 20.628-2.085 3.048-5.163 4.713-8.891 4.856-3.827.147-7.661.173-11.492.173-217.33.014-434.661.018-651.992.03-6 0-12.002.213-17.998.085-11.211-.238-14.966-4.405-15.397-15.452-.42-10.753.878-18.185 18.488-18.58 10.328-.231 20.666.03 30.999.046 6.667.01 6.797-.106 6.8-6.604.012-18.167.085-36.334-.065-54.5-.04-4.858.536-9.635 1.018-14.424.592-5.866 4.8-10.034 11.51-10.584 9.288-.761 18.65-.872 27.941.136 5.007.543 9.926.449 14.925.04 10.961-.893 21.981-1.277 32.896.219 8.133 1.114 11.246 5.062 11.278 13.22.088 22.333.158 44.667-.02 66.998-.037 4.5 1.2 6.41 5.9 6.118 4.98-.31 9.997-.148 14.995-.032 3.147.074 4.69-1.17 4.522-4.4-.078-1.496.014-3 .014-4.5-.007-68.332-.021-136.665-.02-204.997 0-17.185 3.956-21.156 21.207-21.181 20.158-.03 40.315.03 60.473.024 3.528 0 6.964.4 10.593 1.958m245.716 55.537c.055-1.165.125-2.329.163-3.494.951-28.828-2.868-57.525-2.32-86.363.18-9.426-1.003-18.998-3.874-28.123-2.94-9.34-4.071-18.834-3.664-28.582.301-7.203-.664-14.3-2.516-21.251-.57-2.139-1.023-4.711-5.281-4.665-.6 10.43-2.983 20.846.252 31.221 1.745 5.598 2.077 10.774-1.052 15.818-1.137 1.833-2.634 3.824-5.216 1.9-2.715-2.021-3.786-.175-4.955 1.85-4.078 7.07-6.272 14.578-6.273 22.831-.003 21.466-.646 42.906-3.842 64.19-1.656 11.025-4.34 22.108-2.836 33.242 2.717 20.116 5.334 40.29 10.62 59.965 3.967 14.76 1.785 28.222-7.522 40.642-4.156 5.547-9.239 7.493-15.62 6.228-4.285-.85-7.858.062-11.32 2.44-1.639 1.127-3.327 2.606-5.17 2.937-6.503 1.166-8.373 5.836-9.409 11.364-3.088 16.48-2.687 33.15-2.758 49.798-.016 3.813 2.196 4.805 5.477 4.802 24.488-.023 48.976-.056 73.464.007 3.276.008 4.96-1.043 4.976-4.54.035-7.478.267-14.956.383-22.434.202-12.988.464-26.037-1.347-38.89-2.559-18.163-4.916-36.3-3.979-54.673.432-8.467 1.665-16.876 1.862-25.388.231-9.974 1.072-19.934 1.757-30.832m-159.671 73.428c-1.237 11.608-5.969 20.665-17.713 24.853-1.985.707-4.036 1.945-5.412 3.507-4.09 4.645-9.234 5.795-14.94 4.93-3.249-.493-4.587.852-5.314 3.688-1.083 4.227-1.505 8.507-1.56 12.863a8946 8946 0 0 1-.716 45.92c-.1 5.693 1.504 7.432 7.952 7.46 22.83.1 45.663-.006 68.494.146 4.406.029 5.988-1.807 5.837-5.963-.403-11.153-.504-22.32-1.11-33.46-.585-10.78-.457-21.683-4.005-32.113-2.118-6.227-3.01-12.632-2.487-19.203 1.192-15.018-.256-30.002-2.414-44.737-1.616-11.042-3.6-21.975-3.784-33.158-.164-9.987-3.704-19.24-6.392-28.655-.904-3.17-2.803-6.797-5.933-7.583-3.39-.85-3.309 3.887-5.34 5.647-.49.426-.765 1.09-1.193 1.598-7.014 8.336-9.5 17.24-6.16 28.252 2.418 7.97 4.71 16.489 2.425 25.084-1.541 5.799-1.43 11.482-.246 17.3 1.537 7.559 2.045 15.173.011 23.624M390.5 853.891c15.14-.027 30.28-.012 45.42-.102 6.993-.041 7.864-1.521 4.745-7.56-2.584-5.002-6.262-9.456-7.528-15.119-2.244-10.031-8.291-18.062-13.992-26.24-1.587-2.277-3.437-4.687-6.65-4.775-4.898-.135-7.727-3.223-9.308-7.186-2.435-6.103-6.485-10.588-11.45-14.743-4.974-4.164-9.86-5.085-15.6-2.238-2.068 1.025-4.093 2.034-6.616 1.825-4.316-.358-6.283 1.753-6.266 6.206.08 21.628.104 43.257-.063 64.884-.032 4.095 1.647 5.154 5.346 5.069 6.984-.16 13.974-.032 21.962-.021m349.473-10.539c-2.543 1.193-5.082 2.826-4.116 5.942.94 3.036 3.55 4.69 6.982 4.488.662-.039 1.33.02 1.995.02 22.12.01 44.24.053 66.36-.027 2.282-.008 5.61 1.167 6.386-2.169.753-3.233 1.585-6.755-2.236-9.382-5.407-3.72-9.717-8.51-12.182-14.787-.594-1.513-1.586-2.99-2.736-4.144-6.847-6.872-13.607-14.082-24.862-11.085-3.499.932-6.836.5-10.286-.52-5.734-1.693-8.791-.742-10.868 4.762-2.746 7.279-7.577 13.665-8.95 21.505-.46 2.633-2 4.545-5.487 5.397M304.485 853.82c3.664-.03 7.338.101 10.989-.13 5.093-.32 8.05-4.533 5.306-8.614-4.117-6.123-8.44-12.722-16.335-14.608-12.543-2.997-25.431-3.32-38.2-2.974-11.764.318-18.435 9.167-24.415 17.887-3.055 4.455-.358 8.373 5.2 8.391 18.82.062 37.64.04 57.455.048M501.387 558.77c1.736-4.864-.334-12.72-4.175-15.846-3.017-2.455-5.853-1.652-7.355 2.235-2.773 7.176-1.822 14.424-.018 21.595.86 3.416 2.909 3.707 5.476 1.396 2.68-2.412 3.835-5.802 6.072-9.38M693.703 274.654c-26.24 34.774-54.975 66.926-84.122 98.775-42.992 46.977-90.773 88.612-140.09 128.69-51.148 41.567-106.802 76.262-163.979 108.604-45.055 25.485-92.914 44.881-141.555 62.372-6.423 2.31-12.768 4.892-19.307 6.811-6.781 1.991-11.127-.934-11.056-6.578.047-3.751 2.521-5.201 5.374-6.386 15.074-6.262 30.2-12.404 45.242-18.74 77.056-32.458 148.245-74.92 214.745-125.49 46.098-35.056 89.363-73.323 130.977-113.532 49.096-47.439 94.617-98.054 135.795-152.527 14.272-18.879 27.635-38.398 40.319-58.386 2.05-3.23 1.395-4.897-1.601-6.784-6.201-3.905-12.282-8.007-18.325-12.155-6.302-4.325-6.244-7.526.478-10.68 28.2-13.23 56.452-26.35 84.736-39.398 5.87-2.707 8.577-.754 7.888 5.893-1.182 11.408-2.808 22.771-4.253 34.152-2.22 17.486-4.523 34.961-6.632 52.46-1.043 8.65-4.13 10.358-11.402 5.637-6.82-4.428-13.475-9.109-20.784-14.072-13.22 21.315-27.204 41.55-42.448 61.334M502.848 274.824c-16.563 7.453-24.851 20.496-27.472 37.627-.503 3.282-.763 6.606-1.371 9.867-.415 2.218-.634 4.785-3.874 4.974-3.123.182-3.837-1.986-4.54-4.317-2.019-6.69-4.142-13.348-6.12-20.05-5.65-19.14-19.356-29.155-37.97-33.646-2.75-.664-5.497-1.344-8.26-1.948-2.323-.507-3.467-1.973-3.348-4.253.121-2.318 2.038-2.166 3.691-2.413 29.722-4.443 43.785-22.927 50.074-49.779.528-2.256.759-4.588 1.031-6.896.25-2.115.675-4.053 3.306-4.203 2.316-.133 3.86 1.092 4.473 3.228 1.649 5.752 3.615 11.461 4.66 17.33 2.966 16.662 12.35 27.627 28.226 33.17 6.129 2.14 12.29 4.189 18.42 6.323 1.88.655 4.138 1.282 4.138 3.717 0 2.319-2.036 3.327-3.95 3.998-6.906 2.42-13.844 4.747-21.114 7.271M147.44 327.549c16.617-37.53 43.367-64.263 81.016-79.897 2.454-1.019 5.011-1.81 7.56-2.574 2.46-.738 4.835-.49 5.867 2.208 1.105 2.89-.893 4.25-3.237 5.198-.618.25-1.252.456-1.878.685-39.83 14.583-67.443 41.912-83.41 80.937-5.953 14.548-6.985 30.005-5.465 45.649 1.308 13.473 3.32 26.74 9.28 39.089.715 1.482 1.555 2.904 2.59 4.82 2.83-1.871 5.337-3.697 8-5.26 9.851-5.785 20.248-8.388 31.547-4.927 8.985 2.752 14.301 9.194 14.942 17.968.685 9.39-4.003 17.84-12.09 21.79-12.804 6.253-28.074 2.766-38.488-8.838-1.976-2.202-3.81-4.53-6.017-7.17-8.053 6.998-14.012 15.143-19.258 23.792-18.425 30.377-23.796 63.5-20.324 98.424.46 4.63.934 9.26 1.326 13.895.219 2.578.268 5.433-3.147 5.75-3.48.321-3.83-2.785-4.177-5.158-.91-6.253-1.91-12.53-2.214-18.83-1.094-22.741.231-45.247 7.465-67.09 6.746-20.371 16.951-38.717 31.98-54.144 2.928-3.005 3.124-5.372 1.54-9.157-11.219-26.826-14.296-54.561-8.148-83.097 1.009-4.681 3.038-9.143 4.74-14.063m19.833 101.065c-1.43 1.345-3.38 2.52-1.884 4.947 6.5 10.554 18.461 18.25 32.212 12.76 5.93-2.367 9.452-8.115 8.855-13.705-.696-6.517-5.04-10.99-11.836-12.352-10.346-2.073-18.825 2.064-27.347 8.35"/><path d="M324.329 645.547c6.309 5.716 6.285 5.701 1.936 12.49-15.999 24.969-31.961 49.96-47.976 74.919-7.314 11.399-15.811 11.351-22.97-.243-6.564-10.632-12.914-21.395-19.29-32.14-3.283-5.534-2.221-9.404 3.482-13.444 4.512-3.197 9.954-2.818 13.362 1.696 3.6 4.766 6.476 10.075 9.728 15.108 1.334 2.064 2.179 4.484 4.79 6.58 4.14-6.53 8.173-12.94 12.257-19.318q13.344-20.834 26.739-41.636c.718-1.116 1.52-2.2 2.416-3.177 4.788-5.225 9.166-5.513 15.526-.835M317.873 365.922c7.349-11.354 14.38-22.484 21.71-33.414 5.165-7.702 7.597-7.907 14.814-2.197.783.62 1.544 1.295 2.407 1.783 4.116 2.328 4.4 5.228 1.91 9.103-11.08 17.237-22.01 34.57-33.04 51.84-5.47 8.565-10.958 17.12-16.58 25.584-5.618 8.462-13.327 9.296-18.947 1.087-8.46-12.354-15.973-25.364-23.671-38.224-1.95-3.257.655-7.916 5.463-10.971 4.605-2.926 9.698-2.451 12.92 1.949 3.928 5.366 7.26 11.166 10.895 16.75 1.067 1.638 1.673 3.647 4.194 5.116 5.92-9.38 11.829-18.738 17.925-28.406M290.533 517.548c9.6-15.234 18.988-30.171 28.433-45.073 1.51-2.383 3.118-4.742 4.958-6.872 4.343-5.03 6.781-5.313 12.507-1.836 7.974 4.84 8.685 7.193 3.646 15.158-15.126 23.912-30.398 47.73-45.603 71.592-1.536 2.412-3.327 4.586-5.675 6.24-5.662 3.988-12.015 3.657-15.833-2.106-7.897-11.92-15.154-24.271-22.479-36.561-1.705-2.86 1.903-9.028 6.383-11.773 4.213-2.582 8.39-2.119 11.454 2.102 3.903 5.377 7.24 11.164 10.83 16.768.87 1.357 1.772 2.692 2.82 4.282 3.884-3.494 5.553-7.975 8.56-11.921M510.5 126.15c.981-3.236 3.696-3.857 5.995-4.29 18.973-3.578 30.025-15.283 35.047-33.44.617-2.23 1.676-4.344 2.613-6.476.47-1.069 1.097-2.218 2.46-2.194 1.68.03 2.116 1.465 2.43 2.75 1.065 4.356 2.15 8.711 3.033 13.106 2 9.956 7.805 16.713 17.048 20.64 4.748 2.017 9.536 3.94 14.28 5.965 1.2.512 2.61 1.067 2.567 2.7-.044 1.622-1.469 2.087-2.687 2.591-1.382.573-2.77 1.2-4.218 1.536-15.201 3.532-23.868 13.661-28.416 27.99-.603 1.903-1.13 3.838-1.875 5.684-.641 1.588-1.75 3.002-3.59 3.106-2.097.118-2.785-1.756-3.266-3.262-2.097-6.565-5.02-12.617-9.39-18.037-7.18-8.905-15.477-15.573-27.627-15.645-1.758-.01-3.811.03-4.405-2.724M876.15 775.142c20.773-14.89 31.778-34.717 33.8-59.924 2.156-26.873-2.622-52.028-16.643-75.202-3.544-5.858-8.025-11.033-12.625-16.103-1.597-1.76-4.19-3.96-1.651-6.374 2.548-2.423 5.264-.852 7.414 1.371 13.65 14.119 22.348 30.904 27.094 49.888 5.627 22.51 6.863 45.021.303 67.545-5.167 17.737-15.678 31.805-30.178 43.028-1.18.913-2.422 1.826-3.776 2.418-2.298 1.005-5.028 2.176-6.773-.501-1.921-2.946.733-4.445 3.035-6.146"/></svg>