<svg xmlns="http://www.w3.org/2000/svg" xml:space="preserve" viewBox="0 0 1200 1200"><path fill="none" stroke="#000" stroke-linecap="round" stroke-linejoin="round" stroke-width="5" d="M805 639.5c5.346-11.593 2.313-23.445.36-34.976-6.399-37.798-11.751-75.759-18.119-113.565-4.535-26.925-8.626-53.951-12.752-80.957-3.949-25.842-7.9-51.683-12.015-77.498-3.88-24.352-8.319-48.62-11.847-73.022a1867 1867 0 0 0-7.092-44.988c-1.557-9.178-15.66-20.745-26.032-20.827-24.496-.194-49.027.05-73.493-.922-16.186-.643-32.356-.073-48.507-.8-28.49-1.283-57.02-.978-85.498-2.086-44.84-1.744-89.677-.85-134.504-.635-27.99.135-56.001 1.222-83.994 2.033-13.17.381-26.351.166-39.505.79-27.321 1.296-54.665 1.443-81.998 2.125-21.999.548-44 1.3-66 1.935-6.515.187-13.084.34-19.531 2.303-13.597 4.14-23.01 19.839-21.642 34.106 3.578 37.318 9.283 74.344 14.137 111.488 3.944 30.175 7.78 60.362 11.814 90.525 2.227 16.654 5.023 33.237 6.793 49.963 1.468 13.872 3.554 27.68 5.434 41.507a24985 24985 0 0 0 8.998 65.5c1.964 14.172 3.856 28.355 6.02 42.497 5.2 33.97 9.252 68.108 14.897 102.017 1.033 6.204 1.368 12.48 3.53 18.504 4.422 12.323 6.746 13.77 19.046 10.983"/><path fill="none" stroke="#000" stroke-linecap="round" stroke-linejoin="round" stroke-width="6" d="M100 210c-2.873-2.46-5.508-2.725-9.067-.612-8.044 4.776-12.054 6.1-10.001 22.12 1.36 10.621 2.169 21.317 3.04 31.994.953 11.657 1.243 23.39 2.739 34.97.644 4.991 2.705 9.843 3.563 14.982.531 3.176.877 6.449 1.058 9.556.655 11.274 2.549 22.352 4.11 33.498 3.031 21.64 5.844 43.31 8.517 64.997 1.89 15.326 4.073 30.611 5.702 45.978 1.257 11.863 2.687 23.738 4.711 35.539 1.927 11.231 2.79 22.645 4.137 33.977.1.841.168 1.74.515 2.49 4.402 9.526 2.16 20.59 6.976 30.011-1.49 8.289 1.268 16.311 1.619 24.495.202 4.725.796 9.403 2.55 14.128 1.46 3.936.923 8.892 1.195 13.385.573 9.511.192 19.235 2.39 28.431 2.223 9.304 2.878 18.761 4.64 28.081.834 4.413 4.024 4.6 7.106 5.48"/><path fill="none" stroke="#000" stroke-linecap="round" stroke-linejoin="round" stroke-width="8" d="M125 257c-4.445 4.85-5.969 10.474-5.042 17.006 1.65 11.645 1.677 23.718 4.878 34.898 4.258 14.864 4.513 30.218 7.935 45.149 3.382 14.759 5.007 29.93 7.196 44.952 1.989 13.644 2.841 27.516 5.78 40.94 2.8 12.785 4.18 25.733 5.927 38.6.953 7.014.708 14.36 1.906 21.441 1.237 7.313 2.102 14.654 3.064 21.995.569 4.338 1.024 8.691 1.275 13.024.725 12.55 2.484 25.02 3.303 37.513 1.084 16.538 2.917 32.985 4.374 49.473.414 4.685.911 9.411 2.253 14.053.947 3.274.896 6.995.567 10.448-.737 7.75.442 15.405 1.313 22.982.656 5.711 4.315 10.662 8.271 15.026"/><path fill="none" stroke="#000" stroke-linecap="round" stroke-linejoin="round" stroke-width="17" d="M626.5 210.5c9.667.167 19.358.819 28.992.338 7.001-.35 14.04 1.214 21.044-.706 2.108-.578 4.613-.447 7.007.785 6.133 3.156 12.636 2.486 18.932.504 3.344-1.053 6.321-1.724 9.014 1.09 1.26 1.317 2.873 2.153 4.521 2.428 7.568 1.262 9.934 8.023 13.25 13.214 2.256 3.532 2.088 8.556 3.272 12.838 2.457 8.889 2.335 17.84 2.282 27.01-.057 9.826 2.359 19.665 3.684 29.5 1.01 7.498 1.824 15.029 3.076 22.487.642 3.827 2.237 7.05 5.122 10.283 2.96 3.318 4.48 9.283 3.028 13.637-2.558 7.663-.63 14.89.47 22.062 1.78 11.61 5.552 22.933 7.063 34.562 1.142 8.796 2.323 17.626 3.342 26.457 1.006 8.726 2.17 17.469 4.382 26.016.465 1.8 1.02 3.673.96 5.493-.225 6.723 5.504 11.535 5.4 18.507-.053 3.47-1.242 6.803-.528 10.53 2.182 11.402 3.902 22.926 5.071 34.477 1.015 10.026 2.18 20.016 3.56 29.996.764 5.515 3.792 10.185 5.424 15.376 1.52 4.835 3.47 9.532 4.121 14.617 1.177 9.19 3.663 18.175 4.058 27.497.26 6.15-2.23 11.027-5.438 16.071-6.453 10.152-16.837 11.458-27.13 12.764-3.457.44-7.012.76-10.463 1.275-5.993.893-11.934 1.554-18.017 1.482-4.67-.055-7.857 4.29-12.492 4.957-9.356 1.343-18.679 2.922-28.006 4.462-8.84 1.459-17.67 2.978-26.5 4.494-14.502 2.49-29.043 4.78-43.484 7.586-7.564 1.469-14.71 4.624-22.506 5.51-9.547 1.085-19.003 4.097-28.513 4.164-23.345.165-45.653 6.704-68.518 9.58-18.856 2.371-37.437 6.556-56.47 7.809-9.557.63-19.002 2.898-28.512 4.335-10.324 1.56-20.677 2.93-30.994 4.538-8.852 1.38-17.651 3.103-26.508 4.448-18.153 2.756-36.363 5.153-54.487 8.084-19.04 3.079-37.918 7.341-57.036 9.726-17.204 2.146-34.083 6.52-51.472 7.234-.839.035-1.636-.182-2.53.441-7.24 5.046-15.001 4.863-22.971 2.042"/><path fill="none" stroke="#000" stroke-linecap="round" stroke-linejoin="round" stroke-width="3" d="M152 710c.03-5.595-.339-10.782-3.11-16.2-1.802-3.525-2.86-8.394-2.122-13.335.954-6.396.337-13.048-1.247-19.47-.155-.629-.006-1.329-.023-1.995q-.497-19.25-.998-38.5"/><path fill="none" stroke="#000" stroke-linecap="round" stroke-linejoin="round" stroke-width="4" d="M786 641c3.128 3.106 6.954 2.688 10.47 1.418 6.841-2.471 13.475-1.69 20.013.63 7.407 2.627 14.892 5.18 21.975 8.54 16.413 7.785 33.41 14.163 50.054 21.384 21.783 9.449 43.625 18.764 65.496 28.01 24.633 10.413 49.385 20.546 73.975 31.058 23.745 10.15 47.224 20.931 71.065 30.845 14.144 5.881 28.008 12.42 42.388 17.786 6.242 2.329 11.268 5.825 11.043 14.841-.17 6.8-1.367 12.561-6.16 16.252-5.154 3.967-11.33 6.911-17.813 8.757-5.559 1.582-11.03 3.13-16.109 6.315-4.683 2.937-10.064 5.14-15.432 6.53-11.28 2.923-21.594 8.433-32.931 11.269-17.96 4.493-35.667 9.99-53.553 14.794-5.889 1.582-10.156 6.267-16.452 7.256-6.3.99-12.252 4.205-18.552 5.163-12.704 1.932-24.894 5.518-36.974 9.66-6.682 2.29-13.243 4.984-20.022 6.926-15.273 4.377-30.693 8.24-45.97 12.602-24.04 6.863-47.96 14.15-72.042 20.852-7.374 2.052-15.17 2.209-22.546 4.902-3.901 1.425-6.541 4.476-10.402 5.773-15.176 5.099-30.237 10.596-46.521 10.919-1.442.028-2.8.205-3.996 1.024-5.65 3.87-12.517 4.924-18.494 8.013-5.667 2.927-12.053 4.737-17.974 4.128-7.046-.725-13.154 1.611-19.503 3.002-13.773 3.017-27.385 6.781-41.009 10.44-1.676.45-3.218.642-4.489-.146-4.238-2.63-8.36-2.32-13.064-1.052-17.093 4.61-34.275 8.896-51.485 13.05-7.028 1.698-11.454 5.727-13.486 12.559"/><path fill="none" stroke="#000" stroke-linecap="round" stroke-linejoin="round" stroke-width="2" d="M755.5 617c-4.253-2.003-8.408.127-12.482.643-12.716 1.61-25.303 4.268-38.03 5.753-16.08 1.876-31.853 5.643-47.982 7.168-8.534.806-17.028 3.329-25.5 3.154-9.508-.196-18.725 1.174-27.994 2.376-10.372 1.346-20.697 3.213-31.044 4.678-8.416 1.19-17.01 1.599-25.46 2.79-16.196 2.285-32.405 4.59-48.49 7.537-15.823 2.9-31.747 5.183-47.557 8.197-11.057 2.108-22.142 4.437-33.447 5.376-3.32.276-6.654.762-10.014.828"/><path fill="none" stroke="#000" stroke-linecap="round" stroke-linejoin="round" stroke-width="5" d="M700.5 205c-1.722-1.501-3.519-2.518-6-2.55-18.834-.242-37.682-1.207-56.494-.723-10.829.28-21.718.239-32.509.303-9.548.057-19.353-.45-29.004-1.467-4.962-.524-9.992-.45-14.993-.552-10.166-.204-20.334-.308-30.5-.52-14.334-.298-28.666-.83-43-.912-6.371-.037-12.61-1.233-19-1.16-30.666.348-61.35-.137-91.995.75-25.834.748-51.675 1.131-77.498 2.025-8.14.282-16.625-1.319-24.507 2.306-9.193-3.123-18.738-1.778-27.986-1.254-13.02.737-26.041.05-39.007.868-17.994 1.136-36.006 1.246-54.008 1.857-2.404.082-4.764-.04-6.499 2.029"/><path fill="none" stroke="#000" stroke-linecap="round" stroke-linejoin="round" stroke-width="4" d="M589.5 648c-3.57-2.28-7.567-.962-10.962-.304-12.467 2.417-25.129 3.481-37.584 6.082-8.774 1.833-17.898 2.296-26.942 2.9-11.383.76-22.68 2.805-34.011 4.327-11.003 1.478-21.998 3.016-33.002 4.49-22.498 3.015-45.017 5.875-67.492 9.057-12.041 1.706-24.226 3.106-35.952 6.16-14.71 3.833-29.791 5.23-44.6 8.325-9.764 2.042-19.95 2.11-29.96 2.905-1.855.148-4.537 1.005-4.745-2.442"/><path fill="none" stroke="#000" stroke-linecap="round" stroke-linejoin="round" stroke-width="7" d="M739 599c-3.448 7.507-9.952 9.315-17.49 10.096-12.703 1.316-25.365 3.09-38.005 4.941-16.022 2.347-32.028 4.829-47.997 7.508-11.54 1.936-22.926 5.093-34.526 6.282-21.762 2.23-43.033 7.807-64.975 8.827-8.21.382-16.301 3.197-24.517 3.666-9.407.537-18.21 3.732-27.477 4.794-11.887 1.363-23.678 3.565-35.514 5.382-8.317 1.276-16.574 3.538-24.997 3.4-16.7-.273-33.066 2.604-49.478 4.782-9.058 1.202-18.16 2.76-27.05 5.228-2.854.793-5.807-.791-8.986-.62-14.269.77-28.29 3.481-42.466 4.93-9.042.923-17.927 3.625-27.021 4.792-7.505.962-15.004 1.97-22.5 2.998-8.337 1.142-16.701 2.137-24.983 3.594-3.054.537-6.02.233-9.02.366-5.618.25-11.071.774-14.998 5.534"/><path fill="none" stroke="#000" stroke-linecap="round" stroke-linejoin="round" stroke-width="9" d="M712.5 234.25c-3.326-3.419-7.328-2.595-10.943-1.111-2.186.897-3.806.846-6.08.528-6.516-.912-12.431-3.382-18.51-5.575-2.9-1.046-6.001-1.248-9.025.824-2.901 1.988-6.333 1.777-9.941 1.792-14.002.056-27.973-1.285-42.012-.384-7.604.488-15.35-1.49-22.983-1.172-12.19.507-24.244-1.88-36.533-.37-12.21 1.498-24.767 2.541-36.94 1.373-14.25-1.367-28.405 1.39-42.536-.633-1.143-.164-2.45-.349-3.479.028-10.754 3.946-21.95 2.682-33.018 2.959-5.5.137-11.01-.371-16.509.433-1.624.238-2.858.107-3.918 1.957-.607 1.06-2.966 1.434-4.577 1.55-16.31 1.165-32.59 2.802-49.003 1.65-6.29-.441-12.66.234-18.993.401"/><path fill="none" stroke="#000" stroke-linecap="round" stroke-linejoin="round" stroke-width="6" d="M729 316.5c3.103 1.878 2.706 5.294 2.862 8.008.41 7.138 4.979 13.406 4.499 20.483-.545 8.028.942 15.716 2.117 23.512 1.103 7.318 1.908 14.681 3.047 21.993 2.08 13.347 4.427 26.653 6.449 40.008 3.43 22.652 6.597 45.344 10.056 67.991 2.854 18.69 6.044 37.327 8.889 56.017.418 2.745.193 5.77-.504 8.466-1.968 7.611-1.482 15.685-4.76 23.09-.905 2.047-1.717 3.393-3.629 4.479-5.852 3.325-11.95 5.864-18.486 7.602-2.412.641-4.858.145-6.458-.394-7.655-2.579-14.184 1.024-21.088 2.719-1.28.314-2.585.424-3.494 1.526"/><path fill="none" stroke="#000" stroke-linecap="round" stroke-linejoin="round" stroke-width="2" d="M523.5 240.5c-6.62 1.274-13.319 1.056-20 .984-14.374-.155-28.643 1.711-42.989 2.291-17.047.69-33.992.603-51.017-.137-13.638-.593-27.333-.406-40.995.344-7.828.43-15.666.683-23.499 1.018-11.667.5-23.333 1.007-35 1.476-.493.02-1-.31-1.5-.476"/><path fill="none" stroke="#000" stroke-linecap="round" stroke-linejoin="round" stroke-width="4" d="M656.5 940.5c-13.287 5.413-27.113 9.052-40.999 12.505-16.005 3.98-32.009 7.964-47.999 12.003-17.676 4.464-35.274 9.261-53.045 13.302-4.415 1.003-9.295 3.683-13.357 2.38-6.215-1.995-11.197.225-16.603 1.8-.813.237-1.93-.481-2.478.52-2.866 5.246-8.356 4.84-13.033 5.928-7.446 1.732-15.048 4.478-22.468 4.155-7.107-.31-14.594 3.196-21.673-1.352-1.24-.796-4.53.244-6.842-.256-8.385-1.815-14.835-7.012-20.964-12.528-8.323-7.493-16.333-15.333-24.556-22.939-3.9-3.607-8.08-6.915-11.966-10.536-15.874-14.79-31.593-29.748-47.54-44.456-18.733-17.277-37.596-34.412-56.497-51.504-9.72-8.791-19.886-17.103-29.384-26.123-5.104-4.848-10.574-6.14-17.096-4.899"/><path fill="none" stroke="#000" stroke-linecap="round" stroke-linejoin="round" stroke-width="3" d="M1151.5 795c-3.3.602-4.846 3.505-6.948 5.553-5.905 5.756-13.705 6.647-21.075 8.348-10.311 2.382-20.32 5.733-30.477 8.6-20.667 5.831-41.306 11.764-62.007 17.473-23.97 6.611-47.8 13.91-72.063 19.206-15.412 3.364-30.17 8.673-45.43 12.32"/><path fill="none" stroke="#000" stroke-linecap="round" stroke-linejoin="round" stroke-width="5" d="M494.5 672.5c-7.884.603-15.686 1.986-23.521 2.792-6.954.716-13.978 1.216-20.98 1.701-18.796 1.302-37.312 4.85-55.97 7.24-14.372 1.842-28.759 3.958-43.071 6.531-14.512 2.61-29.145 4.956-43.949 5.882-4.31.27-8.674.87-13.009 1.354"/><path fill="none" stroke="#000" stroke-linecap="round" stroke-linejoin="round" stroke-width="4" d="M755.5 619c-5.351 2.698-11.364 2.166-17.03 3.36-13.91 2.93-27.982 5.074-41.966 7.663-9.107 1.687-18.436 1.847-27.477 3.613-13.319 2.602-27.104 2.609-40.047 7.31-2.915 1.06-5.834-.88-8.994-.619-6.19.511-11.451 3.9-17.471 4.774-1.344.195-2.721.543-4.007.345-3.63-.559-6.491.98-8.397 3.634-1.41 1.964-3.138 2.787-5.113 2.827-2.48.05-4.53.57-5.971 2.612-.55.78-1.124 1.29-2.021.965-6.078-2.204-12.03-.202-18.004.536-8.612 1.063-17.216 2.379-25.479 5.051-7.526 2.434-15.31 2.817-23.01 4.013-16.432 2.553-33.002 3.83-49.53 5.218-12.715 1.068-25.314 2.953-37.96 4.405-14.194 1.63-28.454 2.856-42.563 5.587-11.302 2.187-22.958 2.561-34.463 3.68-1.547.15-3.216.345-4.497-.974"/><path fill="none" stroke="#000" stroke-linecap="round" stroke-linejoin="round" stroke-width="3" d="M913 843.5c.256-2.42-1.291-3.936-3.024-4.959-26.286-15.515-52.979-30.307-80.002-44.49-8.852-4.647-18.02-8.976-28.465-7.489-8.377 1.193-16.683 2.899-25.007 4.447-13.246 2.463-26.161 6.459-39.495 8.534-1.445.225-2.981.675-4.007 1.957"/><path fill="none" stroke="#000" stroke-linecap="round" stroke-linejoin="round" stroke-width="4" d="M626 858.5c.517 2.006 1.73 3.367 3.477 4.534 12.377 8.27 23.972 18.131 37.25 24.49 10.564 5.06 20.273 11.454 30.743 16.538 7.976 3.873 16.419 3.883 24.488 2.231 14.317-2.93 29.038-5.57 42.353-11.237 12.963-5.516 26.515-7.94 39.732-11.914 14.813-4.453 29.963-7.784 44.954-11.652 7.516-1.94 14.895-4.796 22.526-5.814 13.813-1.843 27.206-5.144 40.48-9.164.306-.093.734.112.986-.031 2.722-1.536 6.789-1.607 6.978-5.982.099-2.273-4.706-6.797-7.97-6.905-6.119-.203-11.11-3.462-15.896-6.267-19.968-11.704-40.589-22.217-60.68-33.69-2.976-1.698-6.502-3.093-9.268-4.874-10.355-6.667-21.34-6.729-32.642-4.7-13.38 2.4-26.693 5.199-40.004 7.972-5.377 1.12-10.622 2.983-16.035 3.772-1.862.271-5.699 2.426-6.222-2.307"/><path fill="none" stroke="#000" stroke-linecap="round" stroke-linejoin="round" stroke-width="7" d="M401.5 206.5c-14.167-.167-28.336-.583-42.5-.425-12.337.138-24.837-.189-36.963 1.67-21.614 3.313-43.325 3.363-65.036 4.283-25.17 1.068-50.307 2.784-75.496 3.634a1607 1607 0 0 0-42.497 1.975c-5.218.315-10.506 1.735-15.458 3.502-4.324 1.543-8.64 1.207-12.5.175-10.477-2.8-19.536-1.123-27.568 6.167-.531.482-1.315.686-1.982 1.019"/><path fill="none" stroke="#000" stroke-linecap="round" stroke-linejoin="round" stroke-width="6" d="M324.5 222.5c-9.026.36-18.003-.307-27.013-.73-10.445-.49-21 .92-31.478 1.833-2.56.224-4.973.326-7.515-.063-12.131-1.858-24.426-1.91-36.47-.354-20.952 2.707-41.985 3.305-63.018 4.429-7.498.4-15.05.147-22.538 1.735-4.68.993-9.602.263-13.468-3.35"/><path fill="none" stroke="#000" stroke-linecap="round" stroke-linejoin="round" stroke-width="5" d="M141.5 457.5c.027 10.097 2.07 19.993 3.07 29.993 2.203 22.03 5.312 43.96 7.625 65.986 1.348 12.833 2.747 25.698 3.533 38.538.685 11.195 2.811 22.251 2.772 33.483"/><path fill="none" stroke="#000" stroke-linecap="round" stroke-linejoin="round" stroke-width="3" d="M345 664.5c-.531 2.083-1.74 3.157-3.99 3.559-5.531.987-11.008 2.285-16.51 3.438-7.998 1.677-15.949 3.674-24.015 4.903-7.252 1.105-14.436 2.478-22.008 1.895-5.047-.388-10.347 1.897-15.47 3.235-9.87 2.578-20.085 3.215-30.005 5.477-7.461 1.702-15.24 1.262-22.606 4.235-3.038 1.225-7.306-.055-10.877-.83-4.542-.988-8.71.448-13.019 1.088"/><path fill="none" stroke="#000" stroke-linecap="round" stroke-linejoin="round" stroke-width="6" d="M122.5 364.5c-.527 9.949.469 19.926 2.78 29.432 2.342 9.64 3.691 19.29 4.726 29.067.635 6.004 1.344 12 1.971 18.003.07.666.129 1.32-.443 2.026-4.414 5.452-2.207 11.675-1.327 17.44.56 3.67-.673 6.993-.308 10.542.396 3.86 1.687 7.49 1.787 11.485.183 7.35 1.518 14.668 2.298 22.007.392 3.684 2.165 7.175 1.516 10.998"/><path fill="none" stroke="#000" stroke-linecap="round" stroke-linejoin="round" stroke-width="2" d="M95.5 398.5c.495 8.394 1.744 16.689 2.907 25.013 2.159 15.455 3.686 30.996 5.621 46.483 1.105 8.84 2.385 17.69 3.25 26.526 1.126 11.479 2.423 22.963 3.164 34.482.29 4.506 1.704 8.923 1.058 13.496"/><path fill="none" stroke="#000" stroke-linecap="round" stroke-linejoin="round" stroke-width="3" d="M723 225c-.924 5.905.292 11.709 1.1 17.486.439 3.143.567 6.05-.564 9.028-.371.976-1.598 1.677-1.038 2.987 3.643 8.533.3 17.87 3.037 26.488.746 2.349 1.047 4.961.327 6.961-2.831 7.866.78 15.073 1.617 22.552.148 1.317.537 2.987-.062 3.946-4.051 6.488-1.493 13.422-1.252 20.046.377 10.356 1.769 20.68 2.85 31.004 1.607 15.34 3.25 30.677 5.013 45.999.92 7.992 2.515 15.912 2.472 24.003"/><path fill="none" stroke="#000" stroke-linecap="round" stroke-linejoin="round" stroke-width="5" d="M749 327c3.708-3.493 2.356-8.05 1.851-11.98-1.205-9.393-3.692-18.631-4.72-28.034-1.225-11.218-2.982-22.341-4.663-33.481-1.688-11.189-3.126-22.455-5.65-33.463-1.628-7.103-5.526-13.293-13.816-14.805-3.661-.668-6.994-.43-9.502 2.763"/><path fill="none" stroke="#000" stroke-linecap="round" stroke-linejoin="round" stroke-width="3" d="M721.5 806c-5.743-3.672-11.23.008-16.45 1.216-13.814 3.196-27.25 8.043-41.083 11.138-18.331 4.101-36.507 8.675-54.464 14.157-1.359.415-3.044.633-3.926 1.562-1.926 2.026-5.374 3.468-3.599 7.437 2.055 4.59 3.994 5.851 9.022 5.49M471.5 234c.667.5 1.396 1.5 1.99 1.424 7.67-.965 14.843 2.385 22.513 2.24 13.489-.254 27.011 1.053 40.493.701 18.174-.475 36.338-.152 54.504-.342 1.864-.02 3.888-.57 5.5.977"/><path fill="none" stroke="#000" stroke-linecap="round" stroke-linejoin="round" stroke-width="2" d="M494.5 210c-6.309-1.107-12.667-.32-19-.469-7.178-.168-14.33-.137-21.513-.913-9.718-1.05-19.232 2.278-28.988 2.215-5.83-.037-11.836.022-17.46 1.337-8.46 1.98-17.126 1.172-25.526 2.892-2.866.586-5.682.23-8.513.438"/><path fill="none" stroke="#000" stroke-linecap="round" stroke-linejoin="round" stroke-width="4" d="M754 346.5c4.527 5.394 3.612 12.306 4.857 18.529 2.482 12.403 4.185 24.964 6.133 37.473 2.542 16.326 4.966 32.672 7.54 48.993.656 4.157 2.097 8.177 1.061 12.527-.281 1.181-1.009 1.694-1.591 2.478M792.5 770c-2.162 3.177-5.75 3.377-8.96 4.604-7.346 2.807-14.923 4.639-22.542 6.39-10.994 2.525-22.005 4.974-32.996 7.514-15.007 3.468-29.984 7.076-45.026 10.384-1.845.406-3.905 1.175-5.988.389-1.194-.451-2.006-.873-1.238-2.281"/><path fill="none" stroke="#000" stroke-linecap="round" stroke-linejoin="round" stroke-width="3" d="M882 865c-.858 2.322-2.894 2.926-4.997 3.51-16.172 4.483-32.367 8.883-48.495 13.518-18.35 5.275-37.019 9.262-55.53 13.887-2.012.503-4.448 1.528-6.478-.415"/><path fill="none" stroke="#000" stroke-linecap="round" stroke-linejoin="round" stroke-width="6" d="M910.5 874.5c-5.833 1.5-11.698 2.89-17.492 4.527-7.875 2.226-16.228 1.757-24.012 4.46-8.875 3.082-18.26 4.344-27.045 7.892-4.816 1.946-10.264.682-15.506 1.883-12.605 2.888-24.056 8.84-36.41 12.359-21.292 6.063-42.325 13.029-63.58 19.222-3.298.96-6.997 1.07-10.455 1.907"/><path fill="none" stroke="#000" stroke-linecap="round" stroke-linejoin="round" stroke-width="3" d="M112.5 428.5c.223 12.257 2.49 24.317 3.55 36.496 1.106 12.686 2.55 25.345 3.97 38.002 1.236 11.01 2.737 21.992 3.918 33.009.302 2.815.527 5.793-.938 8.493"/><path fill="none" stroke="#000" stroke-linecap="round" stroke-linejoin="round" stroke-width="2" d="M429.5 646.5c-8.277-.245-16.373 1.628-24.465 2.75-9.845 1.365-19.73.992-29.54 2.21-15.47 1.919-31.048 2.81-46.522 4.832-4.731.618-9.584 1.677-14.473 1.208"/><path fill="none" stroke="#000" stroke-linecap="round" stroke-linejoin="round" stroke-width="3" d="M108 227c-2.97 3.87-1.694 8.424-1.318 12.483.648 7.003.23 14.008 1.14 21.04 2.065 15.927 2.972 32 4.813 47.961.504 4.376 1.812 8.754 3.135 13.086 1.637 5.359 1.84 11.226.73 16.93"/><path fill="none" stroke="#000" stroke-linecap="round" stroke-linejoin="round" stroke-width="2" d="M117.5 426.5c-.327 6.93 1.65 13.626 2.094 20.494.38 5.863 1.68 11.66 2.385 17.509 1.74 14.45 2.598 28.976 3.563 43.494.609 9.17 2.288 18.264 1.958 27.503M665.5 256.5c-14.333 1.5-28.7 2.74-42.992 4.567-17.369 2.22-34.682 4.883-52.003 7.466-4.664.695-9.241 1.98-14.005 1.967"/><path fill="none" stroke="#000" stroke-linecap="round" stroke-linejoin="round" stroke-width="3" d="M420.5 658c-2.828 3.181-7.042 2.755-10.529 3.322-19.176 3.117-38.179 7.208-57.454 9.802-12.35 1.662-24.54 4.498-37.014 5.417-.975.071-2.292.337-2.003 1.959"/><path fill="none" stroke="#000" stroke-linecap="round" stroke-linejoin="round" stroke-width="4" d="M714 812c-6.626 3.374-13.939 4.937-21.039 6.298-20.258 3.882-39.957 9.884-59.95 14.748-4.908 1.194-9.645 3.075-14.526 4.398-2.152.583-3.895 1.77-5.434 3.114-2.745 2.398-2.769 6.144-.012 8.395 3.506 2.862 6.93 6.644 11.025 7.827 17.28 4.992 29.243 18.485 44.394 26.797 2.455 1.347 5.569 2.682 5.542 6.423"/><path fill="none" stroke="#000" stroke-linecap="round" stroke-linejoin="round" stroke-width="5" d="M768.5 769.5c-6.833 1.833-13.628 3.831-20.509 5.463-11.802 2.8-23.652 5.398-35.493 8.028-9.769 2.17-19.878 2.51-29.516 5.452-.868.265-1.989-.244-2.98-.45-2.461-.509-4.564-.803-7.103.853-3.287 2.143-7.859 1.03-11.399 3.154"/><path fill="none" stroke="#000" stroke-linecap="round" stroke-linejoin="round" stroke-width="2" d="M488.5 701.5c-10.325.124-20.366 2.587-30.468 4.202-11.515 1.841-23.047 3.714-34.529 5.814-10.514 1.924-20.958 4.298-31.529 5.804-3.43.489-6.892 1.71-10.474 1.18M605.5 250.5h-106"/><path fill="none" stroke="#000" stroke-linecap="round" stroke-linejoin="round" stroke-width="8" d="M292.5 697c-4.5-2.519-9.42-.786-13.427.277-16.537 4.388-33.42 6.998-50.082 10.683-2.43.538-3.93-2.504-7.039-1.63-6.172 1.74-12.605 2.583-18.957 3.643-4.38.73-8.908 2.562-12.995-.973"/><path fill="none" stroke="#000" stroke-linecap="round" stroke-linejoin="round" stroke-width="3" d="M356.5 213.5c-18.82 1.139-37.637 2.135-56.495 2.681-14.86.43-29.672 2.486-44.505 3.819"/><path fill="none" stroke="#000" stroke-linecap="round" stroke-linejoin="round" stroke-width="2" d="M441.5 219.5c-11.364.655-22.577 2.605-33.975 3.373-21.166 1.425-42.302 3.19-63.525 3.647-.17.004-.333.313-.5.48M694.5 772.5c-10.667 2.667-21.328 5.353-32.002 7.992-6.004 1.485-11.863 3.448-17.983 4.59-11.885 2.219-23.68 4.923-35.516 7.414-2.451.516-4.97.82-6.999 2.504"/><path fill="none" stroke="#000" stroke-linecap="round" stroke-linejoin="round" stroke-width="7" d="M667.5 225c-2.306-2.494-5.182-3.222-8.502-3.038-3.157.176-6.335-.06-9.497.054-19.52.7-38.984-1.55-58.502-1.043-5.362.14-10.568.808-15.499 3.027"/><path fill="none" stroke="#000" stroke-linecap="round" stroke-linejoin="round" stroke-width="10" d="M617.5 971c-3.245 6.303-9.498 7.6-15.487 9.542-13.247 4.295-27.111 6.294-40.107 11.732-7.209 3.017-15.168 5.483-23.428 2.793-1.006-.327-2.342.152-3.473.453-4.845 1.287-9.64 2.787-14.521 3.91-1.916.44-3.897 1.185-6.031-.365-4.916-3.568-10.56-2.859-15.936-1.496-9.561 2.422-18.991 5.361-28.528 7.888-4.447 1.178-7.491 3.929-9.989 7.543"/><path fill="none" stroke="#000" stroke-linecap="round" stroke-linejoin="round" stroke-width="5" d="M551 791c-.677 1.883-2.222 2.112-3.98 2.574-12.361 3.24-24.87 5.635-37.499 7.564-2.65.404-5.668.538-8.019 2.365-2.065 1.605-4.372.134-6.495.535-5.463 1.033-10.906 1.824-16.51 1.517-3.693-.201-6.496 2.62-9.958 3.584-7.584 2.114-15.36 3.033-23.059 4.233-10.274 1.6-19.872 5.52-29.955 7.742-7.18 1.582-14.563 2.3-21.558 4.795-.93.331-2.76-.2-3.391-.971-3.598-4.4-8.986-6.99-11.684-12.384-1.98-3.957-6.163-2.953-9.362-1.958-9.558 2.973-19.334 5.024-29.038 7.37-11.632 2.811-23.328 5.355-34.99 8.045-2.184.505-4.455.89-6.477 1.795-4.185 1.873-8.107 1.18-11.458-1.393-2.949-2.264-8.222-1.406-9.017-6.42-.39-2.466-1.686-4.556-3.598-5.383-7.573-3.279-11.502-11.252-19.384-14.287-4.437-1.71-5.63-7.85-9.67-10.142-4.5-2.552-6.565-6.165-7.898-10.681"/><path fill="none" stroke="#000" stroke-linecap="round" stroke-linejoin="round" stroke-width="2" d="M404.5 211c-3.506-2.099-7.336-.75-11.003-.94-5.658-.293-11.34-.271-17-.4-11.657-.262-23.323.754-34.99 1.087-7.006.2-13.984 1.073-21.007.253M749.5 768.5c-11.813-.492-23.32 1.403-34.478 5.068-9.647 3.17-19.732 4.057-29.534 6.383-7.12 1.69-14.281 3.237-21.45 4.728-5.996 1.247-12.13.749-18.076 2.706-11.514 3.79-23.857 4.31-35.386 7.861-6.053 1.864-12.141 1.005-18.109 2.633-11.433 3.12-23.396 3.813-34.912 6.368-10.803 2.396-21.893 2.73-32.599 5.589-2.367.632-5.249-.5-7.964.129-6.227 1.441-6.253 3.495-4.454 8.521 1.515 4.235 4.876 5.7 8.962 4.264M218.5 220c-5.529-.781-10.992-.007-16.512.257-8.655.414-17.329.785-25.986 1.279-10.83.617-21.636 1.652-32.502 1.47-2.831-.047-5.715.186-8-2.006"/><path fill="none" stroke="#000" stroke-linecap="round" stroke-linejoin="round" stroke-width="4" d="M133 447c2.268 7.67 2.737 15.618 3.449 23.505.798 8.837 1.647 17.695 2.746 26.47 1.855 14.813 3.94 29.55 3.305 44.525"/><path fill="none" stroke="#000" stroke-linecap="round" stroke-linejoin="round" stroke-width="3" d="M677 238c-2.856 1.633-6.001 1.113-8.997.948-14.506-.798-29.015.186-43.498-.145-9.051-.207-18.007.426-27.005.697M658 645c-5.268 2.273-11.015 1.904-16.51 2.948-13.596 2.583-27.49 3.13-41.04 6.34-4.96 1.176-10.298 1.424-15.456 2.173-2.107.306-4.291.228-5.994-1.461M497.5 204.5l-78 1M536.5 211.5c-11.855-1.357-23.699.314-35.487.805-13.156.549-26.375 1.315-39.517 2.66-1.135.115-2.135.285-2.996 1.035"/><path fill="none" stroke="#000" stroke-linecap="round" stroke-linejoin="round" stroke-width="4" d="M787 557.5c2.274-2.887 2.15-6.078 1.544-9.508-1.468-8.31-3.153-16.619-3.905-25.005-.606-6.767-2.722-13.207-3.254-19.978-.436-5.544-2.174-10.978-2.763-16.522-.293-2.761-1.538-4.237-3.622-5.487"/><path fill="none" stroke="#000" stroke-linecap="round" stroke-linejoin="round" stroke-width="2" d="M429 219c-2.238-1.507-4.686-.45-7-.441-15.834.054-31.674.043-47.497.544-7.352.232-14.67 1.564-22.003 2.397M104 231.5c-2.79 2.456-2.393 6.044-2.356 8.998.175 13.838.397 27.706 1.507 41.49.833 10.346 2.084 20.717 3 31.043.78 8.802 2.94 17.54 2.349 26.469"/><path fill="none" stroke="#000" stroke-linecap="round" stroke-linejoin="round" stroke-width="5" d="M915.5 713.5c-.414-2.644-2.321-3.954-4.502-4.996-2.825-1.35-5.907-2.32-8.45-4.073-6.443-4.44-13.362-5.205-20.522-2.851-6.314 2.075-12.945 2.549-19.175 5.617-5.626 2.77-12.515 2.98-18.852 4.298-3.328.693-6.937.753-9.936 2.142-4.52 2.094-8.362-1.404-12.562-.63-1.162.215-2.717-.73-3.456.52-2.773 4.689-7.612 4.43-12.025 5.55-7.438 1.886-14.708 4.482-22.52 4.423"/><path fill="none" stroke="#000" stroke-linecap="round" stroke-linejoin="round" stroke-width="3" d="M684.5 214c-3.005 2.31-6.202 2.554-10.019 2.206-4.083-.372-8.306-.039-12.483-.096-15.837-.218-31.645-1.647-47.499-1.129-2.71.089-5.44-.171-7.999 1.019"/><path fill="none" stroke="#000" stroke-linecap="round" stroke-linejoin="round" stroke-width="8" d="M675 799c-15.667 3.333-31.29 6.896-47.021 9.889-6.409 1.219-12.74 2.95-19.483 2.84-4.146-.068-8.309 2.186-12.504 3.241-2.626.66-5.314 1.116-7.998 1.486-1.02.141-2.587.587-2.494-1.456"/><path fill="none" stroke="#000" stroke-linecap="round" stroke-linejoin="round" stroke-width="12" d="M201 239c4.937-3.112 10.258-3.605 16.008-3.089 9.055.813 18.07-.411 26.98-1.979 4.198-.738 8.352-.338 12.513-.377 14.07-.134 28.007-2.69 42.001-2.82 14.978-.14 30.005-1.658 45.022.604 5.517.831 11.32-.475 16.974-.273 10.333.37 20.71.268 31.009.401 7.149.092 14.657-.5 21.993-.97 2.698-.172 5.167.27 7 2.503"/><path fill="none" stroke="#000" stroke-linecap="round" stroke-linejoin="round" stroke-width="5" d="M156 768.5c-.018 6.774 1.35 12.295 6.737 17.76 9.439 9.574 18.847 19.15 28.72 28.286 2.66 2.46 5.498 3.87 9.037 3.412 2.898-.376 5.334 1.07 8.006 1.542"/><path fill="none" stroke="#000" stroke-linecap="round" stroke-linejoin="round" stroke-width="6" d="M306.5 841.5c.898 7.257 6.818 10.133 12.09 13.354 1.117.683 2.365.933 3.487 2.07 4.484 4.55 9.967 7.916 15.487 10.96 6.32 3.486 13.322 1.574 19.915.49 6.001-.987 11.974-2.178 18.024-2.847 3.03-.336 5.72-1.443 8.197-3.102.165-.11.268-.9.8-.91 14.998-.304 29.035-5.59 43.452-8.737 12.837-2.802 25.594-6.469 38.585-7.959 10.068-1.154 19.217-4.996 28.958-6.846 4.143-.788 7.97-2.655 12.547-1.665 2.603.563 5.764-.42 8.433-1.377 9.91-3.55 20.526-3.777 30.558-6.822 5.818-1.766 11.941-2.615 17.981-3.513 2.041-.303 3.21-1.358 4.486-2.596"/><path fill="none" stroke="#000" stroke-linecap="round" stroke-linejoin="round" stroke-width="2" d="M629.5 981.5c-6.552.578-12.72 2.814-18.987 4.546-12.71 3.513-25.318 7.392-38.046 10.832-1.748.473-4.246 1.126-5.967-.878M150.5 615.5c.5 18.667 1.035 37.333 1.455 56.001.053 2.334.784 4.866-.955 6.999"/><path fill="none" stroke="#000" stroke-linecap="round" stroke-linejoin="round" stroke-width="5" d="M182.5 813.5c18.278 20.722 37.937 40.06 58.47 58.533 3.223 2.898 6.633 4.64 11.03 3.967"/><path fill="none" stroke="#000" stroke-linecap="round" stroke-linejoin="round" stroke-width="3" d="M590.5 216.5c-7.33-.273-14.794-.775-21.977-.206-13.022 1.033-26.059-.23-39.023 1.206"/><path fill="none" stroke="#000" stroke-linecap="round" stroke-linejoin="round" stroke-width="5" d="M724 637c-3.655-3.863-8.392-2.456-12.478-1.849-10.4 1.546-20.64 4.181-31.043 5.706-5.045.74-10.312 1.38-15.479.143M679 744c3.012-5.257 8.698-5.027 13.52-6.433 2.649-.773 5.293-.877 8.059.803 2.343 1.423 5.105 1.364 7.985-.256 4.535-2.552 10.033-1.648 14.933-3.123 7.22-2.174 15.144-1.28 21.989-5.017 1.34-.732 2.789-.726 3.996-.407 7.642 2.02 14.433-1.609 21.495-3.171 2.852-.63 5.985-.79 7.346 1.224 2.61 3.863 7.066 4.59 10.171 7.386 5.73 5.161 11.957 6.698 19.544 4.106 7.827-2.675 16.645-1.92 23.965-6.608.312-.2.684-.514.994-.478 10.089 1.167 19.166-4.134 29.003-4.52 3.491-.137 6.87-.38 9.056 3.462 3.127 5.494 9.448 5.983 14.475 8.469.604.298 1.864 0 2.434-.48 5.399-4.543 12.264-3.972 18.533-5.465 1.18-.28 2.585-.346 3.459-1.046 3.758-3.012 7.76-1.362 10.39.746 4.221 3.385 9.665 5.032 13.116 9.649.807 1.078 4.525.784 6.49.035 4.767-1.817 9.278-2.66 14.575-2.19 4.597.407 9.434-1.893 14.382-3.048-1.61-4.595-5.554-5.087-8.461-6.535a900 900 0 0 0-34.991-16.509c-3.613-1.61-7.456-1.656-11.529.255-4.979 2.336-10.522 3.38-15.882 4.825-9.344 2.518-19.298 3.502-27.547 9.326"/><path fill="none" stroke="#000" stroke-linecap="round" stroke-linejoin="round" stroke-width="14" d="M517 1000.5c-3.6 5.875-8.948 9.302-15.502 10.994-9.511 2.456-18.584 6.47-28.489 7.587-4.802.542-9.287.89-13.568-1.994-1.041-.701-1.343-1.053-.941-2.087"/><path fill="none" stroke="#000" stroke-linecap="round" stroke-linejoin="round" stroke-width="2" d="M137.5 596.5c-.414 17.541.975 35.014 1.999 52.5.099 1.696.046 3.348-1.499 4.5M327.5 792c-2.24 3.187-5.703.98-8.546 1.85-4.689 1.433-10.021 2.993-14.423 2.695-8.098-.547-15.424 1.957-22.988 3.212-5.019.833-10.573.976-15.043 4.243"/><path fill="none" stroke="#000" stroke-linecap="round" stroke-linejoin="round" stroke-width="6" d="M541 771c-2.786 4.972-8.095 4.485-12.52 5.403-14.113 2.928-28.35 5.251-42.46 8.194-4.918 1.026-9.923 1.777-14.59 4.27-5.472 2.924-11.99 1.662-17.955 3.025-4.03.921-8.078 2.569-12.567.848-1.129-.433-4.091-.582-5.658 1.26M705 740c.981 5.098 5.096 7.696 8.417 11.081 5.747 5.857 11.616 5.023 18.652 2.622 6.678-2.278 13.928-2.887 20.934-4.188 1.434-.267 2.6-.878 3.497-2.015"/><path fill="none" stroke="#000" stroke-linecap="round" stroke-linejoin="round" stroke-width="2" d="M679 242c-3.062 2.15-6.342.425-9.5.448-15.333.115-30.667.052-46 .052"/><path fill="none" stroke="#000" stroke-linecap="round" stroke-linejoin="round" stroke-width="4" d="M442.5 220c1.397 2.102 3.56 1.482 5.5 1.485 16.5.026 33 .015 49.5.015"/><path fill="none" stroke="#000" stroke-linecap="round" stroke-linejoin="round" stroke-width="5" d="M335.5 796c-3.016 3.682-7.611 3.066-11.524 3.888-12.234 2.571-24.43 5.238-36.522 8.437-1.574.416-4.632 3.577-5.954-.825"/><path fill="none" stroke="#000" stroke-linecap="round" stroke-linejoin="round" stroke-width="9" d="M176.5 270.5c.167-.333.244-.823.513-.977 5.046-2.886 7.347-7.316 7.51-13.022.027-.965.078-1.86 1.456-2.316 2.8-.924 5.432-2.158 8.52-2.24 6.764-.18 9.876-6.054 6.501-11.945-.74-1.29-8.627-4.108-10.488-3.464-9.102 3.152-18.703 2.089-28.034 3.296-5.91.764-11.052 1.919-14.478 7.168"/><path fill="none" stroke="#000" stroke-linecap="round" stroke-linejoin="round" stroke-width="5" d="M640 773c-1.31 2.35-3.733 3.042-6.01 3.44-10.96 1.91-21.828 4.444-32.989 5.078-3.205.182-6.118 2.055-9.51 1.539-2.035-.31-3.18-.335-4.226-2.963-1.986-4.987-7.253-7.743-11.057-11.28-4.241-3.944-10.411-.019-15.7.739-4.174.597-8.316 1.456-12.476 2.14-4.206.69-7.017-.696-8.921-3.762-1.61-2.593-5-3.041-6.111-5.931"/><path fill="none" stroke="#000" stroke-linecap="round" stroke-linejoin="round" stroke-width="2" d="M85 303.5c-1.636 1.783-1.164 4.023-.938 5.993 1.376 12.014 2.722 24.04 4.566 35.987.571 3.698.832 7.327.872 11.02"/><path fill="none" stroke="#000" stroke-linecap="round" stroke-linejoin="round" stroke-width="5" d="M147.5 208c1.462 1.687 3.361 2.085 5.5 2.013 15.5-.524 31-1.013 46.5-1.513"/><path fill="none" stroke="#000" stroke-linecap="round" stroke-linejoin="round" stroke-width="2" d="M365.5 673.5c-7 .833-13.999 1.675-21 2.498-10 1.175-19.98 2.611-30.011 3.353-3.532.261-6.666 1.439-9.985 2.166-8.248 1.807-16.726 2.021-24.983 3.591-4.734.9-9.96.439-14.021 3.892M622.5 246.5h-51M145.5 392.5c.47 9.621 2.065 19.055 3.732 28.547 1.277 7.269 2.436 14.912.768 22.453M263.5 690.5c-3.333.667-6.796.972-9.961 2.108-2.798 1.005-4.657-1.274-7.577-.938-9.453 1.09-18.837 3.266-28.465 2.923-1.966-.07-3.637-.07-4.997-1.593"/><path fill="none" stroke="#000" stroke-linecap="round" stroke-linejoin="round" stroke-width="3" d="M613.5 660c-3.629-2.684-7.777-1.332-11.481-.854-11.053 1.427-22 3.652-33.033 5.257-2.586.376-3.8 1.743-4.986 3.597"/><path fill="none" stroke="#000" stroke-linecap="round" stroke-linejoin="round" stroke-width="5" d="M250.5 694c-2.185 2.373-5.054 2.267-7.991 2.58-10.358 1.107-20.556 3.352-30.998 4.082-4.647.325-8.164-.896-11.511-3.662"/><path fill="none" stroke="#000" stroke-linecap="round" stroke-linejoin="round" stroke-width="2" d="M616.5 994.5c-8.24.787-16.055 3.458-23.985 5.555-7.7 2.036-15.554 3.538-23.032 6.4-.873.333-1.983.045-2.983.045"/><path fill="none" stroke="#000" stroke-linecap="round" stroke-linejoin="round" stroke-width="6" d="M705 725.5c-1.359-5.025-12.897-12.948-17.997-12.231-7.178 1.009-14.376 1.94-21.487 3.314-3.826.74-6.368-.216-9.123-2.976-3.148-3.154-7.357-5.146-9.985-9.045-.94-1.396-3.054-1.73-4.907-1.556-5.169.483-10.612.142-15.43 1.711-5.924 1.929-9.564-.697-11.894-4.817-2.892-5.11-7.107-5.416-11.667-4.822-9.533 1.242-19.193 2.212-28.464 4.6-11.904 3.065-24.118 4.047-36.078 6.675-13.527 2.972-27.36 4.526-40.934 7.313-4.36.895-9.48-.033-13.034 3.834"/><path fill="none" stroke="#000" stroke-linecap="round" stroke-linejoin="round" stroke-width="4" d="M888.5 699.5c-3.045-5.504-9.06-6.192-14.047-8.394-2.921-1.29-6.047-1.95-9.03-3.451-10.06-5.063-19.848-10.647-29.974-15.55-4.325-2.095-8.574-5.25-13.949-4.105M280 902c-1.094 3.828-.54 6.701 2.901 9.617 8.633 7.313 17.05 14.937 24.989 22.992 4.502 4.567 8.889 4.664 14.11 2.391"/><path fill="none" stroke="#000" stroke-linecap="round" stroke-linejoin="round" stroke-width="2" d="M144.5 583.5c.667 14.5 1.37 28.999 1.95 43.502.067 1.659.88 3.63-.95 4.998"/><path fill="none" stroke="#000" stroke-linecap="round" stroke-linejoin="round" stroke-width="6" d="M520 764c-6.515-3.814-12.433-8.369-17.525-13.977-.587-.646-1.457-.62-2.465-.684-5.524-.351-10.642 1.732-15.987 2.36-5.34.628-10.938.574-16.004 2.844-1.548.693-3.514.733-4.519 2.457M707 243c4.365 3.703 3.73 9.232 4.921 14.02 2.43 9.768 4.497 19.63 6.506 29.495.392 1.924 1.232 3.267 2.573 4.485M265.5 768c.5.333 1.033.998 1.495.951 10.28-1.028 14.14 8.095 20.353 13.233 2.648 2.19 4.805 4.058 8.142 3.273 10.076-2.37 20.39-3.442 30.465-5.663 3.338-.736 7.991.738 10.045-3.794"/><path fill="none" stroke="#000" stroke-linecap="round" stroke-linejoin="round" stroke-width="2" d="M643.5 782.5c-8.667 1.667-17.353 3.238-25.994 5.03-7.362 1.525-14.673 3.303-22.006 4.97M640.5 645.5c-10.946.414-21.616 3.258-32.508 3.856-5.108.28-10.404 2.25-15.492-.356"/><path fill="none" stroke="#000" stroke-linecap="round" stroke-linejoin="round" stroke-width="5" d="M823 755c.962-2.532 3.236-3.27 5.501-3.995 2.66-.853 5.445-1.42 7.976-2.556 5.827-2.613 10.608-.707 15.01 3.067 3.48 2.986 7.683 3.742 12.005 4.53 11.295 2.06 21.418-2.662 32.085-4.628 7.818-1.44 15.954-2.245 23.905-3.529 4.115-.664 8.705-.495 12.018-3.889"/><path fill="none" stroke="#000" stroke-linecap="round" stroke-linejoin="round" stroke-width="3" d="M273.5 204c-2.058 2.325-5.01 1.77-7.505 1.894-8.82.438-17.661.489-26.495.59-6.77.077-13.37.731-20.06 2.254-5.03 1.145-10.631.707-15.94-.238M187.5 233c-3.68-2.093-7.771-1.288-11.482-.848-9.157 1.087-18.356 1.118-27.524 1.767-2.586.183-4.953.392-6.994 2.081"/><path fill="none" stroke="#000" stroke-linecap="round" stroke-linejoin="round" stroke-width="4" d="M677 764.5c-1.39-2.842-3.212-4.83-6.389-6.249-2.33-1.04-5.015-2.522-6.757-5.155-1.217-1.838-3.62-2.322-6.382-1.723-6.525 1.416-13.052 2.77-19.475 4.616-5.842 1.679-10.685-2.493-12.053-8.476-.582-2.548 2.468-2.599 2.556-4.513"/><path fill="none" stroke="#000" stroke-linecap="round" stroke-linejoin="round" stroke-width="2" d="M354.5 241.5c-15.351-.056-30.707-.247-46 1.5"/><path fill="none" stroke="#000" stroke-linecap="round" stroke-linejoin="round" stroke-width="5" d="M92 223c-2.531 9.333-1.082 18.635-.132 28.013.473 4.674.33 9.38 1.525 14.015.348 1.35 1.06 2.326 1.607 3.472"/><path fill="none" stroke="#000" stroke-linecap="round" stroke-linejoin="round" stroke-width="9" d="M428.5 778c-4.353 2.466-9.357 1.886-14.003 2.987-5.819 1.378-10.872 5.087-16.996 5.528-.84.06-1.784.665-2.483.431-6.9-2.31-12.8 1.758-19.082 2.534-7.24.895-14.547 2.36-21.934 2.587-3.845.119-7.657 1.106-11.506 1.367-2.227.15-4.122 2.813-6.464 1.024-1.672-1.277-3.05-2.94-4.516-4.39.854-3.328 3.966-2.105 5.984-3.068"/><path fill="none" stroke="#000" stroke-linecap="round" stroke-linejoin="round" stroke-width="3" d="M574.5 657c-1.878 2.998-5.06 1.355-7.531 1.842-11.93 2.351-23.967 4.17-35.977 6.107-.435.07-.992-.616-1.492-.949"/><path fill="none" stroke="#000" stroke-linecap="round" stroke-linejoin="round" stroke-width="6" d="M628.5 754.5c-2.87 4.33-7.708 2.277-11.545 3.336-10.2 2.816-20.618 4.848-30.958 7.149-1.977.44-3.997.682-5.997 1.015"/><path fill="none" stroke="#000" stroke-linecap="round" stroke-linejoin="round" stroke-width="2" d="M539.5 965.5c-13.355 2.99-26.768 5.745-39.534 10.916-1.515.613-2.378 1.64-3.466 2.584"/><path fill="none" stroke="#000" stroke-linecap="round" stroke-linejoin="round" stroke-width="6" d="M533.5 709c.134 3.345 3.341 4.446 4.794 6.637 4.607 6.95 11.035 4.542 16.66 3.594 3.807-.64 7.741-1.262 11.573-2.107 2.584-.57 5.018-.376 7.193 2.722 2.515 3.582 7.135 5.435 8.922 10.1.831 2.17 3.8 1.856 5.847 1.494 7.209-1.277 14.206-3.522 21.484-4.618 2.007-.302 3.338.73 5.063.325 3.053-2.208 5.884-3.145 10.517-2.6 5.948.698 12.265-1.97 18.452-3.015 3.881-.655 7.653-.663 10.012 3.458 2.148 3.754 7.68 4.386 8.647 9.479.2 1.047 2.503-.287 3.836.031"/><path fill="none" stroke="#000" stroke-linecap="round" stroke-linejoin="round" stroke-width="2" d="M664.5 250.5c-14.333-.94-28.667.357-43 0M305.5 247c-5.89-1.84-11.629.8-17.502.752-3.432-.029-6.922.63-10.505.34-5.33-.432-10.547 1.924-16.004.97-1.994-.348-3.99-.316-6.016-.98-5.37-1.76-10.718-2.012-15.487 1.9-.562.462-1.593 1.153-1.945.948-5.092-2.974-10.953.702-16.041-1.93"/><path fill="none" stroke="#000" stroke-linecap="round" stroke-linejoin="round" stroke-width="6" d="M484.5 780c-3.06-.43-1.624-3.466-2.91-5.072-3.433-4.286-7.514-7.837-11.59-11.429-2.035-1.794-4.382-2.966-6.2-5.346-2.833-3.706-7.57-1.272-11.282-.95-4.905.425-9.673 2.346-14.523 3.527-2.513.612-4.714.57-5.566-2.712-.395-1.523-2.092-2.169-3.324-3.15-3.206-2.55-6.071-5.736-8.96-8.496-4.09-3.908-8.153-7.232-9.645-12.872-4.924-.563-9.457-3.706-14.485-2.907-7.355 1.169-14.875 2.15-21.916 4.24-5.202 1.544-10.453 1.904-15.607 3.136-5.132 1.226-10.332 2.167-15.487 3.303-1.2.265-2.592.523-3.456 1.284-2.306 2.028-4.722 2.176-7.57 1.534-1.198-.27-2.637-.45-4 .375-4.955 2.998-10.666 1.582-15.976 2.551-5.5 1.003-11.168 1.089-16.498 2.998-.79.283-1.932.194-2.005 1.486M502.5 729c1.051 2.829 2.763 4.992 5.463 6.563 2.343 1.363 5.027 2.858 6.39 5.03 2.306 3.674 5.54 3.166 8.637 2.817 4.207-.473 8.33-1.659 12.515-2.382 2.886-.498 4.925-.172 7.21 2.806 3.999 5.209 8.783 10.154 15.785 11.666"/><path fill="none" stroke="#000" stroke-linecap="round" stroke-linejoin="round" stroke-width="2" d="M698 235c.71 3.034 1.29 6.063 2.416 9.032 2.495 6.579.317 13.671 1.886 20.513.965 4.207 2.72 8.439 2.198 12.955M344.5 250.5c-13.713-.283-27.32 1.574-40.997 2.083-2.43.09-3.715 2.496-5.003 4.417"/><path fill="none" stroke="#000" stroke-linecap="round" stroke-linejoin="round" stroke-width="3" d="M175.5 612.5c1.405 11.658 1.948 23.415 3.993 35.001.381 2.158 1.382 4.53.846 6.454-.863 3.097.383 5.718.661 8.545"/><path fill="none" stroke="#000" stroke-linecap="round" stroke-linejoin="round" stroke-width="5" d="M697 690c-3.865-2.001-7.582-3.595-10.293-7.811-2.392-3.72-7.749-1.7-11.691-1.088-7.388 1.148-14.698 2.828-22.008 4.435-2.807.617-5.589 1.542-7.008 4.464M117.5 368.5c3.321 12.12 5.4 24.52 5.798 37.006.296 9.277 1.968 18.338 3.046 27.453.436 3.683-1.37 8.497 2.656 11.541M179.5 783.5c2.245-.07 4.176.089 6.065 1.933 6.665 6.506 13.594 12.742 20.438 19.064 4.47 4.129 4.98 9.053 2.997 14.503"/><path fill="none" stroke="#000" stroke-linecap="round" stroke-linejoin="round" stroke-width="18" d="M458 1016.5c-4.601 1.035-9.063 1.455-13.55-.905-2.015-1.06-4.527-1.144-6.95-1.146-5.333-.003-10.67-.472-16-.39-4.35.068-7.707-2.464-9.776-5.227-2.842-3.793-6.463-6.013-10.231-8.32-3.08-1.886-6.364-3.464-8.989-6.016-3.365-3.273-7.406-4.456-12.004-3.996"/><path fill="none" stroke="#000" stroke-linecap="round" stroke-linejoin="round" stroke-width="3" d="M307.5 245.5c.44-1.72-.512-2.416-2-2.477-2.164-.089-4.388-.335-6.49.031-8.957 1.557-17.988 1.362-27.01 1.43-1.56.01-2.846.539-4 1.516"/><path fill="none" stroke="#000" stroke-linecap="round" stroke-linejoin="round" stroke-width="6" d="M717 755.5c-2.748 3.86-7.38 2.85-11.053 3.791-9.004 2.305-18.352 3.233-27.415 5.346-4.21.982-8.188 2.944-12.448 4.157-6.649 1.892-13.483 2.753-20.117 4.586-2.224.615-4.576.382-6.64-2.243-2.425-3.084-6.021-5.348-9.376-7.563-2.233-1.474-4.23-2.88-4.951-5.574"/><path fill="none" stroke="#000" stroke-linecap="round" stroke-linejoin="round" stroke-width="2" d="M555.5 1006.5c-11.494 2.59-22.97 5.237-34.007 9.482-4.035 1.551-8.201 2.247-12.493 1.018"/><path fill="none" stroke="#000" stroke-linecap="round" stroke-linejoin="round" stroke-width="10" d="M160.5 725.5c-2.833 4-5.514 8.12-8.536 11.972-4.517 5.758-4.556 11.978-2.446 18.522.549 1.705 1.355 3.325 1.974 5.009 1.562 4.245 3.725 7.509 9.006 7.61 2.149.042 4.368 1.17 6 2.89 4.998 5.269 10.99 9.314 13.819 16.878 2.435 6.511 8.11 11.585 13.18 16.623 3.54 3.52 7.345 6.83 9.503 11.496"/><path fill="none" stroke="#000" stroke-linecap="round" stroke-linejoin="round" stroke-width="5" d="M286.5 901c.451-4.047-.528-7.233-3.92-10.095-6.117-5.163-11.761-10.89-17.574-16.411-3.147-2.99-6.658-4.491-11.006-2.994"/><path fill="none" stroke="#000" stroke-linecap="round" stroke-linejoin="round" stroke-width="6" d="M760 680c-9.5 1.667-19.018 3.24-28.487 5.066-2.394.461-4.499 1.96-6.917 2.733-4.607 1.472-8.937 1.631-13.603 1.295-3.967-.287-7.993.24-11.993.406"/><path fill="none" stroke="#000" stroke-linecap="round" stroke-linejoin="round" stroke-width="2" d="M139 289.5c5.178 4.693 5.052 10.793 4.495 17-.135 1.502-.787 3.123-.422 4.48 2.821 10.507 1.764 21.445 3.599 31.99 1.68 9.654 2.02 19.451 3.89 29.115.852 4.4 1.897 9.543.938 14.415"/><path fill="none" stroke="#000" stroke-linecap="round" stroke-linejoin="round" stroke-width="3" d="M864.5 705c-3.5-2.74-7.282-.7-10.446.192-8.735 2.46-17.46 4.518-26.553 4.849-.345.012-.668.626-1.001.959"/><path fill="none" stroke="#000" stroke-linecap="round" stroke-linejoin="round" stroke-width="5" d="M547 736c-2.973-4.797-9.644-5.76-11.887-11.446-.226-.57-2.384-.622-3.61-.512-4.342.392-8.821.42-12.966 1.588-5.783 1.63-11.747.83-17.615 2.614-7.479 2.274-12.283-3.833-16.203-8.913-2.139-2.773-4.189-3.082-6.71-2.766-9.383 1.177-18.08 5.336-27.498 6.524-1.58.2-3.129 1.423-4.478 2.454-1.351 1.033-2.544 1.462-4.034.46-4.227-2.843-8.7-1.879-12.974-.43-3.965 1.344-7.986 2.384-12.002 3.508-2.16.604-4.37 1.651-5.523 3.919"/><path fill="none" stroke="#000" stroke-linecap="round" stroke-linejoin="round" stroke-width="3" d="M509.5 741c-5.902 1.59-11.884 2.999-17.999 2.92-6.048-.076-12.031 1.035-17.965 1.523-7.29.598-9.55-3.475-12.536-7.943M412 746c-2.934 4.224-7.944 3.678-12.046 4.837-5.311 1.501-11.007 1.583-16.434 2.755-3.28.708-6.096-.075-9.02-1.092"/><path fill="none" stroke="#000" stroke-linecap="round" stroke-linejoin="round" stroke-width="4" d="M712 942c-2.607-1.783-5.33-2.431-8.51-1.538-6.966 1.956-13.99 3.703-20.99 5.539-3.118.818-4.49 3.244-5.5 5.999"/><path fill="none" stroke="#000" stroke-linecap="round" stroke-linejoin="round" stroke-width="2" d="M169.5 429.5c.833 7 1.765 13.99 2.468 21.003.534 5.33 1.957 10.577 1.532 15.997M667.5 638.5c-2.958 1.819-6.311 1.148-9.5 1.495-7.832.85-15.663 1.706-23.504 2.466-1.14.111-2.33-.294-3.496-.461"/><path fill="none" stroke="#000" stroke-linecap="round" stroke-linejoin="round" stroke-width="3" d="M172 639c3.194 2.358 1.043 5.67 1.44 8.508.86 6.14 1.302 12.337 2.099 18.487.396 3.06-.099 5.838-1.539 8.505"/><path fill="none" stroke="#000" stroke-linecap="round" stroke-linejoin="round" stroke-width="6" d="M390 825.5c-.923 1.093-1.928 1.784-3.489 2.062-9.496 1.689-18.833 3.996-28.452 5.355-9.543 1.348-19.187 3.705-28.572 6.539-4.91 1.482-10.282 1.114-14.987 3.544"/><path fill="none" stroke="#000" stroke-linecap="round" stroke-linejoin="round" stroke-width="3" d="M815 709c-8.273-1.184-15.996 2.034-23.991 3.067-3.546.458-7.09 1.703-10.547 2.114-2.188.26-2.62 1.671-3.962 2.319M602 207c-1.367 1.83-3.329.969-5 .956-10.167-.078-20.333-.29-30.5-.456"/><path fill="none" stroke="#000" stroke-linecap="round" stroke-linejoin="round" stroke-width="6" d="M454.5 779.5c-4.155-.743-7.925 1.369-11.981 1.72-3.697.319-6.326 1.914-9.247-2.571-3.77-5.787-10.808-8.672-15.397-14.043-.785-.919-3.329-.913-4.854-.525-7.136 1.815-14.75 1.5-21.556 4.847-.74.364-2.026-.103-2.953-.459-2.454-.94-4.671-.81-7.034.491-4.79 2.64-9.968 3.482-15.473 3.68-5.356.19-10.772 1.13-15.981 2.455-7.464 1.897-13.87.636-19.533-4.586-2.95-2.72-6.15-5.189-8.933-8.065-1.77-1.828-3.838-2.983-6.03-2.347-5.744 1.665-10.69-1.503-16.008-2.24-2.224-.308-4.565-1.915-5.482-4.371-1.232-3.3-3.976-3.322-6.527-2.918-7.198 1.139-14.39 2.399-21.485 4.044-2.376.551-5.103 1.347-6.526 3.888"/><path fill="none" stroke="#000" stroke-linecap="round" stroke-linejoin="round" stroke-width="3" d="M325.5 814.5c-7.5 2-14.973 4.113-22.523 5.903-1.481.352-2.67 1.042-3.97 1.612-5.801 2.545-7.156 6.952-2.92 11.402 3.75 3.94 7.779 7.762 13.891 8.32 1.142.105 4.703-.758 4.522 2.763"/><path fill="none" stroke="#000" stroke-linecap="round" stroke-linejoin="round" stroke-width="6" d="M791.5 663c6.24-3.198 12.712-4.86 19.473-1.937 2.994 1.294 5.635 3.383 8.552 4.889 1.433.74 1.743 1.867 1.407 3.028-.38 1.31-.956 2.604-2.933 2.564-7.473-.153-14.516 3.023-22 2.97-2.658-.019-4.986.388-6.62-2.954-3.428-7.007-7.547-8.567-15.878-7.052-4.34.79-8.757 1.346-12.984 2.551-12.312 3.512-25.334 3.373-37.497 7.5-.657.224-.98.063-1.526.024-11.09-.786-21.382 3.268-31.985 5.459-.899.185-1.676.958-2.509 1.458"/><path fill="none" stroke="#000" stroke-linecap="round" stroke-linejoin="round" stroke-width="3" d="M493.5 217c-9.5.333-18.999.723-28.501.957-2.174.054-4.542.736-6.499-.957"/><path fill="none" stroke="#000" stroke-linecap="round" stroke-linejoin="round" stroke-width="5" d="M667.5 735c2.85 2.884 6.236 1.425 8.933.335 3.305-1.335 6.666-2.685 10.067-2.695 5.861-.016 9.9-4.471 15.477-5.296 7.669-1.134 15.013-3.809 23.03-3.53 4.965.172 10.097-1.102 14.958-2.44 3.572-.982 4.097-4.193 1.506-6.846-3.153-3.23-7.403-5.103-10.586-8.418-1.113-1.16-3.454-.565-5.402-.198-9.45 1.78-18.835 4.025-28.483 4.588"/><path fill="none" stroke="#000" stroke-linecap="round" stroke-linejoin="round" stroke-width="3" d="M170.5 599.5c.667 9 1.208 18.012 2.071 26.993.283 2.942-.39 5.468-1.571 8.007"/><path fill="none" stroke="#000" stroke-linecap="round" stroke-linejoin="round" stroke-width="6" d="M286.5 784c-5.99 3.018-12.648 3.738-19.01 5.464-5.403 1.467-11.054 2.097-15.99 5.036"/><path fill="none" stroke="#000" stroke-linecap="round" stroke-linejoin="round" stroke-width="2" d="m517 768-34.5 8"/><path fill="none" stroke="#000" stroke-linecap="round" stroke-linejoin="round" stroke-width="6" d="M436 814.5c-.575-3.232-3.252-4.667-5.485-6.518-1.906-1.58-4.216-3.007-5.397-5.05-2.047-3.543-4.575-3.845-8.132-2.992-5.504 1.321-11.07 2.34-16.5 4.013-3.87 1.193-7.812 1.208-11.486-.953"/><path fill="none" stroke="#000" stroke-linecap="round" stroke-linejoin="round" stroke-width="2" d="M183.5 657.5c1.373 5.333 1.407 10.602.108 16.026-.694 2.9.197 5.998.85 8.983.685 3.126 1.042 6.324 1.542 9.491M132.5 571.5c-.013 9.693.077 19.377 1.452 29.007.238 1.665.508 3.552-.952 4.993"/><path fill="none" stroke="#000" stroke-linecap="round" stroke-linejoin="round" stroke-width="6" d="M660.5 792.5c-10.474 1.497-20.38 5.697-30.999 6.52-.178.013-.348.302-.5.482-4.852 5.743-12.358 4.94-18.501 7.498"/><path fill="none" stroke="#000" stroke-linecap="round" stroke-linejoin="round" stroke-width="3" d="M625 746c-7.83-.958-14.87 2.98-22.464 3.825-3.217.359-6.036.257-9.157-.349.321-4.316 3.51-4.196 6.618-4.509 7.9-.796 15.892-1.308 23.003-5.467"/><path fill="none" stroke="#000" stroke-linecap="round" stroke-linejoin="round" stroke-width="5" d="M95.5 269.5c1.255 10.964 2.264 21.944 2 33"/><path fill="none" stroke="#000" stroke-linecap="round" stroke-linejoin="round" stroke-width="2" d="M626.5 800c-3.833-3.032-7.96-.392-11.439.305-7.21 1.447-14.276 3.826-21.561 5.195"/><path fill="none" stroke="#000" stroke-linecap="round" stroke-linejoin="round" stroke-width="7" d="M411 742c-6.81 4.128-14.437 4.031-22 4.246-3.666.105-7.334.141-11 .268-1.532.053-2.06 1.07-2.574 2.458-.666 1.798-1.212 3.79-2.93 5.023-7.283-1.215-14.331.98-21.495 1.516-1.173.088-2.661.868-3.446.398-4.182-2.503-8.274-1.422-12.572-.488-3.763.818-8.522-3.108-10.983-8.421"/><path fill="none" stroke="#000" stroke-linecap="round" stroke-linejoin="round" stroke-width="6" d="M593.5 747c-7.077-1.217-11.596-6.69-16.836-10.714-2.387-1.833-4.024-2.477-6.669-1.806-6.227 1.581-12.546 2.52-18.995 2.54-3.691.01-6.08 2.822-9 4.48"/><path fill="none" stroke="#000" stroke-linecap="round" stroke-linejoin="round" stroke-width="4" d="M830 765c-2.865 2.562-6.684 1.961-10.025 2.913-5.24 1.494-10.693 2.232-15.954 3.663-2.813.765-4.912-.027-7.021-1.576"/><path fill="none" stroke="#000" stroke-linecap="round" stroke-linejoin="round" stroke-width="5" d="M587 782.5c-8.645 5.076-18.358 6.444-28.006 7.963-3.3.52-3.667.158-4.994-2.463"/><path fill="none" stroke="#000" stroke-linecap="round" stroke-linejoin="round" stroke-width="2" d="M730.5 805.5c-3.692.83-7.357 1.378-10.611 3.854-1.68 1.278-4.08 1.629-6.965.99-3.513-.779-7.648.774-11.395 1.767-1.403.372-2.708.12-4.029.389"/><path fill="none" stroke="#000" stroke-linecap="round" stroke-linejoin="round" stroke-width="3" d="M1000 856c-1.479-.43-2.402-1.784-4.537-1.119-7.404 2.308-14.954 4.155-22.469 6.096-2.123.548-3.706 1.94-5.494 3.023"/><path fill="none" stroke="#000" stroke-linecap="round" stroke-linejoin="round" stroke-width="2" d="M302.5 798c-4.901 2.342-10.358 2.595-15.53 3.267-5.846.76-11.022 3.04-16.47 4.733"/><path fill="none" stroke="#000" stroke-linecap="round" stroke-linejoin="round" stroke-width="11" d="M146.75 206c-1.99 2.21-4.675 1.944-7.25 1.99-2.666.047-5.346.176-7.998-.023-6.243-.469-10.996 1.95-14.502 7.033"/><path fill="none" stroke="#000" stroke-linecap="round" stroke-linejoin="round" stroke-width="2" d="M569.5 245.5h-32"/><path fill="none" stroke="#000" stroke-linecap="round" stroke-linejoin="round" stroke-width="3" d="M481.5 982.5c-1.587-.73-3-1.606-5.014-1.052-10.193 2.804-20.357 6.029-30.991 6.392-3.457.118-4.633 1.87-5.995 4.16"/><path fill="none" stroke="#000" stroke-linecap="round" stroke-linejoin="round" stroke-width="4" d="M793.5 741c-1.978 2.4-4.916 1.893-7.496 2.518-7.947 1.925-16.204 2.357-24.004 4.982"/><path fill="none" stroke="#000" stroke-linecap="round" stroke-linejoin="round" stroke-width="3" d="M97 237.5c-2.37 3.05-.566 6.441-.316 9.485.536 6.524.043 13.017.268 19.517.023.654-.619 1.331-.952 1.998"/><path fill="none" stroke="#000" stroke-linecap="round" stroke-linejoin="round" stroke-width="5" d="M226.5 709c-3.25 3.584-8.081 2.376-12.03 3.924-3.863 1.515-7.957 2.456-11.975 3.558-2.225.61-4.43 1.143-5.495 3.518"/><path fill="none" stroke="#000" stroke-linecap="round" stroke-linejoin="round" stroke-width="3" d="M269.5 251c1.611 1.833 3.751 2.085 6 2 7.846-.302 15.78.82 23.511-1.463.415-.122.989.296 1.489.463M463.5 749.5c-3.16 1.656-6.68.918-9.998 1.512-6.966 1.246-14.137 1.04-21.002 2.988"/><path fill="none" stroke="#000" stroke-linecap="round" stroke-linejoin="round" stroke-width="2" d="M516.5 233a152.5 152.5 0 0 1-25.501 1.541c-1.82-.044-3.743-.558-5.499.459"/><path fill="none" stroke="#000" stroke-linecap="round" stroke-linejoin="round" stroke-width="5" d="M352.5 963.5c1.361-4.175.488-7.637-2.97-10.535-2.16-1.81-4.261-3.785-5.983-6.001-3.868-4.978-8.846-5.76-14.547-4.464"/><path fill="none" stroke="#000" stroke-linecap="round" stroke-linejoin="round" stroke-width="2" d="M785 623c-4.718-4.142-10.37-1.778-15.5-1.795-5.32-.017-10.528 2.35-16 2.295M722.5 352.5c-.406 10.072 2.627 19.914 2 30"/><path fill="none" stroke="#000" stroke-linecap="round" stroke-linejoin="round" stroke-width="8" d="M185.5 692c-6.12-1.874-12.364-1.369-18.482-.386-3.91.628-8.098 1.49-10.518 5.386M662 735c-3.884 3.936-9.406 2.738-14.029 4.422-4.32 1.573-9.041 1.665-13.512 2.934-2.347.667-4.955.704-7.137-2.223-2.19-2.938-5.672-5.039-8.876-7.047-2.065-1.294-2.76-3.083-3.446-5.086"/><path fill="none" stroke="#000" stroke-linecap="round" stroke-linejoin="round" stroke-width="5" d="M698.5 688c-1.653 4.065-4.676 5.85-8.945 7.178-9.196 2.864-19.012 1.47-28.075 4.767-1.525.555-3.462.896-4.952.46-4.361-1.277-7.265.798-10.028 3.595"/><path fill="none" stroke="#000" stroke-linecap="round" stroke-linejoin="round" stroke-width="2" d="m134.5 310.5 2 29"/><path fill="none" stroke="#000" stroke-linecap="round" stroke-linejoin="round" stroke-width="3" d="M509.5 762c-6.795 2.397-13.946 2.702-21.006 3.44-2.907.305-5.515 1.125-7.994 2.56"/><path fill="none" stroke="#000" stroke-linecap="round" stroke-linejoin="round" stroke-width="6" d="M303.5 760c-1.933 3.58-5.11 4.613-8.935 5.724-5.99 1.74-13.044-.413-18.065 4.776"/><path fill="none" stroke="#000" stroke-linecap="round" stroke-linejoin="round" stroke-width="3" d="M553.5 797.5c-9.469 3.153-18.863 6.616-29 7M194 242c-1.72 3.7-5.061 4.016-8.5 3.985-5.03-.045-10.024.238-15.006.974-1.532.226-2.958.271-3.494 2.041"/><path fill="none" stroke="#000" stroke-linecap="round" stroke-linejoin="round" stroke-width="5" d="M741.5 732.5c-.09 1.696-.12 3.468 1.513 4.478 5.545 3.431 10.37 8.071 16.533 10.4 1.814.686 2.413 1.97 3.458 3.119 6.136 6.75 13.92 11.11 22.025 14.94 1.29.61 2.971.396 4.471.563"/><path fill="none" stroke="#000" stroke-linecap="round" stroke-linejoin="round" stroke-width="6" d="M789.5 674c-3.67 3.988-9.02 2.97-13.54 4.371-4.781 1.482-9.86 2.129-14.96 1.629"/><path fill="none" stroke="#000" stroke-linecap="round" stroke-linejoin="round" stroke-width="5" d="M474.5 770c-2.476 2.572-5.503 2.864-8.987 3.158-10.461.881-20.908 2.223-31.013 5.342"/><path fill="none" stroke="#000" stroke-linecap="round" stroke-linejoin="round" stroke-width="2" d="M723.5 765.5c-4.245-.342-8.057 1.331-12.012 2.458-5.284 1.505-10.655 2.709-15.988 4.042M465.5 839.5c-9.646.82-19.184 2.104-28 6.5"/><path fill="none" stroke="#000" stroke-linecap="round" stroke-linejoin="round" stroke-width="4" d="M416 1024c9.333 3.84 18.667 4.4 28 0"/><path fill="none" stroke="#000" stroke-linecap="round" stroke-linejoin="round" stroke-width="3" d="M332.5 951.5c-.45 4.047.273 7.515 3.961 10.057 2.213 1.525 4.38 3.356 5.967 5.496 3.173 4.282 7.018 4.71 11.572 2.947"/><path fill="none" stroke="#000" stroke-linecap="round" stroke-linejoin="round" stroke-width="2" d="M609.5 641c-3.667-1.883-7.312-.502-11.005-.041-5.313.662-10.662 1.041-15.995 1.541M128.5 538.5c.033 7.18-.242 14.363.922 21.513.284 1.741.595 3.731-.422 5.487"/><path fill="none" stroke="#000" stroke-linecap="round" stroke-linejoin="round" stroke-width="4" d="M586.5 747c-3.833 3.738-9.082 1.963-13.518 3.447-4.498 1.505-9.738.785-13.482 4.553"/><path fill="none" stroke="#000" stroke-linecap="round" stroke-linejoin="round" stroke-width="2" d="M334.5 832.5c-9.196 1.352-18.187 3.556-27 6.5M234.5 669.5c-7.278.204-14.449 1.106-21.515 2.94-1.562.406-3.318.06-4.985.06M1140.5 824.5c-6.16-.095-11.68 2.66-17.462 4.148-3.312.853-6.128 1.132-9.038-.648M703.5 789.5c-8.781 1.708-17.754 2.651-26 6.5"/><path fill="none" stroke="#000" stroke-linecap="round" stroke-linejoin="round" stroke-width="3" d="M292.5 699c-2.44 2.853-6.054 1.352-9.058 2.32-4.271 1.376-8.941 1.518-13.442 2.177-1.464.215-2.563-.46-3.5-1.497"/><path fill="none" stroke="#000" stroke-linecap="round" stroke-linejoin="round" stroke-width="5" d="M447.5 737c-3.06 3.224-7.178 2.577-11 2.996-5.206.57-10.42 1.094-15 4.004"/><path fill="none" stroke="#000" stroke-linecap="round" stroke-linejoin="round" stroke-width="2" d="M507.5 796.5c-6.925.864-13.446 3.64-20.48 4.231-1.415.119-4.33.706-5.02 3.269M475.5 726.5c-8.902.721-17.66 2.124-26 5.5"/><path fill="none" stroke="#000" stroke-linecap="round" stroke-linejoin="round" stroke-width="5" d="M652.5 699.5c-1.996-5.634-9.603-13.33-17.03-11.098-5.297 1.591-11.22 1.023-15.97 4.598"/><path fill="none" stroke="#000" stroke-linecap="round" stroke-linejoin="round" stroke-width="2" d="M303.5 728.5c-6.833 1-13.75 1.646-20.447 3.226-1.893.447-3.73.383-5.553.774M374.5 765.5c-2.5.333-5.05.46-7.49 1.041-5.864 1.395-11.677-.087-17.51-.041M670.5 643c-4.5 1.218-8.858 1.28-13.546.199-3.603-.831-7.62.134-11.454.301M383.5 823c-4.948 2.87-10.707 2.873-15.982 4.555-2.652.846-6.243.52-7.018 4.445"/><path fill="none" stroke="#000" stroke-linecap="round" stroke-linejoin="round" stroke-width="6" d="M772.5 696c-4.262 3.342-8.925 4.946-14.507 4.61-4.984-.3-10.102-.728-15 1.122-2.24.846-4.774.318-6.414-.844-4.942-3.502-11.387-5.057-14.579-10.888"/><path fill="none" stroke="#000" stroke-linecap="round" stroke-linejoin="round" stroke-width="2" d="M580 784c-2.885-2.23-6.107-.667-8.982-.339-5.231.599-10.351 2.172-15.518 3.339M191.5 665.5c2.343 8.054 1.259 16.318 1.5 24.5"/><path fill="none" stroke="#000" stroke-linecap="round" stroke-linejoin="round" stroke-width="4" d="M703 250.5c3.372 4.438 3.848 10.04 4.17 15.021.369 5.691 3.41 10.19 4.572 15.425.417 1.879.367 3.731.758 5.554"/><path fill="none" stroke="#000" stroke-linecap="round" stroke-linejoin="round" stroke-width="6" d="M850.5 682c-3.9 3.482-9.064 2.023-13.521 3.433-6.653 2.104-13.611 1.553-20.479 1.56-2.383.003-4.626.39-6.5 2.007"/><path fill="none" stroke="#000" stroke-linecap="round" stroke-linejoin="round" stroke-width="5" d="M559.5 756c2.145 2.998 5.09 1.1 7.48.822 2.107-.244 4.196-.043 6.27-.322.376 3.53 4.318 3.9 5.755 6.497 1.295 2.342-.185 3.893-1.505 5.503"/><path fill="none" stroke="#000" stroke-linecap="round" stroke-linejoin="round" stroke-width="6" d="M140 682.5c-2.237 1.832-2.724 4.264-2.512 7 .46 5.95.018 12.126 4.512 17"/><path fill="none" stroke="#000" stroke-linecap="round" stroke-linejoin="round" stroke-width="3" d="M796 927.5c-.75 4.293-4.807 4.015-7.548 4.84-4.626 1.393-9.175 5.45-14.452 1.66"/><path fill="none" stroke="#000" stroke-linecap="round" stroke-linejoin="round" stroke-width="2" d="M596.5 240c-5.361 2.025-11.024.67-16.508 1.442-2.452.345-4.992.058-7.492.058M515.5 1018c-3.364 4.18-8.689 5.234-13.128 7.213-6.264 2.791-12.778 5.718-19.873 6.273-.706.055-1.046.3-.999 1.014"/><path fill="none" stroke="#000" stroke-linecap="round" stroke-linejoin="round" stroke-width="3" d="M351.5 222c-1.904 2.168-4.476 1.97-7 2.007-5.68.082-11.399-.449-17 .993M168.5 326.5c2.138 7.62-1.725 13.57-5.552 19.466-.741 1.143-1.318 2.209-1.448 3.534"/><path fill="none" stroke="#000" stroke-linecap="round" stroke-linejoin="round" stroke-width="2" d="M665.5 764.5c-7.874.966-15.579 2.64-23 5.5M790.5 942.5c-6.998.253-14.017-.517-21.008.445-.609.084-1.325-.612-1.992-.945"/><path fill="none" stroke="#000" stroke-linecap="round" stroke-linejoin="round" stroke-width="3" d="M799.5 745.5c5.333 2.833 10.396 6.621 16.076 8.232 5.705 1.618 10.094 4.894 14.968 7.69 3.626 2.08 7.366.258 10.956-.922"/><path fill="none" stroke="#000" stroke-linecap="round" stroke-linejoin="round" stroke-width="2" d="M651.5 717c-5.943-1.59-11.65.896-17.495 1.12-1.802.07-3.666.272-5.505.38M382.5 998c-1.26 2.884-.473 5.18 2 7 4.2 3.093 8.49 6.103 11.96 10.036 1.256 1.423 2.674.763 4.04.964"/><path fill="none" stroke="#000" stroke-linecap="round" stroke-linejoin="round" stroke-width="7" d="M493 728.5c-6.335 5.085-14.145 4.63-21.519 5.294-2.305.208-5.61.03-6.803.94-5.032 3.83-10.024 2.307-15.522 1.075-.446-3.296-3.768-5.377-4.656-8.809"/><path fill="none" stroke="#000" stroke-linecap="round" stroke-linejoin="round" stroke-width="6" d="M779.5 619c-7.273-5.451-14.94-2.01-22.5-1"/><path fill="none" stroke="#000" stroke-linecap="round" stroke-linejoin="round" stroke-width="2" d="M153.5 326.5c-3.5 4.265-1.21 9.14-.738 13.471.53 4.866.528 9.687.738 14.529M545.5 821.5c-6.497 1.017-12.782 3.202-19.5 3.188-1.245-.002-1.936-.907-3-.688"/><path fill="none" stroke="#000" stroke-linecap="round" stroke-linejoin="round" stroke-width="3" d="M479.5 200c-7.248 1.753-14.634 1.478-22 1.5"/><path fill="none" stroke="#000" stroke-linecap="round" stroke-linejoin="round" stroke-width="2" d="M300.5 811.5c-7.519 1.09-14.953 2.523-22 5.5"/><path fill="none" stroke="#000" stroke-linecap="round" stroke-linejoin="round" stroke-width="3" d="M745 653c6.62 6.536 14.01 4.806 21.5 2"/><path fill="none" stroke="#000" stroke-linecap="round" stroke-linejoin="round" stroke-width="2" d="M447.5 820.5c-7.858.962-15.315 3.1-22 7.5"/><path fill="none" stroke="#000" stroke-linecap="round" stroke-linejoin="round" stroke-width="3" d="M782 722c-3.562-2.52-6.252-6.87-11.493-5.958-3.538.615-7.047 1.49-10.492 2.51-2.012.596-3.79.808-5.515-.552"/><path fill="none" stroke="#000" stroke-linecap="round" stroke-linejoin="round" stroke-width="2" d="m500.5 826.5-21 5"/><path fill="none" stroke="#000" stroke-linecap="round" stroke-linejoin="round" stroke-width="6" d="M553.5 755c-2.135 2.91-5.723 3.028-8.501 3.045-6.625.041-12.172 3.638-18.47 4.633-2.105.332-5.167-.602-6.529 2.322M815 718c.775 3.478 3.447 4.552 6.48 5.563 4.546 1.515 8.989 3.399 11.52 7.937"/><path fill="none" stroke="#000" stroke-linecap="round" stroke-linejoin="round" stroke-width="3" d="M451.5 832.5c-5.088.112-9.542 2.757-14.45 3.75-2.322.47-4.628 1.163-7.05 1.25"/><path fill="none" stroke="#000" stroke-linecap="round" stroke-linejoin="round" stroke-width="5" d="M700.5 740c-6.538 3.654-13.412 5.622-21.01 4.572-1.263-.175-2.651.62-3.991.924-5.892 1.339-13.07-2.37-15.499-7.996M226 736.5c-5.109 2.193-10.737 1.944-16.043 3.338-2.195.577-3.58 2.698-5.703 2.586-3.675-.194-6.45-2.171-8.254-5.424"/><path fill="none" stroke="#000" stroke-linecap="round" stroke-linejoin="round" stroke-width="2" d="M154 483c4.19.694 2.292 4.367 2.835 6.541 1.13 4.53 1.148 9.292.165 13.959M778 573c-1.167 5.49 1.533 10.595 1.786 15.987.077 1.63.323 3.69.714 5.513M694.5 729c-7.202-1.457-14.095.332-21 2M122 313.5c-2.37 3.395-.716 7.163-.242 10.463.508 3.539.537 7.025.742 10.537M136 516.5c2.004 1.721.735 3.996.971 6.003.588 4.99 1.029 9.997 1.529 14.997M308.5 722.5l-21 4"/><path fill="none" stroke="#000" stroke-linecap="round" stroke-linejoin="round" stroke-width="3" d="M170.5 275c4.838-3.399-.06-4.55-1.244-6.996-5.627 3.67-8.449 9.298-12.756 13.496"/><path fill="none" stroke="#000" stroke-linecap="round" stroke-linejoin="round" stroke-width="2" d="M1105.5 841c-5.167 1.833-10.292 3.802-15.526 5.415-1.503.462-3.406.735-4.974-.415M852.5 692.5c-6.762 1.823-13.99 1.528-20.5 4.5"/><path fill="none" stroke="#000" stroke-linecap="round" stroke-linejoin="round" stroke-width="4" d="M874.5 696.5c-3.543-.114-7.002.31-10.513.93-13.302 2.342-26.652 4.412-39.988 6.561-2.324.375-4.666-1.337-6.999.009"/><path fill="none" stroke="#000" stroke-linecap="round" stroke-linejoin="round" stroke-width="2" d="M501.5 823.5c-7 1.167-14.002 2.32-20.994 3.535-.38.065-.673.632-1.006.965M866.5 691c-10.238 5.087-21.558 5.929-32.545 7.727-3.43.561-8.003-.114-11.016-3.675-1.833-2.165-4.56-3.199-7.439-3.552M515.5 219.5h-20"/><path fill="none" stroke="#000" stroke-linecap="round" stroke-linejoin="round" stroke-width="5" d="M258.5 778.5c-6.448 2.204-12.983 1.6-19.495.474-4.928-.853-7.861-4.293-9.946-8.503-.462-.933-.201-2.493.958-2.925 8.273-3.081 14.47-11.028 24.49-10.128 4.197.377 10.36 5.5 10.49 9.582.112 3.535-2.645 3.529-4.997 3.998-4.986.997-10.202.668-15.013 2.72-1.33.567-2.561 1.158-3.487 2.282"/><path fill="none" stroke="#000" stroke-linecap="round" stroke-linejoin="round" stroke-width="7" d="M534.5 776.5c5.133 5.408 11.064 9.785 17.525 13.456.306.174.975-.29 1.475-.456"/><path fill="none" stroke="#000" stroke-linecap="round" stroke-linejoin="round" stroke-width="8" d="M351 835.5c-.267 2.344 1.354 3.398 2.993 4.51 7.156 4.86 14.354 9.588 23.507 9.49 9.569 6.263 18.751 1.702 28-1"/><path fill="none" stroke="#000" stroke-linecap="round" stroke-linejoin="round" stroke-width="2" d="M489.5 695.5c-6.779-.457-13.243 2.24-20 2M427.5 785c-2.5-2.265-5.02-.193-7.496.045-4.182.402-8.337 2.177-12.504-.045M681 790c-6.187 3.032-12.644 4.316-19.5 3M408.5 708.5c-4.833.667-9.806.86-14.434 2.225-1.942.573-3.743.384-5.566.775M697 241.5c-1.442 4.284-1.72 8.65-.455 12.987.677 2.322.997 4.626.955 7.013"/><path fill="none" stroke="#000" stroke-linecap="round" stroke-linejoin="round" stroke-width="3" d="M281.5 793.5c-7.111.8-13.826 2.818-20 6.5"/><path fill="none" stroke="#000" stroke-linecap="round" stroke-linejoin="round" stroke-width="2" d="M495.5 627.5c-5.475-.073-10.635 1.853-15.981 2.63-1.347.195-2.698.102-4.019.37M676.5 688.5c-5.078.367-9.802 2.614-14.998 2.662-1.462.013-3.863.546-4.502 2.838M464.5 633.5c-4.833.667-9.806.86-14.434 2.225-1.942.573-3.743.384-5.566.775M800.5 703.5c-6.876-.84-13.306 1.886-20 2.5M308.5 257.5l-44 4"/><path fill="none" stroke="#000" stroke-linecap="round" stroke-linejoin="round" stroke-width="4" d="M773.5 598c4.803 3.04 4.732 8.331 5.994 13.002.537 1.99 1.006 3.998 1.506 5.998"/><path fill="none" stroke="#000" stroke-linecap="round" stroke-linejoin="round" stroke-width="3" d="M941 724c-4.63 3.346-10.3 3.761-15.498 5.507-1.349.453-2.669.993-4.002 1.493"/><path fill="none" stroke="#000" stroke-linecap="round" stroke-linejoin="round" stroke-width="2" d="M676.5 692.5c-2.082-.161-4.046.727-6.01.876-4.498.341-8.806 2.722-13.508 1.18-1.608-.527-3.112.555-4.482 1.444M499.5 768.5c-6.696.073-13.073 1.927-19.5 3.5"/><path fill="none" stroke="#000" stroke-linecap="round" stroke-linejoin="round" stroke-width="4" d="M160.5 256c1.991 1.493 4.026 2.904 6.522 3.657 2.031-3.15 6.1-2.716 8.504-5.109-2.338-4.298-12.07-5.717-15.967-2.965-2.665 1.882-5.305 2.245-7.491.34-5.917-5.16-12.099-2.618-18.021-.773-3.43 1.07-6.025 1.134-8.547-1.4M517.5 718.5c-7.76-.405-15.383.65-23.014 1.915-1.855.308-2.827 1.041-3.486 2.585"/><path fill="none" stroke="#000" stroke-linecap="round" stroke-linejoin="round" stroke-width="2" d="M499.5 830.5c-3.667.833-7.393 1.47-10.98 2.563-2.764.843-5.353.742-8.02-.063M683.5 724.5l-19 3.5M983.5 843.5c-5.333 1.5-10.706 2.879-15.967 4.6-1.08.353-2.046.155-3.033.4"/><path fill="none" stroke="#000" stroke-linecap="round" stroke-linejoin="round" stroke-width="6" d="M713 235c4.115 3.368 4.19 8.461 5.454 13.013.63 2.27 1.752 4.053 3.546 5.487"/><path fill="none" stroke="#000" stroke-linecap="round" stroke-linejoin="round" stroke-width="4" d="M860 757c-4.647 5.351-10.714 5.4-16.99 4.434-.546-.084-1.518-.89-.76-1.934"/><path fill="none" stroke="#000" stroke-linecap="round" stroke-linejoin="round" stroke-width="6" d="M762.5 639c1.142 4.34.462 9.067 3.41 13.066 1.576 2.137 3.268 2.675 5.59 2.434"/><path fill="none" stroke="#000" stroke-linecap="round" stroke-linejoin="round" stroke-width="2" d="m742.5 430.5 2 19"/><path fill="none" stroke="#000" stroke-linecap="round" stroke-linejoin="round" stroke-width="7" d="M386.5 841c3.305 1.862 6.67 2.4 10.526 1.63 2.699-.538 5.64-1.462 8.808.304L406 846.5"/><path fill="none" stroke="#000" stroke-linecap="round" stroke-linejoin="round" stroke-width="2" d="M431.5 733.5c-6.477.223-12.214 3.489-18.5 4.5"/><path fill="none" stroke="#000" stroke-linecap="round" stroke-linejoin="round" stroke-width="5" d="M885.5 749c-6.464.566-13.16.275-18.5 5"/><path fill="none" stroke="#000" stroke-linecap="round" stroke-linejoin="round" stroke-width="2" d="M411.5 833.5c-6.003 2.184-12.087 3.268-18.515 2.083-1.743-.322-3.917.585-4.903 1.975-3.793 5.354-8.19 4.9-13.082 1.942"/><path fill="none" stroke="#000" stroke-linecap="round" stroke-linejoin="round" stroke-width="4" d="M1122.5 837.5c-4.437-1.75-8.52.694-12.415 1.799-2.948.836-3.625-.61-5.085-1.799"/><path fill="none" stroke="#000" stroke-linecap="round" stroke-linejoin="round" stroke-width="3" d="M241.5 245c-6.109-1.622-12.142-1.898-18 1"/><path fill="none" stroke="#000" stroke-linecap="round" stroke-linejoin="round" stroke-width="2" d="m534.5 960.5-18 4M508.5 967.5l-18 4M554.5 271.5l-18 2M528.5 715.5c-6.109-.802-12.069.178-18 1.5M578.5 795.5c-6.184-.101-11.768 3.393-18 3"/><path fill="none" stroke="#000" stroke-linecap="round" stroke-linejoin="round" stroke-width="8" d="M339.5 847.5c-4.42 2.215-9.41.192-14.12 2.222-2.829 1.22-3.788 2.584-4.38 5.028"/><path fill="none" stroke="#000" stroke-linecap="round" stroke-linejoin="round" stroke-width="4" d="M794.5 675.5c.728 5.606 5.921 6.768 9.53 9.46 1.657 1.236 3.637 2.04 5.47 3.04"/><path fill="none" stroke="#000" stroke-linecap="round" stroke-linejoin="round" stroke-width="2" d="M283.5 757.5c-4.667.333-9.333.674-14 .996-1.602.11-2.205.973-2 2.504M284.5 761.5c-5.316 2.036-11.024 2.221-16.5 3.5M294.5 205.5c-3.833.167-7.665.407-11.5.468-1.864.03-3.887.58-5.5-.968M443.5 702.5c-5.799-.458-11.232 2.193-17 2M684.5 974.5l-17 4M675.5 721.5c-5.6.445-11.146 1.198-16.5 3"/><path fill="none" stroke="#000" stroke-linecap="round" stroke-linejoin="round" stroke-width="3" d="M337 771c5.676-3.083 11.676-.447 17.506-.929 1.628-.134 3.327.596 4.994.929"/><path fill="none" stroke="#000" stroke-linecap="round" stroke-linejoin="round" stroke-width="10" d="M585 816.5c-9.95 3.207-20.254 2.807-30.5 3"/><path fill="none" stroke="#000" stroke-linecap="round" stroke-linejoin="round" stroke-width="2" d="M480.5 813c-5.926.398-10.643 2.644-13 8.5"/><path fill="none" stroke="#000" stroke-linecap="round" stroke-linejoin="round" stroke-width="5" d="M683 698c.368 2.358 1.908 3.597 3.987 4.528 3.773 1.69 7.237 3.843 9.635 7.563L694 714.5"/><path fill="none" stroke="#000" stroke-linecap="round" stroke-linejoin="round" stroke-width="6" d="M620.5 723.5c-2.757-6.612-9.488-8.77-14.64-12.56-2.233-1.645-5.864.252-8.864.514-5.855.51-11.41 2.838-17.518 2.285-2.03-.183-4.311 2.428-6.478 3.761"/><path fill="none" stroke="#000" stroke-linecap="round" stroke-linejoin="round" stroke-width="2" d="M299.5 814.5c-4.167 1-8.313 2.102-12.514 2.929-1.059.208-2.449.645-3.486-.429M305.5 770.5c-5.399-.199-10.692.726-16 1.5M739.5 764.5c-5.53-.046-10.591 2.403-16 3M691 249c-6-.167-12.003-.265-17.999-.531-2.669-.119-5.159.241-7.501 1.531"/><path fill="none" stroke="#000" stroke-linecap="round" stroke-linejoin="round" stroke-width="7" d="M375.5 791c.646 4.143 3.272 6.43 6.966 8.075 2.224.99 4.8 1.455 6.534 3.425"/><path fill="none" stroke="#000" stroke-linecap="round" stroke-linejoin="round" stroke-width="3" d="M166 260c-3.833 4.333-7.347 9.02-11.612 12.876-2.867 2.592-4.987 6.466-9.388 7.124"/><path fill="none" stroke="#000" stroke-linecap="round" stroke-linejoin="round" stroke-width="2" d="M341.5 811.5c-5.14-.01-10.313-.21-15 2.5"/><path fill="none" stroke="#000" stroke-linecap="round" stroke-linejoin="round" stroke-width="3" d="M207.5 259.5c-2.833 3.667-5.466 7.517-8.576 10.93-1.831 2.01-4.392 3.4-7.424 3.07"/><path fill="none" stroke="#000" stroke-linecap="round" stroke-linejoin="round" stroke-width="2" d="M349.5 849.5c-5.162.714-10.63.542-14.5 5M1134.5 830.5c-4.847 1.797-10.403 1.726-14.5 5.5M491.5 818.5c-3.405.02-6.846-.31-10.01 1.484-1.72.976-3.425.782-4.993-.48-1.618-1.304-2.493.094-3.497.996M497.5 820.5c-5.196.326-10.355.814-15 3.5"/><path fill="none" stroke="#000" stroke-linecap="round" stroke-linejoin="round" stroke-width="5" d="M457.5 216.5c-4.874 1.587-10.513-1.41-15 2.5"/><path fill="none" stroke="#000" stroke-linecap="round" stroke-linejoin="round" stroke-width="2" d="M735 652c-3.511 4.467-8.796 3.612-13.5 4.5"/><path fill="none" stroke="#000" stroke-linecap="round" stroke-linejoin="round" stroke-width="3" d="M231.5 257c-.972 3.259-2.665 5.941-5.455 8.06-1.865 1.415-3.851 2.947-4.545 5.44"/><path fill="none" stroke="#000" stroke-linecap="round" stroke-linejoin="round" stroke-width="5" d="M499.5 805c.47 5.236 5.406 9.314 11.5 9.5"/><path fill="none" stroke="#000" stroke-linecap="round" stroke-linejoin="round" stroke-width="17" d="M131 253c4.65 8.58 4.912 18.205 6.425 27.512.379 2.332.061 4.988-1.478 6.946-1.98 2.52-2.02 5.174-1.447 8.042"/><path fill="none" stroke="#000" stroke-linecap="round" stroke-linejoin="round" stroke-width="6" d="M466.5 791.5c.264 3.128 1.81 5.27 4.44 7.087 2.307 1.593 4.602 3.506 5.56 6.413"/><path fill="none" stroke="#000" stroke-linecap="round" stroke-linejoin="round" stroke-width="2" d="M262.5 249.5c-.293 2.87.548 5.74-1.41 8.562-3.03 4.365-6.25 5.926-12.59 4.938"/><path fill="none" stroke="#000" stroke-linecap="round" stroke-linejoin="round" stroke-width="3" d="m559.5 708.5-18 3.5"/><path fill="none" stroke="#000" stroke-linecap="round" stroke-linejoin="round" stroke-width="2" d="M349.5 783.5c-4.716.041-9.473-.299-14 1.5M306.5 778.5c-4.697-.67-9.25 2.652-14 .5"/><path fill="none" stroke="#000" stroke-linecap="round" stroke-linejoin="round" stroke-width="3" d="M737.5 717.5c-4.852.427-9.676.964-14 3.5"/><path fill="none" stroke="#000" stroke-linecap="round" stroke-linejoin="round" stroke-width="2" d="M143.5 304c-4.773 1.23-7.732 5.213-5.795 8.892.913 1.735.354 3.132.795 4.608"/><path fill="none" stroke="#000" stroke-linecap="round" stroke-linejoin="round" stroke-width="6" d="M886.5 740c.742 3.328 1.295 6.695 6.002 6.555 2.406-.072 2.6 2.377 3.498 3.945"/><path fill="none" stroke="#000" stroke-linecap="round" stroke-linejoin="round" stroke-width="3" d="M219.5 246c-1.562-1.493-3.644-2.053-5.466-1.406-3.05 1.084-5.715-.177-8.534-.594M792 667c4.358 1.779 9.038.661 13.5 1.5"/><path fill="none" stroke="#000" stroke-linecap="round" stroke-linejoin="round" stroke-width="2" d="m168.5 277.5-11 13M415.5 846.5h-10.1l.026 1.37c2.22 1.904 4.653 2.108 7.6 1.216 2.031-.615 4.307-.42 6.474-.586"/><path fill="none" stroke="#000" stroke-linecap="round" stroke-linejoin="round" stroke-width="5" d="M412 823c2.647 4.875 5.722 9.21 12 9.5"/><path fill="none" stroke="#000" stroke-linecap="round" stroke-linejoin="round" stroke-width="2" d="M221.5 247.5c.355 1.651-1.197 2.693-1.952 2.384-3.809-1.56-7.706-.648-11.545-.925-.521-.037-1.003-.626-1.503-.959"/><path fill="none" stroke="#000" stroke-linecap="round" stroke-linejoin="round" stroke-width="5" d="M432.5 760c-2.597 2.805-6.332 2.054-9.53 2.883-1.618.42-2.892.939-3.97 2.117"/><path fill="none" stroke="#000" stroke-linecap="round" stroke-linejoin="round" stroke-width="2" d="M757.5 548.5c.733 5.349.319 10.877 2.5 16"/><path fill="none" stroke="#000" stroke-linecap="round" stroke-linejoin="round" stroke-width="4" d="M876.5 739c-3.384 3.674-8.272 3.778-12.528 4.24-3.8.414-7.542 1.856-11.482 1.34-.592-.077-1.323.92-1.99 1.42"/><path fill="none" stroke="#000" stroke-linecap="round" stroke-linejoin="round" stroke-width="5" d="M372.5 773.5c.985 1.81 2.082 3.472 3.988 4.522 2.91 1.602 4.96 4.075 6.512 6.978"/><path fill="none" stroke="#000" stroke-linecap="round" stroke-linejoin="round" stroke-width="4" d="m701 213.5-3 13"/><path fill="none" stroke="#000" stroke-linecap="round" stroke-linejoin="round" stroke-width="6" d="M765.5 701c1.619 3.398 5.26 4.764 8.097 5.708 3.867 1.287 4.45 3.88 5.403 6.792"/><path fill="none" stroke="#000" stroke-linecap="round" stroke-linejoin="round" stroke-width="3" d="M155.5 307.5c-1.895 3.545 1.414 6.25 1.529 9.499.304 8.61 1.97 17.045 3.415 25.51.217 1.274 1.125 1.956 1.556 2.991"/><path fill="none" stroke="#000" stroke-linecap="round" stroke-linejoin="round" stroke-width="2" d="M555.5 776.5c-4.507-.068-8.807.936-13 2.5M783.5 608.5c.886 4.306.362 8.666.5 13"/><path fill="none" stroke="#000" stroke-linecap="round" stroke-linejoin="round" stroke-width="3" d="M730.5 594c-3.833-1.462-7.646-2.445-11.507-.011-2.58 1.626-5.513 2.176-8.493 2.511"/><path fill="none" stroke="#000" stroke-linecap="round" stroke-linejoin="round" stroke-width="4" d="M592 751c-4.422 2.823-9.732 2.416-14.522 3.93-1.012.321-2.117.32-2.978 1.07"/><path fill="none" stroke="#000" stroke-linecap="round" stroke-linejoin="round" stroke-width="5" d="M569 702c.565 2.598 2.26 4.347 4.516 5.467 2.612 1.296 4.268 3.241 4.984 6.033"/><path fill="none" stroke="#000" stroke-linecap="round" stroke-linejoin="round" stroke-width="2" d="M351.5 858.5c-4.497-.397-8.632 1.561-13 2"/><path fill="none" stroke="#000" stroke-linecap="round" stroke-linejoin="round" stroke-width="3" d="M901.5 728.5c-5 1.003-10.126 1.27-15.032 2.905-1.423.475-2.47 1.132-3.468 2.095"/><path fill="none" stroke="#000" stroke-linecap="round" stroke-linejoin="round" stroke-width="2" d="M686.5 757.5c-4.243.041-8.543-.33-12.5 1.75M193 276c-2.333 2.667-5.047 5.096-6.895 8.065-1.93 3.1-4.42 3.737-7.605 3.435M515.5 830.5c-3.553 1.555-8.754-.35-10.5 5M595.5 711c.19-3.536-2.363-3.043-4.5-2.98-2.835.084-5.667.313-8.5.48"/><path fill="none" stroke="#000" stroke-linecap="round" stroke-linejoin="round" stroke-width="5" d="M901.5 720.5c.588 2.814 2.863 4.36 5.058 5.376 2.361 1.093 4.095 2.53 5.442 4.624M154 253.5c1.044 11.577-3.873 15.901-17.5 14"/><path fill="none" stroke="#000" stroke-linecap="round" stroke-linejoin="round" stroke-width="10" d="M456.5 817c4.511 4.551 11.115 5.163 16.319 9.076 5.587 4.2 7.21 9.307 9.181 14.924"/><path fill="none" stroke="#000" stroke-linecap="round" stroke-linejoin="round" stroke-width="8" d="M424.5 828.5c.307 1.838-1.6 4.051.996 5.506 5.764 3.231 5.81 10.816 10.984 14.522.158.113.02.639.02.972"/><path fill="none" stroke="#000" stroke-linecap="round" stroke-linejoin="round" stroke-width="3" d="M253 234.5c1.085 4.198-2.037 7.87-1.5 12"/><path fill="none" stroke="#000" stroke-linecap="round" stroke-linejoin="round" stroke-width="2" d="M591.5 702.5c-4.023.058-7.834 2.66-12 1"/><path fill="none" stroke="#000" stroke-linecap="round" stroke-linejoin="round" stroke-width="3" d="m396.5 791.5 12 2"/><path fill="none" stroke="#000" stroke-linecap="round" stroke-linejoin="round" stroke-width="2" d="M772.5 763.5c-1.966 1.368-4.423 1.65-6.481 1.364-4.195-.584-8.349-.287-12.519-.364"/><path fill="none" stroke="#000" stroke-linecap="round" stroke-linejoin="round" stroke-width="5" d="M618 705.5c-1.666 2.096-3.696 3.519-6.5 3.5-1.674-.012-2.914.84-4 2"/><path fill="none" stroke="#000" stroke-linecap="round" stroke-linejoin="round" stroke-width="2" d="M904.5 740.5c-2.407-.18-4.678.646-7.01.915-2.541.293-5.309.679-7.49-1.415"/><path fill="none" stroke="#000" stroke-linecap="round" stroke-linejoin="round" stroke-width="5" d="M469 773.5c1.543 4.914 6.154 7.655 8.5 12M294.5 773.5c-2.167-.168-4.25.694-6.562-.365-1.828-.838-3.976.178-5.438 1.865"/><path fill="none" stroke="#000" stroke-linecap="round" stroke-linejoin="round" stroke-width="2" d="M864.5 744c-.526 2.76-2.85 3.261-4.998 4.006-1.843.639-3.669 1.327-5.502 1.994"/><path fill="none" stroke="#000" stroke-linecap="round" stroke-linejoin="round" stroke-width="5" d="M515.5 744c-2.307 2.491-5.557 2.514-8.515 2.88-1.722.213-2.441 1.239-3.485 2.12"/><path fill="none" stroke="#000" stroke-linecap="round" stroke-linejoin="round" stroke-width="2" d="m789.5 708.5-11.5.5"/><path fill="none" stroke="#000" stroke-linecap="round" stroke-linejoin="round" stroke-width="3" d="M443.5 827.5c-4.044-.136-8.083-.25-11.5 2.5"/><path fill="none" stroke="#000" stroke-linecap="round" stroke-linejoin="round" stroke-width="4" d="M321.5 782c1.618 4.787 5.504 6.55 10 7.5"/><path fill="none" stroke="#000" stroke-linecap="round" stroke-linejoin="round" stroke-width="3" d="M731 599c-7.311 4.228-15.322 4.798-23.5 4.5"/><path fill="none" stroke="#000" stroke-linecap="round" stroke-linejoin="round" stroke-width="2" d="M646.5 749.5c-4.616.115-8.783 1.902-13 3.5"/><path fill="none" stroke="#000" stroke-linecap="round" stroke-linejoin="round" stroke-width="3" d="M392.5 798.5c3.667 1.083 7.333.25 11 0M214.5 254c-2.103-.993-4.183-1.213-6.525-.593-1.367.362-3.148 1.318-4.475-.407"/><path fill="none" stroke="#000" stroke-linecap="round" stroke-linejoin="round" stroke-width="5" d="M752 670c1.167 1.333 2.141 3.519 3.538 3.833 3.583.808 3.751 3.787 4.962 6.167"/><path fill="none" stroke="#000" stroke-linecap="round" stroke-linejoin="round" stroke-width="2" d="M338 755.5c-.061 5.933-.061 5.933-6.5 6M631.5 698.5c-4.17-.418-7.794.886-11 3.5M260 774l-11 4M710.5 682.5c-3.7-.008-7.41-.058-10.5 2.5"/><path fill="none" stroke="#000" stroke-linecap="round" stroke-linejoin="round" stroke-width="3" d="M813.5 763.5c-3.49.574-6.704 2.424-10.53 1.648-1.31-.266-2.996 1.133-4.466 1.86-6.909 3.42-7.657 3.056-10-5.009-.192-.66-.337-1.332-.504-1.999"/><path fill="none" stroke="#000" stroke-linecap="round" stroke-linejoin="round" stroke-width="7" d="M395 1006.5c0 .167-.019.336.003.5.62 4.688 8.04 12.02 12.495 12.521 4.594.517 7.627-1.457 9.502-5.521"/><path fill="none" stroke="#000" stroke-linecap="round" stroke-linejoin="round" stroke-width="2" d="M237.5 251.5c-.416 4.35-4.102 5.152-6.968 4.764-3.034-.411-5.401.566-8.04 1.204-.792.19-1.705.053-1.981 1.035-1.91 6.795-8.034 10.312-12.013 15.495-.65.847-1.331 1.669-1.998 2.502"/><path fill="none" stroke="#000" stroke-linecap="round" stroke-linejoin="round" stroke-width="5" d="M434 795c-2.708 3.345-7.792 2.155-10.5 5.5"/><path fill="none" stroke="#000" stroke-linecap="round" stroke-linejoin="round" stroke-width="7" d="M372 754.5c.845 1.892 2.025 3.507 3.463 5.035 2.874 3.053 6.064 4.527 10 2.396 1.097-.594 2.05-.186 3.037-.431"/><path fill="none" stroke="#000" stroke-linecap="round" stroke-linejoin="round" stroke-width="2" d="M808.5 734.5c-3.576.514-7.192.86-10.5 2.5"/><path fill="none" stroke="#000" stroke-linecap="round" stroke-linejoin="round" stroke-width="3" d="M278.5 760.5c-3.333.333-6.667.906-10 .901-1.733-.002-2.908.457-4 1.599"/><path fill="none" stroke="#000" stroke-linecap="round" stroke-linejoin="round" stroke-width="2" d="M392.5 776.5c-3.633-.033-7.16.495-10.5 2M960.5 850.5c-3.134 1.032-6.928.58-9 4M210.5 265.5l-7 9"/><path fill="none" stroke="#000" stroke-linecap="round" stroke-linejoin="round" stroke-width="5" d="M722.5 675.5c-.175 4.899 4.63 5.697 7 8.5"/><path fill="none" stroke="#000" stroke-linecap="round" stroke-linejoin="round" stroke-width="2" d="M797.5 664.5c-3.259.996-6.882-.436-10 1.5M134 296.5c-2.043 3.24.279 6.697-.5 10M731 244.5c-2.438 3.22.286 6.698-.5 10M346.5 854.5c-5.36.914-8.512 4.944-12 8.5M676.5 253.5h5.257c.734 3.268 2.117 6.458 1.743 10"/><path fill="none" stroke="#000" stroke-linecap="round" stroke-linejoin="round" stroke-width="3" d="m533.5 820.5-9.5.5"/><path fill="none" stroke="#000" stroke-linecap="round" stroke-linejoin="round" stroke-width="4" d="M808.5 690c-.924 1.59-2.46 1.39-3.993 1.56-1.739.195-3.616.511-4.507 2.44"/><path fill="none" stroke="#000" stroke-linecap="round" stroke-linejoin="round" stroke-width="2" d="M531.5 817.5c-3.612.277-7.456.088-9 4.5M421 745.5h9.5M306.5 219.5c-2.983.6-6.405-1.43-9 1.5"/><path fill="none" stroke="#000" stroke-linecap="round" stroke-linejoin="round" stroke-width="5" d="m676.5 217.5-2 9.5"/><path fill="none" stroke="#000" stroke-linecap="round" stroke-linejoin="round" stroke-width="2" d="M472 845c-.675 4.542-4.476 3.874-7.5 4.5"/><path fill="none" stroke="#000" stroke-linecap="round" stroke-linejoin="round" stroke-width="3" d="M617.5 224c-2.903 1.92-6.65-.17-9.5 2"/><path fill="none" stroke="#000" stroke-linecap="round" stroke-linejoin="round" stroke-width="2" d="M390.5 757.5c-3.31.008-6.714-.209-8.5 3.5M452.5 787.5c-3.256.495-6.495 1.053-9.5 2.5M773.5 674.5c-3.12-.218-6.158.055-9 1.5M624.5 711.5c-2.79 1.592-6.026 1.571-9 2.5M351.5 221c-2.945-1.154-6.009-.176-9-.5M362.5 838.5c1.693 3.196 6.243 4.206 6.5 8.5"/><path fill="none" stroke="#000" stroke-linecap="round" stroke-linejoin="round" stroke-width="3" d="M188.5 259c4.364 3.833 8.936-.466 13.536.279 4.146.672 8.487-.988 12.464-2.779"/><path fill="none" stroke="#000" stroke-linecap="round" stroke-linejoin="round" stroke-width="2" d="M607.5 758c-2.957-.937-6.002-.293-9-.5"/><path fill="none" stroke="#000" stroke-linecap="round" stroke-linejoin="round" stroke-width="4" d="M724.5 223c-3.052 3.023-7.712 1.625-11 4"/><path fill="none" stroke="#000" stroke-linecap="round" stroke-linejoin="round" stroke-width="2" d="M910.5 742.5c-3.048.213-6.093.44-9 1.5"/><path fill="none" stroke="#000" stroke-linecap="round" stroke-linejoin="round" stroke-width="3" d="M650.5 712c-2.746 2.027-6.13.219-9 1.5"/><path fill="none" stroke="#000" stroke-linecap="round" stroke-linejoin="round" stroke-width="2" d="M730.5 749.5c-3.064.604-6.272.688-9 2.5M908 900c-2.306 2.447-5.588 2.524-8.5 3.5M438.5 750.5c-2.991.324-6.055-.654-9 .5M90 269.5c1.154 2.945.176 6.009.5 9M154.5 312c-3.315 1.4-4.543 4.193-5 7.5"/><path fill="none" stroke="#000" stroke-linecap="round" stroke-linejoin="round" stroke-width="4" d="M330.5 756c-1.902 3.26-6.444 1.532-8.5 4.5"/><path fill="none" stroke="#000" stroke-linecap="round" stroke-linejoin="round" stroke-width="3" d="M545.5 712c1.949 4.328 5.452.37 8 1.5"/><path fill="none" stroke="#000" stroke-linecap="round" stroke-linejoin="round" stroke-width="2" d="M345 751c2.7-2.444 5.716.504 8.5-.5M162 350.5c1.063 2.61.225 5.34.5 8M740 348.5c.885 2.595 1.746 5.193 1.5 8M640.5 748.5c-2.654.046-5.599-.408-6 3.5"/><path fill="none" stroke="#000" stroke-linecap="round" stroke-linejoin="round" stroke-width="3" d="M248 765.5c-2.778 1.62-5.45 1.548-8-.5"/><path fill="none" stroke="#000" stroke-linecap="round" stroke-linejoin="round" stroke-width="2" d="M805.5 752.5c-2.755.552-5.545.988-8 2.5M468 737c2.01 2.953 5.023.885 7.5 1.5M171.5 302.5c-3.517 4.192-4.966 9.975-10 13"/><path fill="none" stroke="#000" stroke-linecap="round" stroke-linejoin="round" stroke-width="4" d="m731.5 943.5-2 8"/><path fill="none" stroke="#000" stroke-linecap="round" stroke-linejoin="round" stroke-width="2" d="M517.5 721.5c-2.769-.044-5.403.626-8 1.5M718.5 683.5c-3.082-.08-5.554 1.147-7.5 3.5M793.25 757c3.714-.989 7.505-.217 11.25-.5"/><path fill="none" stroke="#000" stroke-linecap="round" stroke-linejoin="round" stroke-width="4" d="M417.5 986.5c2.869 1.514 5.874 1.155 9 1.147 4.818-.012 9.786-1.206 14.5.853"/><path fill="none" stroke="#000" stroke-linecap="round" stroke-linejoin="round" stroke-width="2" d="M240 255c2.849 3.916-1.306 5.886-2.636 8.429-1.39 2.653-3.864 4.738-5.864 7.071"/><path fill="none" stroke="#000" stroke-linecap="round" stroke-linejoin="round" stroke-width="3" d="M482 814c2.517 2.29 5.827.091 8.5 1.5"/><path fill="none" stroke="#000" stroke-linecap="round" stroke-linejoin="round" stroke-width="2" d="M747.5 695.5q-4.187-.06-7.5 2.5M823.5 698l-7.5 3.5"/><path fill="none" stroke="#000" stroke-linecap="round" stroke-linejoin="round" stroke-width="3" d="M519.5 816.5c-2.333.934-4.667.514-7 0"/><path fill="none" stroke="#000" stroke-linecap="round" stroke-linejoin="round" stroke-width="2" d="M524.5 756.5c-2.436.022-4.962-.379-7 1.5"/><path fill="none" stroke="#000" stroke-linecap="round" stroke-linejoin="round" stroke-width="3" d="M850.5 756c-2.022 1.726-4.68 1.97-7 3"/><path fill="none" stroke="#000" stroke-linecap="round" stroke-linejoin="round" stroke-width="2" d="M294.5 819.5c-2.521-.377-4.705.821-7 1.5M150.5 287c-2.549 1.265-2.134 5-5 6"/><path fill="none" stroke="#000" stroke-linecap="round" stroke-linejoin="round" stroke-width="3" d="M628 635c-1.556 1.623-4.753 1.422-5 4.5"/><path fill="none" stroke="#000" stroke-linecap="round" stroke-linejoin="round" stroke-width="2" d="M517.5 636c-2.266-1.107-4.675-.216-7-.5M276 261c-.11 3.13-3.63 3.898-4.5 6.5M770.5 771.5c-2.404-.82-4.538 2.141-7 .5M136 297.5l2 7"/><path fill="none" stroke="#000" stroke-linecap="round" stroke-linejoin="round" stroke-width="3" d="M959.5 736.5c-2.69-1.16-4.78.47-7 1.5M199 252l-1.5 7"/><path fill="none" stroke="#000" stroke-linecap="round" stroke-linejoin="round" stroke-width="2" d="M791.5 758c-3.516 3.487-6.648-.709-10-.5M254.5 253c-3.372 1.403-4.715 4.736-5.78 7.583-.907 2.428-2.72 3.065-4.22 4.417M193 261.5c-1.117 2.657-3.207 4.421-5.5 6M464 722c2.068 1.452 4.35.122 6.5.5M807.5 762.5c-1.834.5-4.893-1.453-5 2.5"/><path fill="none" stroke="#000" stroke-linecap="round" stroke-linejoin="round" stroke-width="4" d="M226.5 735.5c.588 2.821 1.633 5.47 3 8"/><path fill="none" stroke="#000" stroke-linecap="round" stroke-linejoin="round" stroke-width="3" d="M746.5 707.5c-1.805 1.302-4.556.331-6 2.5"/><path fill="none" stroke="#000" stroke-linecap="round" stroke-linejoin="round" stroke-width="2" d="M833.5 707.5c-1.824.536-4.295-1.303-5.5 1.5M852.5 702c-2.003.488-3.789 1.845-6 1.5M925.5 741c-1.584 1.831-3.922 1.853-6 2.5M346.5 745.5c-1.98-.403-4.103.897-6-.5M412.5 843.5l-6 .5M834.5 754.5c-2.176-.203-4.121.515-6 1.5M827.5 673.5c-2.194.277-4.063-.747-6-1.5"/><path fill="none" stroke="#000" stroke-linecap="round" stroke-linejoin="round" stroke-width="3" d="M706 604.5c-1.842 1.579-2.763 3.619-3 6"/><path fill="none" stroke="#000" stroke-linecap="round" stroke-linejoin="round" stroke-width="2" d="M891 718c-1.205-2.803-3.676-.964-5.5-1.5M659.5 705.5c-1.76 1.41-4.39.732-6 2.5M447.5 211.5c-1.994-.234-4.074.55-6-.5"/><path fill="none" stroke="#000" stroke-linecap="round" stroke-linejoin="round" stroke-width="3" d="m150 267.5 2.5 6M760.5 715.5c-1.989.545-4.22.12-6 1.5M153.5 263c1.536 2.059 4.472-.081 6 2"/><path fill="none" stroke="#000" stroke-linecap="round" stroke-linejoin="round" stroke-width="2" d="M601.5 706.5c-2.211-.345-3.997 1.012-6 1.5"/><path fill="none" stroke="#000" stroke-linecap="round" stroke-linejoin="round" stroke-width="3" d="m482 815.5-5.5 3.5"/><path fill="none" stroke="#000" stroke-linecap="round" stroke-linejoin="round" stroke-width="2" d="M819 672c-.392 1.941-.677 3.99-3.5 3.5M917 726c.682 1.77 1.264 3.558 1 5.5"/><path fill="none" stroke="#000" stroke-linecap="round" stroke-linejoin="round" stroke-width="3" d="M339 760c1.747 1.12 3.603 1.036 5.5.5"/><path fill="none" stroke="#000" stroke-linecap="round" stroke-linejoin="round" stroke-width="2" d="M687.5 254c-1.763-.946-3.656-.447-5.5-.5M681 240c-1.09 1.75-1.476 3.563-.5 5.5M215.5 280c1.577 1.059 3.344.23 5 .5M807.5 704c-1.341 1.584-3.172 1.539-5 1.5"/><path fill="none" stroke="#000" stroke-linecap="round" stroke-linejoin="round" stroke-width="3" d="M181 260c-3.853 2.1-7.766 3.47-12 1"/><path fill="none" stroke="#000" stroke-linecap="round" stroke-linejoin="round" stroke-width="2" d="M128 475.5c-1.059 1.577-.23 3.344-.5 5M412.5 840.5c-1.676.07-3.432-.653-5 .5"/><path fill="none" stroke="#000" stroke-linecap="round" stroke-linejoin="round" stroke-width="3" d="m155.5 293-6.5 6.5"/><path fill="none" stroke="#000" stroke-linecap="round" stroke-linejoin="round" stroke-width="2" d="M169.5 291.5c-1.244 2.217-3.262 3.728-4.962 5.536-1.111 1.182-2.271 2.616-1.038 4.464M500.5 639c-1.427-1.298-3.135-1.662-5-1.5M939.5 736.5c-1.925-.362-3.404.764-5 1.5M693 247.5c-2.914 2.833-1.648 6.015.161 8.376 1.19 1.553-.222 2.514.339 3.624"/><path fill="none" stroke="#000" stroke-linecap="round" stroke-linejoin="round" stroke-width="6" d="M395 787.5c1.765 4.911-.754 8.27-3.927 11.57-.762.792-2.173 1.42-2.073 2.93"/><path fill="none" stroke="#000" stroke-linecap="round" stroke-linejoin="round" stroke-width="2" d="M544.5 763.5c-1.656.27-3.423-.559-5 .5M589.5 737.5c-1.656.27-3.423-.559-5 .5M675.5 253c-1.577-1.059-3.344-.23-5-.5M323 752l-4.5 1M174 784.5c-3.217 2.93 1.092 3.977 1.5 6M171 263l-1 4.5"/><path fill="none" stroke="#000" stroke-linecap="round" stroke-linejoin="round" stroke-width="3" d="M250.5 255.5c-3.142-.946-6.224-1.35-9 1"/><path fill="none" stroke="#000" stroke-linecap="round" stroke-linejoin="round" stroke-width="2" d="M722.5 748.5c-1.696-.09-3.348-.045-4.5 1.5M760.5 765c-.743 2.073-2.533 1.357-4 1.5M778 774l-4.5-.5M442.5 786.5c-1.32.268-2.778-.558-4 .5M884.5 878.5c-1.309.169-3.05-.672-3.5 1.5M331.5 855.5c2.746.302 5.211-1.643 8-1M721 783c.45 2.172 2.191 1.331 3.5 1.5M272.5 798.5c-1.32-.268-2.778.558-4-.5M559.5 710.5c-1.32-.268-2.778.558-4-.5M675.5 254c-1.222 1.058-2.68.232-4 .5M171.5 594.5c-.268 1.32.558 2.778-.5 4M735.5 693.5c-1.604-.222-2.788.675-4 1.5M716.5 743.5c-1.565-.119-3.076-.09-4 1.5M169.5 594.5c.268 1.32-.558 2.778.5 4M681.5 755.5c-1.32.268-2.778-.558-4 .5M560.5 749.5c-1.32.268-2.778-.558-4 .5M868.5 722.5c-1.309.169-3.05-.672-3.5 1.5M783 675c-.45-2.172-2.191-1.331-3.5-1.5M547.5 727.5l-4 1.5M164.5 291.5c-.487 2.154 1.355 1.978 2.5 2.5M384.5 741.5c-1.309.169-3.05-.672-3.5 1.5M216.5 276.5c-1.448 4.328-4.217 6.675-9 6M745.5 766.5c-1.24.02-2.61-.222-3 1.5M166 777l-.5 3.5M673 787l-3.5-.5M236 255.5c-.063 1.219.426 2.713-1.5 3M282 256q-2.156.844-3 3M207.5 669.5c-.117 1.548.992 3.369-1 4.5"/></svg>