<svg xmlns="http://www.w3.org/2000/svg" width="240" height="324" viewBox="0 0 240 324"><title>peep-66</title><g fill="none" fill-rule="evenodd"><path fill="#fff" d="M170.479 181.122c-1.835-.654-3.603-1.41-5.214-2.521-4.645-3.459-7.673-8.663-10.534-13.594-4.03-7.172-6.902-14.814-8.887-22.786-.853-3.425-1.143-7.397-3.08-10.433-4.393-6.359-17.274-5.535-24.114-4.419-4.58.811-5.527 5.939-6.567 9.733-.866 3.153-1.433 6.341-1.909 9.572-1.132.745-2.41 1.35-3.63 1.877-13.28 4.074-15.614 11.626-20.686 23.292-8.567 16.957-31.814 23.596-35.325 43.663-2.263 13.249 4.171 25.713 10.804 36.727 6.178 12.03 14.802 17.804 28.536 14.962 12.882-2.891 25.262-7.727 37.918-11.464 6.13-1.507 12.249-5.429 18.697-4.062 13.285 2.985 26.935 4.389 40.55 4.001 19.117.774 19.114-17.581 17.152-31.795-1.374-22.12-12.527-36.324-33.711-42.753"/><path fill="#000" d="M171.757 213.13c1.597 1.057 2.94 2.66 4.02 4.345a417 417 0 0 1-13.483-1.623c.587-.376 1.18-.743 1.786-1.09 2.211-1.246 5.208-3.265 7.677-1.632M96.95 226.445c-.825-.323-1.144-1.582-1.466-2.303-1.008-2.262-1.928-4.563-2.885-6.847 3.635-1.036 7.17-2.186 10.934-2.739 4.049-.593 8.157-.737 12.243-.603 8.276.27 16.476 1.623 24.612 3.074 8.128 1.449 16.254 2.841 24.438 3.934 8.019 1.07 16.062 1.854 24.12 2.542 1.567.134 4.177.697 5.436-.536.997-.976 1.03-2.777-.218-3.57-.777-.495-1.903-.502-2.79-.616a55 55 0 0 0-3.366-.315q-.687-.044-1.375-.086c3.68-1.387 7.523-2.144 11.512-1.933.226 1.37 1.242 2.781 1.799 3.912.971 1.974 1.728 3.972 2.225 6.118 1.04 4.487 1.085 9.143.791 13.72-.27 3.815-.849 8.035-3.84 10.737-2.265 2.046-5.46 2.803-8.426 3.041-3.445.277-6.944-.018-10.361-.48-4.793-.649-9.607-1.506-14.305-2.655-9.1-2.225-17.822-5.765-25.869-10.566-3.924-2.34-7.669-4.974-11.647-7.225-4.053-2.295-8.367-4.075-12.896-5.18-5.068-1.238-10.367-1.766-15.576-1.46-.904.052-2.21.38-3.09.036m-5.873-2.297c.532 1.729.94 3.703 2.077 5.156 1.126 1.44 2.824 1.948 4.584 2.076 2.122.154 4.27.055 6.396.134 4.361.162 8.663.871 12.833 2.171 3.885 1.212 7.492 3.102 10.967 5.198 3.213 1.94 6.332 4.02 9.546 5.954-.856.392-1.702.817-2.552 1.186a228 228 0 0 1-5.38 2.251c-3.555 1.437-7.125 2.84-10.73 4.143a255 255 0 0 1-22.143 6.876c-3.568.933-7.186 2.022-10.892 2.177-3.286.137-6.33-.792-8.981-2.747-5.498-4.054-9.872-9.906-13.407-15.679a74 74 0 0 1-5.45-10.759 83 83 0 0 1-2.925-8.474 86 86 0 0 1-.337-1.214c5.622-1.716 11.31-3.265 17.132-4.125a60 60 0 0 1 9.4-.658 51 51 0 0 1 4.67.262q1.254.13 2.496.337c.342.056.694.14 1.047.202a387 387 0 0 0 1.649 5.533m116.206-7.345c.303-.613.43-1.217.539-1.884.083-.51.302-1.226.11-1.887-.215-.74-.803-1.403-1.224-2.034a1566 1566 0 0 1-4.176-6.29c-3.779-5.715-7.532-11.447-11.291-17.175-3.336-5.083-6.616-10.212-10.053-15.227-2.94-4.288-6.144-8.506-10.167-11.84-5.087-4.218-11.145-6.204-17.472-7.754-.69-.718-1.614-1.11-2.6-1.03-1.394-1.582-2.502-2.686-3.005-4.698-.24-.963-.165-3.67-1.103-4.24-1.114-.677-1.695.22-2.003 1.23-1.027 3.379.152 7.923 2.867 11.308-1.144 3.954-2.66 9.575-5.365 12.743-2.897 3.392-6.904 4.448-11.226 4.518-8.243.132-16.478-2.932-22.765-8.244a44 44 0 0 1-5.292-5.335c-1.205-1.439-2.63-3.659-3.572-5.337 0-.654-.772-1.338 7.086-1.866 7.858-.529 8.454-11.292 8.628-12.757.142-1.19.746-3.036-.092-4.006-.355-.412-1.085-.478-1.536-.198-.85.528-1.13 1.879-1.396 2.796-.375 1.284-1.599 9.258-3.918 10.181-1.085.432-2.33.44-3.48.52-1.417.1-2.839.172-4.251.337-.521.06-1.09.23-1.603.234-.335.004-.68-.159-1.003-.273-1.091-.386-2.181-.096-3.305.055-9.937 1.336-20.17 4.385-28.645 9.871-7.471 4.836-12.734 11.79-16.207 19.921-3.544 8.298-5.575 17.272-7.277 26.105q-.855 4.441-1.496 8.917c-.414 2.883-.931 5.83-1.055 8.743-.049 1.152.226 2.223.65 3.275.477 1.185 1.605 1.652 2.686 2.205a36.3 36.3 0 0 0 7.459 2.824 57.3 57.3 0 0 1 3.969 8.943c-.396.784-.404 1.955-.48 2.717a63 63 0 0 0-.286 5.71c-.034 3.82.195 7.637.375 11.45.183 3.87.79 19.133.888 20.997.077 1.448-.026 3.473.736 4.759 1.172 1.976 4.064 1.909 5.403.307 33.28 7.157 95.836 5.001 121.03 1.4 3.279-.468 2.25.051 3.083-.777.626-.622 1.158-1.688 1.331-2.544.231-1.143-.142-2.177-.796-3.102-.687-.972-.813-2.547-1.068-3.703-.604-2.733-.904-14.735-1.187-16.065-.088-.415-.173-.853-.275-1.291 4.621.438 9.437.438 13.833-1.109 2.493-.877 4.819-2.254 6.608-4.22 2.168-2.382 3.373-5.38 3.993-8.509.8-4.035.97-8.214.813-12.316-.218-4.847-1.022-9.763-3.017-14.214a7.4 7.4 0 0 0 1.6-2.141"/><path fill="#fff" d="M162.508 74.75c-6.966-9.87-24.472-10.983-35.536-10.92-21.85-.182-26.424 24.942-27.565 42.548-2.331.396-4.597 1.21-6.135 3.041-1.873 2.231-2.52 6.06-.764 8.556 1.166 1.657 3.007 2.21 4.933 2.303 6.378-.61 7.686 5.078 10.828 9.343 8.06 10.894 22.026 14.428 34.834 14.482 4.35.116 9.591.443 12.377-3.652 8.8-15.259 8.991-35.496 9.534-52.787.074-4.427.056-9.114-2.506-12.913"/><path fill="#000" d="M123.934 33.354c.787-1.19 2.516-1.652 3.714-.769.997-.617 2.252-.487 3.149.264 1.084-.641 2.43-.383 3.28.511 1.363-.745 3.162-.195 3.891 1.217 1.375-.153 2.67.747 3.037 2.05q.098.08.193.162c.824.04 1.607.362 2.068 1.128.23.383.337.833.322 1.274.492.266.89.703 1.06 1.269.16.53.1 1.056-.11 1.514.686.73.867 1.867.381 2.784.201.345.306.752.29 1.176-.025.627-.316 1.133-.712 1.565.498.898.304 2.05-.505 2.68-.464 1.648-1.64 2.744-3.442 3.417-.905.338-1.851.598-2.816.789 3.86.52 7.659 1.433 11.308 2.795a.53.53 0 0 0 .495-.041l.24.124q1.51.829 2.95 1.79 0-.157.006-.319a8.8 8.8 0 0 1 .304-2.552 4 4 0 0 1-.651-1.365c-.307-1.208.277-2.927 1.326-3.34.368-1.02 1.203-1.757 2.228-2.048q.12-.11.264-.21a2.1 2.1 0 0 1 .695-.309 2.34 2.34 0 0 1 .945-1.418c.722-.504 1.575-.559 2.325-.284q.214-.072.433-.126c1.207-1.027 3.088-.951 4.15.25.728-.332 1.587-.347 2.334.101.597.36.968.938 1.114 1.573 1.13.035 2.164.785 2.49 1.905a2.4 2.4 0 0 1 2.074 1.96c.665.092 1.278.404 1.652 1.025.172.288.266.602.29.917.336.16.637.405.865.724.398.559.475 1.211.329 1.825l.102.203c.109.231.196.479.273.73.35.505.512 1.123.48 1.744.075.262.147.525.206.79.237 1.037.326 2.143.163 3.2a9 9 0 0 1-.361 1.502 1.5 1.5 0 0 1-.076.262q-.135.578-.355 1.133-.532.707-1.118 1.374-.494.741-1.13 1.37a8 8 0 0 1-1 .836 7.8 7.8 0 0 1-2.347 1.3 10 10 0 0 0-.455-.08c-.961.529-2.473.588-3.398.585-1.018-.004-1.951-.261-2.727-.748l.27.538q-.036.019-.066.04c-.168-.278-.355-.525-.576-.703-.3-.242-.786-.264-.995.129l-.011.02a.6.6 0 0 0-.01.575l.092.134q.015.02.033.038c.283.233.567.802.836 1.355q.275.484.518.985c.095.14.263.263.443.298a.73.73 0 0 0 .288.678q.077-.159.2-.328c.908-1.233 2.692-1.766 4.035-1.202.268-.045.537-.083.809-.104a9.8 9.8 0 0 1 2.662.195q.41.243.774.556.307.267.572.556.207.155.405.326c.537.289.931.843 1.263 1.394q.393.558.691 1.186c.921 1.576 1.984 3.534 1.154 5.084a1.9 1.9 0 0 1 .19.554c.114.64-.122 1.128-.43 1.603.04.33.062.652.08.934.098 1.584-.264 3.756-1.66 4.402l-.068.079a1.2 1.2 0 0 1-.488.437 2 2 0 0 1-.163.104q-.038.03-.078.059l.086-.094c-.772.308-1.518.372-2.314.278-.493.178-.986.311-1.402.414-1.3.321-2.976.578-4.242.03-.37-.159-.675-.37-.906-.621q.029 1.47.09 2.941c.087 2.48.083 4.957.064 7.438-.021 2.792-.1 5.586-.25 8.376q-.105 2.101-.331 4.195a125 125 0 0 1-.446 4.068c-.403 2.782-1.069 5.584-1.88 8.273a53 53 0 0 1-1.179 3.502 32 32 0 0 1-.596 1.574c-1.126 2.725-2.529 5.354-4.424 7.624-1.035 1.238-2.178 2.352-3.454 3.288a15.6 15.6 0 0 1-3.353 2.008c-2.62 1.146-5.543 1.403-8.376 1.361-1.103-.015-2.274-.213-3.364-.395a29 29 0 0 1-2.522-.537 27 27 0 0 1-2.204-.609q-1.31-.346-2.505-.99l-1.412-.531a14 14 0 0 1-1.717-.789l-1.534-.716a21 21 0 0 1-1.86-1.012.37.37 0 0 1-.162-.155c-.156-.086-.315-.169-.471-.258-.025-.012-.006-.086.027-.158-.027-.057-.023-.12.053-.178.057-.044.148-.031.243-.002q-.012-.009-.021-.019-.159-.084-.313-.169a.17.17 0 0 1-.023-.283.17.17 0 0 1 .09-.034l-.005-.002c-.02-.013-.005-.072.023-.137-.053-.068-.07-.15.023-.222.137-.108.459.09.575.156q.2.11.401.216a.13.13 0 0 1 .053-.053q-.294-.157-.585-.315c-.12-.063-.277-.197-.119-.321.127-.102.455.072.611.16a.14.14 0 0 1 .065-.025c-.067-.038-.139-.074-.207-.114-.19-.106-.06-.436.136-.326l.07.043c.14-.013.34.103.43.154q.993.624 2.064 1.093.723.343 1.452.674.717.356 1.474.615 1.905.741 3.848 1.382c1.814.497 3.693.896 5.577 1.053q.367.03.735.044l1.608-.01q1.563-.161 3.123-.32.543-.076 1.069-.188.275-.065.549-.144.095-.013.19-.031c.446-.119.883-.26 1.32-.425q.413-.168.818-.355a14.4 14.4 0 0 0 2.6-1.596l3.113-3.098.948-1.294c1.226-1.752 2.195-3.705 3-5.698l1.28-3.69q.2-.666.381-1.333l.729-2.991q.12-.549.234-1.093c.467-2.263.725-4.56.947-6.858.405-4.18.515-8.374.545-12.571.019-2.509-.002-5.018-.053-7.524-.03-1.454-.05-2.908-.072-4.363a564 564 0 0 0-.097-4.63.14.14 0 0 1 .028-.089l-.009-.547c-.002-.12.044-.174.112-.184q-.02-1.65-.023-3.3c0-.071.034-.118.078-.145v-.28a12.5 12.5 0 0 0-.756-2.229 8 8 0 0 0-.368-.755 4.1 4.1 0 0 0-.65-1.008 4.5 4.5 0 0 0-.812-1.001l-.389-.28a2.6 2.6 0 0 1-.405-.27q-.377-.232-.752-.465c-.146-.076-.051-.266.052-.317-.023-.017-.048-.03-.076-.053a12 12 0 0 0-.95-.811.18.18 0 0 1-.182-.03 14 14 0 0 0-.596-.526q-.682-.448-1.426-.812a21 21 0 0 0-2.448-.974q-.272-.088-.543-.166-.386-.02-.772-.037a231 231 0 0 0-35.772 1.205c-2.064.231-4.539.223-6.437 1.17q-.12.06-.231.126c.148.95.535 1.877.873 2.772.52 1.382.986 2.79.94 4.286-.033 1.043-.257 2.046-.58 3.026-.165 1.398-.6 2.748-1.063 4.074-2.274 6.525-3.513 13.206-3.385 20.133a1 1 0 0 1-.113.485q.06.455.132.908c.19 1.167-1.35 1.748-1.88.974a.22.22 0 0 1-.13.063c-.136.013-.358-.209-.421-.31a6 6 0 0 0-.262-.442l-.034-.015.171.353c.093.186-.264.277-.37.106a13 13 0 0 0-.285-.431c-.055.04-.116.05-.156-.015a7 7 0 0 0-1.164-1.454c-.678-.554-1.42-.89-2.263-1.087a7.8 7.8 0 0 0-2-.023c-.755.089-1.55.277-2.232.621q-.834.575-1.67 1.148a6 6 0 0 0-.392.45 8 8 0 0 0-.952 1.604l-.032.106a6.6 6.6 0 0 0-.302 1.471q-.008.953-.017 1.907c.084.826.296 1.629.619 2.392q.228.675.714 1.207.26.448.59.826c.445.296.931.548 1.449.746.127.034.253.068.382.093a6.2 6.2 0 0 0 2.066.412q1.35.092 2.643-.234a7 7 0 0 0 1.547-.463q.716-.361 1.348-.869c.046-.03.116-.012.192.026.093-.068.186-.134.277-.207.042-.03.08.006.099.044l.025-.02c.167-.113.626.244.419.455.088.055.177.12.257.188.368.015 1.11.691.97.797q-.312.269-.646.501c.196.146.454.372.333.463q-.324.307-.699.535a6 6 0 0 1-.524.363 6 6 0 0 1-.604.309c.361.7.706 1.405 1.027 2.124q.318.765.746 1.475.544 1.081 1.307 2.027.622 1.046 1.456 1.923a23 23 0 0 0 2.208 2.198c.312.222.631.438.963.636q1.271.958 2.706 1.643c.112.06.201.196.07.302q-.006.002-.013.006.47.267.945.526c.124.068.38.2.19.353-.123.102-.5-.08-.727-.198l.1.055c.07.038.47.24.223.37a.54.54 0 0 1-.357-.062 7 7 0 0 1-.352-.144c.004.039-.017.074-.079.104a.5.5 0 0 1-.141.004q.386.22.775.431c.076.04.435.24.199.362a.48.48 0 0 1-.336-.055 6 6 0 0 1-.579-.256q-.067-.036-.133-.074a.6.6 0 0 1-.102-.01q.312.168.628.325c.125.068.334.205.154.345-.124.095-.46-.076-.659-.189a.4.4 0 0 1-.049.05c-.147.111-.528-.136-.648-.202-1.048-.562-2.06-1.143-3.034-1.809a25 25 0 0 1-1.745-1.221c-1.088-.842-2.077-1.82-2.983-2.852-.62-.705-.955-1.103-1.555-1.959-.963-1.378-1.69-2.815-2.39-4.339-.01-.023.011-.082.043-.141-.144-.353-.283-.71-.423-1.08-.363.048-.729.082-1.09.103a9 9 0 0 1-2.478-.203 8.6 8.6 0 0 1-2.778-.83c-.51-.256-1-.529-1.464-.833a8.6 8.6 0 0 1-1.202-.771c-1.638-1.252-2.527-3.194-2.745-5.21a8.888 8.888 0 0 1 .321-4.567c.387-1.355 1.107-2.609 2.151-3.558q.262-.27.556-.511a7.4 7.4 0 0 1 1.941-1.137q.204-.099.41-.184l-.167-.385c-.059.017-.264-.017-.29-.088-.067-.184-.13-.372-.196-.556a.3.3 0 0 1-.14.038v.213c.003.062-.113.442-.177.243-.065-.181-.124-.367-.188-.551-.053-.034-.093-.074-.107-.12q-.01-.03-.022-.058l-.014-.004v.065c.002.04-.104.345-.123.286a25 25 0 0 1-.896-3.078 16 16 0 0 1-.378-1.745 34 34 0 0 1-.291-1.733l-.007-.03q-.008-.087-.02-.173a35 35 0 0 1-.208-1.828 39 39 0 0 1-.144-3.79q-.04.017-.08.038c-.549.234-1.129.425-1.719.577a5.9 5.9 0 0 1-4.578 2.565 6 6 0 0 1-1.985-.23 2 2 0 0 1-.206.037c-.52.068-.882-.144-1.369-.209-.779-.103-1.44-.154-1.943-.606a1.4 1.4 0 0 1-.446-.062c-1.337.321-2.757-.386-3.227-1.867a5 5 0 0 1-1.87-1.976c-.828-1.061-1.49-2.362-1.9-3.729l-.019-.039a3.5 3.5 0 0 1-.316-1.42c-.221-1.384-.163-2.77.258-3.987a4.5 4.5 0 0 1 .422-1.972c.344-.757.869-1.627 1.55-2.132.001-.776.334-1.63.771-2.208.872-1.156 2.135-1.767 3.503-1.855.696-1.784 2.803-2.2 4.62-1.607.756-.772 1.862-1.14 2.966-1.009.933.11 1.73.558 2.391 1.173q.261.075.521.155a2.9 2.9 0 0 1 1.87-.152c1.07.276 1.767 1.087 2.25 2.017q.232.158.451.33.243.11.44.282a1 1 0 0 1 .458.518c.272.281.526.578.75.897q.252-.582.52-1.157c.292.087.644-.026.79-.416.93-2.467 2.622-6.988 4.217-9.071a10.87 10.87 0 0 1-6.682 1.856c-1.213.209-2.446.228-3.577.001a19 19 0 0 1-2.745-1.262c-.075-.063-.145-.134-.217-.202-.149.01-.305-.001-.47-.045a2.8 2.8 0 0 1-1.56-1.112 2 2 0 0 1-.17-.304 4.8 4.8 0 0 1-.98-1.326 4.7 4.7 0 0 1-.493-1.93c-.122-.654-.114-1.329.114-1.954q.04-.1.083-.201c.012-.042.02-.087.036-.129.066-.223.151-.422.254-.61q.058-.29.19-.571.015-.135.036-.27c-.671-1.268-.433-2.925.572-3.955a2.55 2.55 0 0 1 .407-1.962c.298-.434.711-.777 1.18-1.015.048-.024.178-.067.332-.116.174-.153.356-.298.556-.425.05-1.299 1.406-2.021 2.507-2.66.715-.416 1.027-1.202 1.763-1.6.805-.435 1.835-.46 2.725-.568 2.097-.253 4.33-.448 6.438-.22 1.17.127 2.14.693 2.54 1.619 1.007.119 1.904.845 2.614 1.593.886.932 1.64 1.925 1.9 3.151q.26.142.473.338a9.3 9.3 0 0 1-.355 2.538c.07.487-.077.95-.324 1.372q.054.597-.073 1.182c.482.855.03 2.147-.644 2.995l-.005.478q.061-.031.116-.077c3.061-2.606 6.209-2.234 9.928-3.726a68 68 0 0 1 10.214-1.197l-.136-.019c-1.731-.284-3.394-.996-4.825-2.02a2.5 2.5 0 0 1-1.059-.553 2.3 2.3 0 0 1-.652-.941l-.168-.184c-1.074-.264-1.891-1.193-1.754-2.415a3.2 3.2 0 0 1-.7-2.834c-.38-.642-.413-1.451-.13-2.129-.597-.725-.643-1.755-.175-2.576-.427-.607-.522-1.412.005-2.132.25-.34.594-.554.97-.658.106-.391.322-.755.66-1.036q.263-.214.544-.331c.07-.405.298-.788.738-1.09q.3-.202.606-.274c.192-.475.527-.892.999-1.163.569-.327 1.23-.37 1.834-.199m-27.117 76.867c.442-.006.866-.002 1.289.043q.026-.02.048-.017l.201.048q.352.05.708.152a6 6 0 0 1 1.616.76c.46.308.919.629 1.32 1.014q.212.182.402.386.308.256.594.514.35.319.673.662.507.586.793 1.306c.076.154-.017.247-.174.22a.7.7 0 0 1-.261-.13c.014.036.031.068.046.104.082.163.013.28-.175.218l-.03-.02q.147.26.262.538c.082.164.008.279-.177.215a2 2 0 0 1-.28-.188c.04.089.083.175.119.266.085.167-.013.254-.177.216a2.2 2.2 0 0 1-.396-.279q-.027-.023-.052-.047c.055.138-.049.222-.186.195-.195-.038-.56-.366-.649-.539q-.008-.015-.017-.032a1.8 1.8 0 0 1-.3-.26c-.067.098-.198.17-.258.051a3.14 3.14 0 0 0-.832-1.247 3.3 3.3 0 0 0-.784-.805 9 9 0 0 0-.511-.4 4.7 4.7 0 0 0-.972-.32c-.067-.022-.137-.035-.205-.054-.15-.027-.298-.055-.448-.076a8 8 0 0 0-1.836-.044c-.11.004-.215-.08-.262-.178a9 9 0 0 0-.41.026c-.225.008-.177-.311-.006-.343q.325-.059.643-.095a.13.13 0 0 1-.003-.057 7.6 7.6 0 0 0-1.16.03c-.168.008.032-.305.125-.322q.063-.01.13-.02l-.01-.018h-.01c-.232.01-.39-.359-.112-.41.07-.012.137-.02.205-.033q-.02-.054-.002-.098-.18-.002-.36-.002c.066-.004.115-.287.193-.298l.186-.025c.004-.078.122-.26.173-.27a9 9 0 0 1 1.183-.13c.038-.088.093-.207.146-.207"/><path fill="#000" d="M148.319 128.112c-1.557.45-3.227.491-4.814.025-1.438-.422-2.916-1.352-3.975-2.582-.94-1.093-1.55-2.42-1.526-3.838a.63.63 0 0 1 .15-.402.7.7 0 0 1 .373-.224.7.7 0 0 1 .436.038c.12.054.223.147.287.283q.244.321.488.63c1.308 1.616 2.576 2.824 4.543 3.257a5.53 5.53 0 0 0 3.113-.228 6.67 6.67 0 0 0 2.736-1.923c.335-.39.73-.55 1.118-.553.438-.003.872.201 1.198.527.321.32.536.756.556 1.21.017.4-.113.818-.46 1.19a9.35 9.35 0 0 1-4.223 2.59m-.048-20.246c1.595.97 4.026 3.232 2.31 5.637-2.02 2.121-4.93-.31-6.363-1.41-1.329-.852-2.822 1.34-1.589 2.335 10.357 7.67 14.56-6.308 6.449-7.702-.894-.154-1.225.84-.807 1.14m-14.924-4.268c-.513-.328-1.116-.441-1.785-.137-.522.238-1.438 1.03-2.076 2.072-.436.712-.745 1.548-.681 2.419a.55.55 0 0 1-.178.461.7.7 0 0 1-.385.171 1 1 0 0 1-.406-.036.6.6 0 0 1-.4-.346c-.447-1.186-.255-2.51.245-3.704.676-1.612 1.902-2.962 2.705-3.397 1.375-.745 2.997-.78 4.374-.02 1.172.646 1.905 1.689 2.634 2.752q.23.34.467.67c.319.442.35.88.227 1.256-.136.416-.485.767-.92.95a1.66 1.66 0 0 1-1.284.02c-.35-.147-.67-.435-.873-.922-.342-.822-.911-1.728-1.664-2.21m26.042 1.827c-.351.183-.626.238-1.016.121a1.44 1.44 0 0 1-.595-.356 1.2 1.2 0 0 1-.33-.598 2.45 2.45 0 0 0-.86-1.433 1.73 1.73 0 0 0-1.373-.361c-.567.094-1.106.458-1.478.886-.124.143-.221.306-.32.468-.182.302-.36.583-.613.805a.572.572 0 0 1-.549.117c-.563-.566-.672-.995-.653-1.421.019-.447.195-.899.479-1.32.667-.99 1.934-1.802 2.788-1.985 1.17-.252 2.333.05 3.265.704.96.673 1.67 1.718 1.892 2.895.053.284.03.59-.078.855-.105.26-.29.482-.56.623m-23.46-12.377c-.703.684-1.535.79-2.376.885-.467.052-.84.095-1.207.178-1.01.228-2.007.571-2.917 1.065-.951.517-1.988 1.14-2.733 1.938-.178.19-.345.39-.512.59-.153.182-.3.357-.455.526-.178.194-.347.398-.515.601a3 3 0 0 0-.146.257q-.047.1-.11.22a4 4 0 0 1-.194.334c-.117.196-.18.25-.234.275a.5.5 0 0 1-.259.049.43.43 0 0 1-.223-.109c-.36-.305-.467-.805-.456-1.336.017-.806.314-1.698.588-2.246.637-1.275 1.52-2.6 2.582-3.55 1.212-1.086 2.538-1.908 4.06-2.475.947-.352 2.042-.675 3.073-.634.742.03 1.45.25 2.036.801.36.338.532.82.532 1.3 0 .491-.18.984-.535 1.33m24.889 6.27a.4.4 0 0 1-.176.153.405.405 0 0 1-.555-.275c-.466-2.049-1.372-3.574-3.304-4.557-.951-.483-2.045-.79-3.08-1.036-.3-.07-.618-.117-.938-.164-1.003-.146-2.014-.314-2.667-1.125a2.16 2.16 0 0 1-.466-1.685 1.79 1.79 0 0 1 .973-1.327c1.423-.736 3.19-.014 4.627.601l.313.134c1.405.593 2.686 1.376 3.739 2.495.835.889 1.61 2.202 1.921 3.553.26 1.124.199 2.27-.387 3.232"/><path fill="#000" d="M166.085 109.758c-1.423 1.912-4.06 2.52-6.492 2.31-5.246-.505-6.897-6.465-7.07-11.098 3.519.99-.297-6.021 11.728-6.792 4.24-.353 3.07 2.208 4.944 4.079-.039 3.927-.692 8.195-3.11 11.501m-24.987-4.513c-3.097 14.51-20.058 11.059-21.84-2.02 1.646-1.162 1.213-4.03 3.256-5.07 3.24-2.07 7.289-1.982 10.967-1.933 4.702.323 6.042 2.272 8.457 4.397-.116 1.42-.451 3.103-.84 4.626m31.705-13.47a28 28 0 0 0-.522-.082 1.6 1.6 0 0 0-.48-.172 8 8 0 0 0-1.265-.22c-6.028-1.356-19.973.57-20.549 5.716-1.92.641-3.58.067-5.805.125-1.693-7.082-30.972-6.082-32.38-1.813l-.016-.004c-1.353-.42-3.347-.318-4.896-.385a42.5 42.5 0 0 0-9.852.923c-6.058.964-14.326 2.091-10.113 9.66l.003.003c.727.744 1.959.145 2.005-.863-1.417-3.586 1.783-4.016 4.244-5.047 6.126-2.201 12.362-2.506 18.697-1.825.477.561 1.2 1.05 1.964 1.307 4.236.703 2.004 3.846 4.68 4.304-.49 10.956 12.806 16.937 20.511 9.735 3.076-3.01 3.81-7.466 4.523-11.484.377-.085.617-.291.757-.564.907-.906 1.477-1.742 3.27-1.991 1.794-.249 3.174.25 3.361.403q.07.143.156.285c.082.142.194.255.32.344-1.77 10.91 6.697 17.81 15.244 12.152 3.714-3.495 4.5-8.846 4.654-13.622.504-.304.823-.893.648-1.634-.24-1.02.323-1.904 1.22-2.348 1.166-.577.96-2.681-.379-2.903"/></g></svg>