<svg xmlns="http://www.w3.org/2000/svg" width="240" height="324" viewBox="0 0 240 324"><title>peep-46</title><g fill="none" fill-rule="evenodd"><path fill="#fff" d="m241.496 179.325-9.05.888c-14.448 1.105-28.89 3.41-43.228 4.795-.357-.581-1.056-.486-1.48-.082-1.431-.125-3.034-1.219-4.33-.081q-.064-.01-.127-.017c-2.308-4.43-3.903-9.156-5.45-13.888-.989-2.91-2.318-5.725-4.775-7.679-4.192-2.911-13.798-8.815-18.72-8.567-.082-.881-.493-1.79-1.168-2.377 1.487-2.536-4.458-4.19-4.878-3.897.27-8.473-3.715-15.83-12.5-17.518-7.87-1.64-19.063-1.916-23.295 6.312-.465-.053-5.221-.077-5.681-.026-.716-.906-8.573 7.683-5.353 10.674-28.79 12.74-45.16 11.22-53.128 47.038-1.078 3.364-1.156 7.046-2.294 10.336-4.047 9.454-7.33 19.52-8.146 29.807-1.973.506-2.2 3.987.085 4.49.873.192 1.603.455 2.24.954-.498 8.43 1.54 27.687 2.824 27.627 2.619 8.337 14.298 10.69 22.566 7.76-1.425 2.683 0 4.37 0 5.803 29.753 1.126 62.283.477 92.027 2.022 3.805-.054 7.807.934 11.56.365 2.288-.549 2.292-4.149-.03-4.594l10.144-2.204c-.226-.085 4.182-3.018 7.513-8.5 3.101-6.13.99-13.532 2.396-20.2 10.974-.899 22.13-1.283 32.983-3.142 1.48 4.43 7.887-.868 9.923-2.999l-.007-.01c.985-.27 1.775-1.194 1.802-2.288.69-.987.836-2.38.173-3.334 3.038-17.536 7.669-35.44 9.343-53.14a3.75 3.75 0 0 0 1.621-.79l-.038-.039c.8-.892.956-2.433-.378-3.192-1.077-.612-1.976-.422-3.144-.307"/><path fill="#000" d="M113.043 135.303c.897-2.254 3.927-1.378 3.59.99-.203 1.418-.98 2.916-1.677 4.159-.568 1.012-1.216 1.999-2.094 2.757a86 86 0 0 0 4.85 4.2 60 60 0 0 0 5.699 4.033c1.73 1.082 3.539 2.04 5.17 3.276 1.517 1.147 2.898 2.528 3.601 4.33.75 1.92.424 3.901-.128 5.82l-.063.216c-.563 1.9-1.539 4.19-.186 5.98.688.912 1.69 1.557 2.553 2.286.769.647 1.49 1.352 2.151 2.108 1.442 1.649 2.615 3.504 3.355 5.572l.066.188c.634 1.83 1.098 4.072.24 5.869-.245.515-1.038.347-1.176-.154-.311-1.136-.295-2.326-.556-3.479a13.1 13.1 0 0 0-1.315-3.412c-1.142-2.082-2.69-3.86-4.518-5.363l-.547-.446c-1.426-1.17-2.736-2.412-3.026-4.35-.31-2.073.521-4.048 1.055-6.01.372-1.368.493-2.679.091-3.914-.49.802-1.161 1.563-1.691 2.242-1.056 1.353-2.121 2.698-3.184 4.045a96 96 0 0 0-3.165 4.224q-.678.967-1.347 1.94c-.336.487-.804.974-1.17 1.471.089.266.082.573-.079.79-1.94 2.623-4.701-2.85-5.421-4.232-1.466-2.816-2.557-5.807-4.028-8.623a68 68 0 0 0-5.195-8.423c-1.17-1.611-2.482-3.125-3.552-4.788-2.522 2.288-5.84 3.822-8.89 5.212-3.348 1.528-6.828 2.776-10.261 4.101l-1.015.395c-5.916 2.31-11.977 4.847-16.895 8.95-5.779 4.822-9.197 11.542-11.743 18.5-2.93 8.012-5.353 16.24-7.613 24.462a443 443 0 0 0-3.285 12.672c-.909 3.735-1.662 7.507-2.714 11.204 2.134-.076 4.567.75 6.39.99 8.302 1.086 16.493 2.82 24.331 5.82.968.37 1.249 1.338 1.038 2.122l1.674-.474c-.611-.938-.32-2.614-.271-3.654l.003-.071c.05-1.385.2-2.772.297-4.154.185-2.635.427-5.251.748-7.872l.082-.655c.363-2.85.632-5.718 1.03-8.564l.046-.325a39 39 0 0 0-.644-2.164c-.62-1.907-1.495-3.703-2.262-5.55-.09-.218.22-.342.364-.212 1.299 1.168 2.33 2.65 3.159 4.201l.042-.22.094-.465c.234-1.135.517-2.33 1.213-3.25.074-.098.221-.119.291 0 .667 1.127.741 2.556.844 3.84.116 1.451.13 2.922.11 4.378-.04 2.845-.24 5.699-.4 8.54-.157 2.791-.465 5.547-.861 8.311l-.076.519c-.194 1.315-.352 2.647-.608 3.954l-.072.356c-.137.648-.221 1.561-.493 2.32a1938 1938 0 0 1 21.038-5.737c5.077-1.356 10.16-2.691 15.24-4.035a5.7 5.7 0 0 1 1.019-1.338c1.372-1.33 3.191-1.924 4.86-.9.135.084.147.296 0 .377q-.481.261-.955.54l3.051-.826c2.28-.618 4.588-1.39 6.922-1.822 4.298-2.122 8.922-3.658 13.45-5.176l.534-.18c2.318-.791 4.716-1.677 7.112-2.115 1.754-.321 3.812.066 4.517 1.864.893.588 1.733 1.28 2.544 1.96.586.492 1.148 1.015 1.719 1.523l.105.093c.467.405.837.677.952 1.322.06.333-.153.784-.564.74-1.257-.135-2.28-1.593-3.132-2.463-.659-.673-1.323-1.369-1.924-2.109-.35.191-.83.157-1.054-.266-1.157-2.191-4.326-.673-6.08-.153l-2.511.744q-1.885.558-3.765 1.127c-3.445 1.047-6.872 2.218-10.348 3.179.311.342.268.95-.322 1.182-2.721 1.068-5.706 1.62-8.533 2.353q-2.677.694-5.35 1.397a4.4 4.4 0 0 0-.619 1.708c-.34 2.4.316 5.167.955 7.487l.097.347c.525 1.865 1.298 4.152 2.907 5.33.393.287.893.487 1.397.532q4.724-2.433 9.45-4.862c.583-.3 1.123.106 1.254.59 1.11-.183 2.22-.47 3.229-.813 1.696-.577 3.021-1.676 4.611-2.436 3.078-1.47 6.22.336 8.976 1.709l.635.312c1.235.6 3.806 1.752 4.399.112.573-1.587-1.24-3.283-2.41-3.997-1.396-.852-3.022-1.307-4.599-1.687-.9-.217-1.812-.394-2.73-.523-1.04-.146-2.114-.124-3.116-.462-.497-.167-.574-.958 0-1.089 1.542-.35 3.382.032 4.991.423l.841.208c1.621.398 3.258.897 4.735 1.691 1.073.577 2.207 1.454 2.947 2.528.643-.597 1.443-.577 2.276-.356l.453.126c.747.207 1.352.35 2.08.206q.143-.793.3-1.587a379 379 0 0 1 3.425-15.54 366 366 0 0 1 7.485-26.387l.283-.87c.65-1.99 1.174-4.16 2.223-5.988.992-1.73 2.58-2.726 4.469-3.253 2.143-.599 4.394-.912 6.58-1.316q.731-.133 1.464-.265c-.412-.744-.72-1.59-.997-2.239l-.049-.112a78 78 0 0 1-1.648-4.133l-.386-1.045c-.933-2.518-1.896-4.994-3.208-7.348-1.38-2.478-3.213-4.504-5.496-6.18-4.656-3.42-10.268-5.163-14.784-8.817-.185-.15.052-.405.24-.31 3.05 1.532 6.34 2.574 9.512 3.822l.626.247c2.507.994 5.053 2.076 7.222 3.686 2.42 1.795 4.325 4.024 5.757 6.674 1.41 2.613 2.314 5.537 3.31 8.328l.266.744a53 53 0 0 0 1.291 3.311c.378.862 1.082 1.845 1.402 2.83q1.313-.23 2.628-.451a421 421 0 0 1 57.425-5.58c.752-.021 1.142.697 1.03 1.354-1.846 10.923-3.487 21.883-5.287 32.814q-1.179 7.156-2.408 14.303c-.415 2.414-.896 4.819-1.29 7.237-.317 1.952-.548 3.92-1.093 5.827-.49 1.71-1.24 3.359-2.474 4.664-1.329 1.406-3.184 2.087-5.052 2.408-4.741.817-9.604 1.15-14.383 1.694l-25.447 2.896c.372 3.381.4 6.71.229 10.13l-.097 1.868c-.08 1.502-.175 3.006-.39 4.493-.27 1.864-1.124 3.443-2.38 4.836-1.153 1.28-2.554 2.37-3.917 3.416-1.414 1.086-2.876 2.134-4.54 2.806l-.215.086c-1.46.57-4.197 1.452-6.191 1.13.26 1.306.765 2.711.318 4.004-.208.6-.993.9-1.474.39-.952-1.013-1.027-2.35-1.252-3.671a105 105 0 0 1-.617-4.137c-.348-2.674-.619-5.372-.701-8.069a98 98 0 0 1 .097-8.308c.077-1.42.172-2.84.352-4.252.077-.601.155-1.204.245-1.804q.05-.329.108-.655l-2.284.258c-3.502.391-7.006.744-10.532.8a1.14 1.14 0 0 1-.95-.462c-.223.365-.613.626-1.17.624-4.926-.019-9.513-1.63-13.992-3.529-2.258-.957-4.481-1.994-6.743-2.943-2.11-.886-4.367-1.518-6.427-2.516l-5.413 2.84c-.04.14-.09.272-.144.383-.353.72-1.048 1.11-1.757 1.404a4.2 4.2 0 0 1-2.074.299q-6.157 3.229-12.32 6.447l-4.11 2.143c-8.187 4.265-16.343 8.6-24.582 12.764l-.607.306c-2.846 1.427-5.902 2.874-9.06 3.954-.056.8-.02 1.578.046 2.424l.016.184c.095 1 .297 2.254-.506 2.966-.417.37-1.162.372-1.446-.186-.515-1.013-.053-2.61.11-3.71.058-.39.129-.793.233-1.183-3.62 1.078-7.35 1.601-11.035.996-3.588-.59-6.366-2.85-8.606-5.615a25.56 25.56 0 0 1-4.945-9.965c-1.025-4.148-1.092-8.432-1.068-12.682.025-4.524.193-9.072.743-13.566-.603-.142-1.271-.264-1.88-.222-.302.483-.887.686-1.416.623-1.15 1.27 1.767 2.566 2.699 2.89.323.113.289.64-.085.623l-.235-.01c-1.44-.078-2.928-.324-3.775-1.663-.678-1.073-.475-2.344.334-3.22.535-5.053 1.812-9.975 3-14.905a345 345 0 0 1 3.84-14.43l.616-2.14c2.166-7.501 4.429-15.062 7.415-22.265 1.492-3.596 3.21-7.126 5.538-10.262 2.171-2.923 4.734-5.425 7.68-7.56 5.492-3.984 11.936-6.39 18.268-8.684l.283-.102c3.281-1.187 6.555-2.389 9.798-3.676 2.87-1.137 5.618-2.58 8.473-3.734a15 15 0 0 1-.269-.512l-.052.045-.028.02c-.288.2-.71.102-.947-.122-.668-.63-.442-1.33.004-1.984l.058-.084c.546-.764 1.032-1.572 1.536-2.364l.315-.496c.845-1.323 1.733-2.655 2.86-3.75a6.2 6.2 0 0 1 1.698-1.168c-.052-.11.402-.333.531-.22 1.918-.703 4.124-.555 6.215-.362m75.343 115.176-2.666.303q-4.4.5-8.803.976l-6.374.693c-.017.364-.06.72-.069.994a491 491 0 0 0-.102 4.247 98 98 0 0 0 .193 8.512c.18 2.744.42 5.49.79 8.215l.075.545.044.287c.303.029.6.173.847.468.539.644 2.491.018 3.254-.253 1.254-.447 2.434-1.2 3.524-1.957 1.064-.738 2.022-1.6 2.943-2.506l.753-.746c.75-.745 1.5-1.538 1.958-2.475.623-1.27.703-2.83.886-4.215.225-1.702.492-3.404.775-5.098m-75.427-25.858-.277.072c-10.046 2.67-20.077 5.42-30.154 7.973-4.986 1.263-9.997 2.435-14.99 3.674l-.808.202c-3.939.996-7.925 2.194-10.941 5.053-.112.105-.273-.057-.168-.169 3.25-3.462 7.874-4.927 12.313-6.198q1.23-.35 2.463-.697c-6.037-2.153-12.17-4.026-18.444-5.362-1.615-.344-3.25-.597-4.864-.942-1.126-.241-2.225-.59-3.34-.879l-.876-.22-.011 2.77c-.015 3.924-.008 7.844.192 11.768l.038.726c.234 4.366.598 8.823 2.147 12.94 1.258 3.345 3.264 6.496 5.888 8.933 1.327 1.233 2.754 2.192 4.518 2.666 1.638.44 3.354.492 5.038.374 8.077-.563 15.266-4.953 22.282-8.586a19562 19562 0 0 1 34.439-17.806 5.6 5.6 0 0 1-.869-.732c-1.54-1.592-2.353-3.77-2.886-5.88a31 31 0 0 1-.948-6.972m14.874 15.878a.15.15 0 0 1 .223.129c.036.877-.449 1.743-.811 2.534l-.038.084c-.44.98-.922 1.946-1.42 2.897a143 143 0 0 1-3.113 5.633c-2.172 3.729-4.587 7.3-7.44 10.547-.645.733-1.705-.207-1.292-.997 1.995-3.806 4.32-7.4 6.713-10.963 1.198-1.784 2.395-3.57 3.605-5.345a98 98 0 0 1 1.541-2.207l.317-.434m120.86-73.753c-10.08.305-20.15.962-30.183 1.993a414 414 0 0 0-33.657 4.863l-1.155.217c-1.927.365-4.28.516-5.995 1.545-1.808 1.086-2.297 3.354-2.899 5.224q-1.06 3.3-2.067 6.617a494 494 0 0 0-7.267 26.552c-1.078 4.425-2.034 8.874-3.041 13.316-.895 3.945-1.883 7.847-2.914 11.753.127-.099.283-.174.471-.214 5.123-1.09 10.352-1.564 15.551-2.167l.504-.059c5.378-.632 10.757-1.26 16.139-1.866l35.632-4.008c2.101-.237 4.353-.269 6.398-.833 3.477-.96 4.292-4.848 4.875-7.945l.018-.094c1.758-9.357 3.158-18.795 4.799-28.176M156 241.79c-1.383-.092-3.277-1.359-4.326-1.268.55.925.8 1.98.482 3.106-.884 3.135-4.88 1.513-6.806.555-1.578-.785-3.102-1.747-4.85-2.114-1.98-.417-3.32.37-4.993 1.278a14.8 14.8 0 0 1-4.408 1.558 9.3 9.3 0 0 1-2.37.106 1 1 0 0 1-.16.105l-.41.215c1.855.085 3.745.658 5.471 1.182 1.79.543 3.546 1.198 5.293 1.868l1.718.66c4.24 1.625 8.627 3.167 13.215 3.153.33 0 .6.09.813.24m-6.409-20.467c1.367-.167 2.628.013 3.72.903 1.317 1.073 2.202 2.853 4.095 2.97.552.034.68.81.132.972-1.41.418-2.55-.345-3.51-1.335l-.646-.675c-.95-.983-1.824-1.743-3.434-1.684-1.725.063-3.452.461-5.165.664-1.94.23-3.881.425-5.828.594-.09.008-.106-.134-.021-.155l2.18-.543m7.158-7.3.225-.023c1.985-.192 3.8-.2 5.572.868l.34.206c1.598.972 3.337 2.116 4.337 3.69.163.257-.107.56-.38.494-1.921-.46-3.325-1.87-4.94-2.926-1.813-1.184-3.685-.988-5.752-.804a77 77 0 0 0-5.983.756c-1.862.314-3.73.808-5.61.966v-.004c-.215 0-.337-.323-.118-.433 1.908-.953 4.119-1.404 6.195-1.84m66.402-20.573c-.192-.918.937-1.343 1.46-.615l.111.153c1.13 1.55 2.765 3.493 2.682 5.463.993.021 2.023.625 2.41 1.522.179.415.24.906.2 1.415.903.07 1.888.664 2.44 1.241.915.957.987 2.31.33 3.428-1.43 2.438-4.557 3.325-7.197 3.523l-.094.007c-2.726.189-6.654.138-8.524-2.202-1.803-2.257.19-4.085 2.234-5.077-.532-.486-.808-1.183-.549-1.917.455-1.292 2.061-1.791 2.968-2.689 1.107-1.095 1.838-2.596 1.546-4.166m1.481 1.9c-.3 1.306-1.039 2.501-2.067 3.449a8 8 0 0 1-1.281.962l-.055.031c-.406.228-1.403.655-1.327 1.167.08.525 1.704 1.347 2.147 1.348.1 0 .158.157.055.203-.803.354-1.504.506-2.288.132a71 71 0 0 0-1.539 1.639c-.892.972-.587 1.998.468 2.722 1.694 1.163 4.268 1.134 6.245 1.05 1.99-.085 4.116-.53 5.67-1.855l.067-.059c.845-.751 1.616-2.024.323-2.748-.507-.283-1.054-.267-1.535-.404-.45.882-1.18 1.589-2.07 1.725-.72.11-1.216-.795-.561-1.228l.147-.091c.822-.525 1.524-1.334 1.505-2.387-.012-.73-1.033-1.654-1.698-.967l-.03.032c-.556.628-1.536-.163-1.17-.858l.017-.031m-130.766-40.18c-.003-.158.218-.217.295-.08 1.292 2.272 1.967 5.058 2.654 7.562.72 2.622 1.303 5.272 1.825 7.94 1.058 5.405 1.622 10.779 1.66 16.287.006.786-1.275.996-1.4.19-.832-5.358-1.629-10.722-2.467-16.078-.422-2.694-.913-5.378-1.382-8.064m11.598-3.8c-.095-.313.361-.418.478-.131 2.591 6.364 3.469 13.575 1.805 20.289-.254 1.027-1.758.582-1.566-.432m32.71-25.38c-.014-.234.29-.271.406-.11 1.228 1.73 1.737 4.049 3.891 4.943 1.076.447 2.286.369 3.236 1.123.636.505 1.123 1.301.646 2.065-.154.247-.584.37-.793.102-.305-.39-.466-.858-.88-1.151-.584-.413-1.37-.439-2.04-.633a5 5 0 0 1-2.254-1.344m18.301-33.862c.127-.064.248-.023.33.086.115.156.1.308-.04.415.188.387.411 1.355.443 1.496q.195.857.411 1.707c.29 1.145.545 2.299.835 3.444a45 45 0 0 0 1.084 3.6q.04.114.085.233l.047.12.011-.018c.083-.131.256-.04.236.1q-.032.188-.067.378l.043.113c.267.72.45 1.477-.04 2.112-.183.237-.385.377-.636.42a37 37 0 0 1-1.45 3.886l-.16.366c-.796 1.828-1.645 3.633-2.914 5.189-1.384 1.7-3.289 2.86-4.495 4.721-.561.867-.951 1.777-1.268 2.755l-.12.372c-.225.692-.484 1.362-1.133 1.768a.57.57 0 0 1-.684-.088c-1.33-1.408.062-4.037.865-5.4 1.115-1.895 2.729-3.108 4.345-4.538 1.741-1.541 2.853-3.603 3.927-5.635.659-1.244 1.294-2.515 1.963-3.765-.699-.618-.923-1.846-1.16-2.7l-.021-.076a30.6 30.6 0 0 1-.899-4.177 23 23 0 0 1-.218-4.05l.015-.347m3.264 3.958c-.154-.212.102-.452.313-.408 1.289.267 2.548 1.047 3.705 1.678l.123.067c.923.498 1.852 1.108 2.337 2.075.527 1.051.483 2.262.411 3.405l-.006.107c-.088 1.37-.103 2.794-.393 4.139-.148.689-.771.883-1.304.72-.635 2.003-2.416 3.48-3.718 5.06-1.659 2.016-1.347 4.737-1.173 7.164.07.983-1.152 1.262-1.781.738l-1.45-1.205-.724-.605q-.309-.26-.613-.525l-.302-.268c-.134-.12-.726-.781-.9-.808-.418-.067-1.414 1.038-1.755 1.384l-.043.044c-.641.629-1.22 1.306-1.76 2.024-.1.132-.294.022-.223-.13a18 18 0 0 1 1.714-2.955l.135-.185c.444-.599 1.04-1.656 1.825-1.833.957-.216 1.913.745 2.61 1.278l.044.033q.497.374.986.757c-.034-1.807.194-3.633 1.127-5.19.658-1.1 1.643-1.913 2.486-2.857.939-1.05 1.43-2.342 2.279-3.437.11-.14.26-.217.423-.24.033-.88.163-1.77.263-2.64l.029-.26c.1-.946.34-2.101-.123-2.987-.437-.837-1.44-1.427-2.183-1.995l-.607-.47m-43.565-11.676c-.387.224-.75.504-1.079.853-1.035 1.098-1.776 2.466-2.496 3.781-.388.709-.762 1.425-1.153 2.132q-.256.46-.522.915c-.082.14-.325.418-.445.59q.201.28.413.554c.054.07 3.768 4.118 5.063 5.702 1.983 2.426 3.755 4.99 5.27 7.733 1.483 2.686 2.613 5.53 3.987 8.269.688 1.371 1.456 2.732 2.435 3.919q.058.068.117.136c.373-1.01 1.331-2.092 1.801-2.713l.044-.058a89 89 0 0 1 3.344-4.205 113 113 0 0 1 3.234-3.683l.415-.451c.77-.831 1.746-2.075 2.872-2.669a5.4 5.4 0 0 0-.42-.638c-1.055-1.38-2.547-2.38-4.019-3.283l-.954-.581c-3.597-2.193-7.139-4.488-10.262-7.338-1.652-1.507-3.282-3.087-4.67-4.845l-.492-.622m3.52-4.584c-1.685.142-3.504.108-5.06.657 1.383 1.309 2.699 2.722 4.05 4.053.12-.9.366-1.79.575-2.667"/><path fill="#fff" d="M129.727 53.95c11.996 0 24.404 9.301 28.8 15.237 3.698 4.99 5.688 27.558 5.688 42.809 0 3.19 1.76 9.202 1.246 12.253-1.881 11.18-10.079 20.557-26.304 20.557s-27.858-6.434-39.918-23.708c-5.851 0-8.687-4.49-8.729-11.573q-.04-7.085 5.649-9.662-2.028-27.957 3.08-35.236c5.11-7.279 18.492-10.678 30.488-10.678"/><path fill="#000" d="M124.679 49.996c7.574-.767 14.996-.122 22.46 1.211.57.104.893.478 1.014.928 3.515.16 7.035.419 10.546.611 1.274.07 1.997 1.33 1.416 2.466a22 22 0 0 1-.36.666l.154-.05c1.057-.34 2.198-.507 3.227.031 1.31.685 1.823 2.196 1.534 3.587a5.5 5.5 0 0 1-.34 1.027q.431-.03.864.025c1.53.203 2.666 1.376 2.746 2.938.118 2.359-1.4 4.751-3.19 6.44.26.535.36 1.165.251 1.803-.215 1.262-1.144 2.017-2.222 2.51.45 1.427.662 2.919.537 4.443-.042.509-.487.93-.957 1.032 1.75 4.822 2.637 9.999 3.274 15.043.454 3.59.678 7.2.705 10.815a98 98 0 0 1-.082 4.9l-.027.612c-.085 1.765-.089 3.618-.406 5.364 1.082 1.841 1.517 4.126 1.7 6.189.23 2.553-.132 5.186-.937 7.615-3.038 9.176-12.207 14.967-21.417 16.472-8.524 1.393-18.388-.482-23.37-8.228-.078-.122.089-.224.186-.143 3.564 2.9 7.699 4.193 12.19 4.823 7.767 1.086 16.496-.757 22.728-5.643 2.992-2.346 5.149-5.762 6.098-9.437.483-1.879.65-3.838.46-5.772-.194-1.961-1.062-3.635-1.61-5.489-.183-.626.01-1.207.393-1.62.108-1.506.362-3.023.459-4.524q.161-2.558.196-5.119c.045-3.542-.103-7.09-.401-10.618-.545-6.459-1.992-12.761-2.842-19.165a1.05 1.05 0 0 1-1.237.151l-.05-.027-.257-.147-.047.004c-1.764.171-3.593-.074-5.283-.6a15.5 15.5 0 0 1-4.877-2.522 22.2 22.2 0 0 0-.397 4.284c-.002.9-.955 1.368-1.71.983a71.4 71.4 0 0 1-9.597-5.873q-.532 2.73-1.067 5.46c-.137.703-1.03.986-1.603.652a20.3 20.3 0 0 1-5.846-5.123q-.48.917-.963 1.833l-.486.914c-.48.898-1.122 1.892-2.172 2.18-1.111.303-2.039-.417-2.413-1.423a18 18 0 0 1-.317-.958 56 56 0 0 1-3.223 6.292c-1.813 3.025-3.99 5.72-6.159 8.484-.66.839-1.787.038-1.878-.778a48 48 0 0 1-.136-1.441c-1.264 2.552-2.583 5.08-4.02 7.535l.206.807c.593 2.384 1.085 4.784 1.62 7.18.173.774-.237 1.879-1.14 2.01-1.08.158-2.1.71-3.205.33-1.205-.414-1.443-1.456-2.011-2.443a4 4 0 0 0-.388-.55l-.036.048c-.089.116-.3-.01-.247-.144l.062-.154c-.489-.519-1.074-.951-1.611-1.417-1.278-.215-2.715.02-3.596.54-2.005 1.183-2.926 3.622-2.945 5.865-.023 2.625.79 5.575 2.164 7.82.604.987 1.432 1.878 2.526 2.316 1.086.435 2.263.3 3.368.71.731.273 1.181 1.084.74 1.82q-.047.074-.096.146l.329.436c.226.302.462.626.681.963.562.647 1.154 1.27 1.726 1.906 1.059 1.173 2.086 2.378 3.127 3.568.983 1.122 2.022 2.177 3.093 3.214 1.012.983 2.276 1.81 3.205 2.858.904 1.023 1.15 2.809-.338 3.4-1.646.657-3.103-.881-4.21-1.907l-.047-.043c-2.03-1.87-3.864-4.006-5.32-6.358-1.443.982-3.53 1.076-4.966.094-.756-.517-1.336-1.385-1.618-2.33a3.4 3.4 0 0 1-.79.09 10 10 0 0 1-.402.223c-1.072.558-2.388.309-2.878-.877-.446-1.077.014-2.3.416-3.337l.083-.214c.228-.591.48-1.236.792-1.843-.87-.655-1.614-1.469-2.244-2.394-2.115-3.118-3.17-7.677-2.704-11.396.281-2.245 1.335-4.57 3.061-6.083l-.063-.165c-.484-1.228-.924-2.46-1.209-3.758-.333-1.517-.496-3.09-.644-4.634-.313-3.264-.228-6.6.188-9.851.782-6.119 2.764-12.126 6.281-17.217-.997-1.194-1.787-2.6-1.375-4.216.188-.743.616-1.446 1.263-1.871.357-.235.782-.27 1.139-.465l.107-.059c.157-.092.037-.082-.056-.507-.37-1.7-.064-3.342 1.806-3.906 1.76-.53 3.425.596 4.466 1.938 2.725-1.934 6.317-2.946 9.475-3.806 3.592-.975 7.276-1.583 10.976-1.96M95.24 106.997c-.013-1.384 1.299-2.238 2.59-2.011.867.15 1.59.668 2.27 1.203l.33.262c.827.65 1.777 1.35 2.27 2.27.722 1.356-.805 3.182-2.231 2.23-.978-.655-1.606-1.706-2.247-2.682l-.067-.1c-.291-.438-.547-.903-.946-1.254l-.087-.076a1.2 1.2 0 0 0-.441-.262c-.328-.094-.934.037-1.078.427l-.013.04c-.052.197-.348.154-.35-.047"/><path fill="#000" d="M149.973 126.159c-1.434.564-3.128.697-4.608.216a6.5 6.5 0 0 1-3.478-2.768c-.692-1.146-.981-2.505-.572-3.86.02-.065.083-.107.144-.123.335.305.542.608.749.91.348.508.697 1.01 1.177 1.445.697.632 1.637 1.146 2.57 1.315.913.166 1.848.02 2.665-.418.498-.266.9-.621 1.298-.978.433-.389.86-.783 1.457-1.003.479-.176.981-.027 1.367.267.415.316.714.811.697 1.329-.025.802-.376 1.47-.885 2.022-.689.746-1.662 1.284-2.581 1.646m-1.702-19.984c1.595.97 4.026 3.233 2.31 5.638-2.02 2.12-4.93-.311-6.363-1.41-1.329-.853-2.822 1.339-1.589 2.334 10.357 7.671 14.56-6.308 6.449-7.702-.894-.154-1.225.84-.807 1.14m-16.78-13.441c2.174-.104 4.09.873 6.162 1.317 1.915.41 3.802.164 5.664-.359 3.022-.847 4.272 3.782 1.29 4.684-2.17.657-4.456.702-6.684.364-1.98-.301-3.638-1.265-5.525-1.826-1.619-.481-3.524-.281-5.234-.055l-.664.09c-.986.132-1.978.266-2.955.459-.848.167-1.694.474-2.559.51-.098.004-.181-.124-.12-.209 1.005-1.38 2.942-2.47 4.483-3.196l.104-.049c1.902-.887 3.92-1.63 6.037-1.73m-.797 10.178v-.048c.002-1.348.787-4.425 2.727-4.425 1.211 0 1.947 2.094 2.074 4.253l.005.088c.056 1.342-.312 4.276-2.08 4.276-1.785 0-2.708-2.779-2.726-4.144m28.554 0v-.048c-.003-1.348-.788-4.425-2.727-4.425-1.181 0-1.91 1.99-2.064 4.091l-.01.162c-.077 1.297.267 4.364 2.074 4.364 1.786 0 2.708-2.779 2.727-4.144m-.03-11.82.139.003c2.266.079 4.598 1.422 5.203 3.678.03.117-.113.196-.199.116-1.864-1.746-4.37-.078-6.236.796l-.686.317c-2.405 1.12-5.141 2.436-7.813 1.602-1.268-.396-2.074-1.7-1.712-3.018.322-1.171 1.736-2.156 2.96-1.733l.056.02c.995.38 2.219-.005 3.246-.386l.845-.317c1.357-.515 2.72-1.092 4.197-1.078"/></g></svg>