<svg data-v-423bf9ae="" xmlns="http://www.w3.org/2000/svg" viewBox="0 0 345.5049444128774 60" class="font"><!----><!----><!----><g data-v-423bf9ae="" id="d60d1d3b-3acc-4791-9b0f-ae6375fad321" fill="black" transform="matrix(6.54613399779772,0,0,6.54613399779772,5.040527062370472,-23.940146610466208)"><path d="M5.58 6.48L5.58 6.48Q5.43 6.45 5.17 6.43Q4.92 6.40 4.66 6.38L4.66 6.38Q4.36 6.37 4.02 6.37L4.02 6.37Q3.68 6.34 3.17 6.36Q2.65 6.38 2.09 6.38L2.09 6.38Q2.08 6.74 2.04 7.11Q2.01 7.48 1.98 7.83L1.98 7.83Q1.91 8.49 1.87 9.17Q1.82 9.86 1.82 10.47Q1.82 11.09 1.89 11.59Q1.97 12.09 2.17 12.37L2.17 12.37Q2.01 12.50 1.82 12.56Q1.63 12.62 1.48 12.65L1.48 12.65Q1.30 12.69 1.12 12.69L1.12 12.69Q0.96 12.69 0.85 12.58Q0.74 12.47 0.72 12.20L0.72 12.20Q0.70 11.73 0.72 11.26Q0.74 10.79 0.77 10.27Q0.81 9.75 0.85 9.15Q0.89 8.56 0.93 7.85L0.93 7.85Q0.97 7.11 0.97 6.41L0.97 6.41Q0.45 6.43 0.10 6.43Q-0.26 6.43-0.30 6.41L-0.30 6.41Q-0.34 6.38-0.40 6.29L-0.40 6.29Q-0.45 6.21-0.54 6.04Q-0.63 5.88-0.77 5.58L-0.77 5.58Q-0.51 5.58-0.20 5.58Q0.11 5.58 0.37 5.56L0.37 5.56Q0.67 5.55 0.97 5.54L0.97 5.54Q0.96 5.32 0.96 5.07L0.96 5.07Q0.94 4.88 0.94 4.64Q0.94 4.40 0.93 4.20L0.93 4.20Q0.93 4.12 1.13 4.00Q1.33 3.88 1.56 3.79Q1.79 3.69 1.99 3.66Q2.19 3.64 2.19 3.76L2.19 3.76Q2.19 3.88 2.18 4.35Q2.17 4.83 2.15 5.50L2.15 5.50Q2.28 5.50 2.35 5.48L2.35 5.48Q3.08 5.46 3.52 5.42Q3.96 5.39 4.25 5.41Q4.54 5.44 4.76 5.55Q4.98 5.66 5.25 5.91L5.25 5.91Q5.35 5.99 5.41 6.08L5.41 6.08Q5.48 6.17 5.53 6.27Q5.58 6.37 5.58 6.48ZM5.11 12.71L5.11 12.71Q4.16 12.71 3.64 12.07Q3.12 11.43 3.12 10.39L3.12 10.39Q3.12 9.67 3.33 9.03Q3.54 8.39 3.90 7.93Q4.25 7.46 4.72 7.20Q5.20 6.93 5.71 6.93L5.71 6.93Q6.22 6.93 6.58 7.29Q6.93 7.66 6.93 8.33L6.93 8.33Q6.93 8.76 6.74 9.19Q6.55 9.63 6.24 9.96Q5.93 10.29 5.56 10.50Q5.20 10.71 4.85 10.71L4.85 10.71Q4.63 10.71 4.48 10.65Q4.33 10.60 4.21 10.49L4.21 10.49Q4.25 11.27 4.55 11.57Q4.85 11.88 5.33 11.88L5.33 11.88Q5.66 11.88 5.91 11.74Q6.17 11.61 6.34 11.43Q6.52 11.25 6.63 11.07Q6.74 10.88 6.78 10.79L6.78 10.79Q6.82 10.71 6.92 10.71Q7.03 10.71 7.03 10.87L7.03 10.87Q7.03 11.02 6.92 11.33Q6.82 11.63 6.59 11.94Q6.36 12.25 6.00 12.48Q5.63 12.71 5.11 12.71ZM5.74 7.52L5.74 7.52Q5.66 7.52 5.43 7.69Q5.21 7.86 4.96 8.19Q4.70 8.52 4.49 8.98Q4.28 9.43 4.22 10.01L4.22 10.01Q5.04 9.82 5.52 9.41Q6.00 9.00 6.00 8.20L6.00 8.20Q6.00 7.81 5.91 7.66Q5.81 7.52 5.74 7.52ZM11.57 10.84L11.57 10.84Q11.57 10.99 11.46 11.30Q11.36 11.61 11.13 11.92Q10.90 12.22 10.53 12.46Q10.17 12.69 9.65 12.69L9.65 12.69Q8.91 12.69 8.42 12.28Q7.92 11.88 7.71 11.13L7.71 11.13Q7.55 10.50 7.62 9.78Q7.70 9.06 8.01 8.45Q8.33 7.83 8.89 7.40Q9.45 6.97 10.25 6.93L10.25 6.93Q10.66 6.92 10.94 7.08Q11.21 7.25 11.36 7.51Q11.51 7.77 11.54 8.07Q11.57 8.38 11.48 8.65Q11.39 8.93 11.20 9.11Q11.02 9.30 10.73 9.31L10.73 9.31Q10.45 9.34 10.26 9.24Q10.08 9.13 9.97 8.98Q9.87 8.83 9.84 8.67Q9.80 8.50 9.83 8.38L9.83 8.38Q9.87 8.20 9.97 8.05L9.97 8.05Q10.05 7.92 10.21 7.78Q10.36 7.64 10.62 7.56L10.62 7.56Q10.58 7.53 10.54 7.53Q10.50 7.53 10.46 7.52L10.46 7.52Q10.40 7.52 10.38 7.51L10.38 7.51Q10.16 7.51 9.88 7.66Q9.60 7.81 9.34 8.13Q9.09 8.46 8.92 8.98Q8.75 9.49 8.75 10.21L8.75 10.21Q8.75 10.53 8.82 10.83Q8.89 11.14 9.03 11.38Q9.17 11.62 9.39 11.76Q9.60 11.91 9.88 11.91L9.88 11.91Q10.21 11.91 10.47 11.76Q10.72 11.62 10.90 11.43Q11.07 11.24 11.18 11.05Q11.28 10.86 11.32 10.76L11.32 10.76Q11.36 10.68 11.46 10.68Q11.57 10.68 11.57 10.84ZM13.51 10.42L13.51 10.42Q13.67 9.93 13.79 9.58Q13.90 9.24 13.99 9.04L13.99 9.04Q14.08 8.79 14.15 8.64L14.15 8.64Q14.23 8.42 14.33 8.20Q14.44 7.98 14.55 7.80Q14.66 7.62 14.75 7.49Q14.85 7.37 14.92 7.33L14.92 7.33Q14.97 7.30 15.17 7.33Q15.37 7.36 15.61 7.46Q15.85 7.56 16.06 7.74Q16.27 7.92 16.35 8.18L16.35 8.18Q16.43 8.49 16.41 9.00Q16.38 9.50 16.33 10.04Q16.28 10.57 16.26 11.05Q16.24 11.53 16.32 11.77L16.32 11.77Q16.38 11.91 16.43 12.04L16.43 12.04Q16.49 12.15 16.56 12.27Q16.64 12.39 16.73 12.47L16.73 12.47Q16.34 12.62 16.10 12.69Q15.86 12.77 15.74 12.80L15.74 12.80Q15.59 12.84 15.53 12.81L15.53 12.81Q15.42 12.77 15.33 12.61Q15.23 12.44 15.16 12.09L15.16 12.09Q15.13 11.98 15.15 11.70Q15.16 11.43 15.19 11.09Q15.22 10.75 15.24 10.37Q15.27 9.99 15.30 9.67Q15.33 9.34 15.33 9.09Q15.34 8.85 15.33 8.76L15.33 8.76Q15.26 8.53 15.13 8.43Q15.01 8.33 14.94 8.41L14.94 8.41Q14.78 8.61 14.58 9.11Q14.38 9.61 14.21 10.19Q14.03 10.77 13.90 11.35Q13.77 11.92 13.74 12.29L13.74 12.29Q13.74 12.37 13.61 12.46Q13.48 12.55 13.32 12.62Q13.17 12.69 13.02 12.71Q12.87 12.73 12.81 12.66L12.81 12.66Q12.77 12.62 12.64 12.47Q12.51 12.32 12.50 11.96L12.50 11.96Q12.47 11.62 12.50 11.03Q12.52 10.43 12.51 9.78L12.51 9.78L12.51 8.76Q12.51 8.15 12.50 7.06Q12.50 5.97 12.48 4.18L12.48 4.18Q12.63 4.10 12.76 4.04Q12.88 3.98 12.99 3.94L12.99 3.94Q13.11 3.88 13.22 3.86L13.22 3.86Q13.81 3.71 13.84 3.86L13.84 3.86Q13.85 3.99 13.81 4.73L13.81 4.73Q13.79 5.04 13.77 5.52Q13.74 6.00 13.71 6.69Q13.67 7.37 13.62 8.29Q13.58 9.21 13.51 10.42ZM23.43 7.16L23.43 7.16Q24.09 7.16 23.95 8.00L23.95 8.00Q23.90 8.35 23.76 8.96Q23.63 9.56 23.42 10.21Q23.21 10.86 22.95 11.47Q22.68 12.09 22.37 12.48L22.37 12.48Q22.08 12.62 21.88 12.65L21.88 12.65Q21.77 12.67 21.68 12.66L21.68 12.66Q21.57 12.66 21.48 12.63Q21.38 12.61 21.29 12.52Q21.21 12.44 21.13 12.28Q21.05 12.11 21.01 11.83L21.01 11.83Q20.95 11.40 20.82 10.91Q20.69 10.42 20.55 10.01L20.55 10.01Q20.43 10.38 20.30 10.75Q20.17 11.13 20.04 11.46Q19.91 11.79 19.78 12.04Q19.66 12.30 19.55 12.44L19.55 12.44Q19.10 12.65 18.89 12.69L18.89 12.69Q18.77 12.73 18.69 12.71L18.69 12.71Q18.42 12.36 18.21 11.96Q18.01 11.55 17.88 11.20L17.88 11.20Q17.73 10.79 17.64 10.38L17.64 10.38Q17.53 9.86 17.49 9.38Q17.45 8.90 17.41 8.50Q17.38 8.09 17.33 7.79Q17.28 7.49 17.16 7.31L17.16 7.31Q17.28 7.22 17.45 7.13Q17.61 7.04 17.79 7.02Q17.96 7 18.15 7.05Q18.33 7.10 18.51 7.26L18.51 7.26Q18.54 7.62 18.55 7.95Q18.57 8.29 18.58 8.56L18.58 8.56Q18.59 8.87 18.59 9.15L18.59 9.15Q18.61 9.49 18.63 9.87Q18.65 10.25 18.69 10.62Q18.73 10.99 18.82 11.31Q18.91 11.63 19.06 11.85L19.06 11.85Q19.21 11.61 19.48 11.04Q19.76 10.47 19.93 9.61L19.93 9.61Q20.00 9.26 20.02 8.90Q20.04 8.54 20.02 8.25Q20.00 7.96 19.97 7.73Q19.93 7.51 19.89 7.41L19.89 7.41Q20.00 7.34 20.13 7.31Q20.25 7.27 20.36 7.25L20.36 7.25Q20.48 7.22 20.59 7.22L20.59 7.22Q20.95 7.19 21.08 7.35Q21.21 7.51 21.14 7.93L21.14 7.93Q21.12 8.04 21.07 8.26Q21.01 8.49 20.93 8.80L20.93 8.80Q21.01 9.08 21.12 9.50Q21.23 9.91 21.34 10.31L21.34 10.31Q21.42 10.69 21.51 11.09Q21.59 11.48 21.64 11.79L21.64 11.79Q21.71 11.77 21.78 11.73Q21.85 11.69 21.90 11.58L21.90 11.58Q21.96 11.48 22.05 11.27Q22.15 11.05 22.26 10.73Q22.37 10.42 22.47 10.04Q22.57 9.65 22.65 9.21L22.65 9.21Q22.80 8.34 22.77 7.94Q22.74 7.55 22.61 7.41L22.61 7.41Q22.75 7.31 22.89 7.27Q23.04 7.22 23.16 7.19L23.16 7.19Q23.31 7.16 23.43 7.16ZM24.71 7.72L24.71 7.72Q24.71 7.64 24.92 7.55Q25.14 7.45 25.41 7.39Q25.68 7.33 25.90 7.32Q26.13 7.31 26.13 7.42L26.13 7.42Q26.13 7.63 26.10 8.00Q26.07 8.38 26.03 8.80Q25.99 9.21 25.95 9.63Q25.91 10.05 25.89 10.34L25.89 10.34Q25.87 10.64 25.84 10.99L25.84 10.99Q25.81 11.29 25.80 11.66Q25.79 12.03 25.80 12.41L25.80 12.41Q25.80 12.48 25.66 12.55Q25.53 12.62 25.36 12.65Q25.20 12.69 25.05 12.69Q24.90 12.69 24.88 12.63L24.88 12.63Q24.86 12.58 24.83 12.44Q24.80 12.30 24.77 12.05Q24.75 11.80 24.73 11.40Q24.72 10.99 24.75 10.42L24.75 10.42Q24.80 9.28 24.76 8.66Q24.72 8.04 24.71 7.72ZM25.66 5.00L25.66 5.00Q25.94 5.00 26.18 5.17Q26.43 5.33 26.43 5.61L26.43 5.61Q26.43 5.81 26.33 6.00Q26.22 6.19 26.07 6.34Q25.92 6.49 25.73 6.58Q25.54 6.67 25.38 6.67L25.38 6.67Q25.16 6.67 25.02 6.60Q24.88 6.52 24.81 6.42Q24.73 6.32 24.71 6.19Q24.68 6.07 24.68 5.96L24.68 5.96Q24.68 5.82 24.72 5.65Q24.76 5.48 24.87 5.34Q24.98 5.20 25.17 5.10Q25.36 5.00 25.66 5.00ZM25.32 6.28L25.32 6.28Q25.40 6.28 25.50 6.21Q25.61 6.15 25.70 6.07Q25.79 5.99 25.85 5.89Q25.91 5.80 25.91 5.73L25.91 5.73Q25.91 5.62 25.80 5.62L25.80 5.62Q25.73 5.62 25.63 5.67Q25.53 5.73 25.43 5.80Q25.33 5.88 25.27 5.97Q25.21 6.06 25.21 6.14L25.21 6.14Q25.21 6.28 25.32 6.28ZM32.21 6.48L32.21 6.48Q32.06 6.45 31.81 6.43Q31.55 6.40 31.29 6.38L31.29 6.38Q30.99 6.37 30.65 6.37L30.65 6.37Q30.31 6.34 29.80 6.36Q29.29 6.38 28.72 6.38L28.72 6.38Q28.71 6.74 28.68 7.11Q28.64 7.48 28.62 7.83L28.62 7.83Q28.55 8.49 28.50 9.17Q28.45 9.86 28.45 10.47Q28.45 11.09 28.53 11.59Q28.60 12.09 28.81 12.37L28.81 12.37Q28.64 12.50 28.45 12.56Q28.26 12.62 28.11 12.65L28.11 12.65Q27.93 12.69 27.75 12.69L27.75 12.69Q27.59 12.69 27.48 12.58Q27.37 12.47 27.36 12.20L27.36 12.20Q27.33 11.73 27.35 11.26Q27.37 10.79 27.41 10.27Q27.44 9.75 27.48 9.15Q27.52 8.56 27.56 7.85L27.56 7.85Q27.60 7.11 27.60 6.41L27.60 6.41Q27.08 6.43 26.73 6.43Q26.37 6.43 26.33 6.41L26.33 6.41Q26.29 6.38 26.24 6.29L26.24 6.29Q26.18 6.21 26.09 6.04Q26.00 5.88 25.87 5.58L25.87 5.58Q26.13 5.58 26.43 5.58Q26.74 5.58 27.00 5.56L27.00 5.56Q27.30 5.55 27.60 5.54L27.60 5.54Q27.59 5.32 27.59 5.07L27.59 5.07Q27.58 4.88 27.58 4.64Q27.58 4.40 27.56 4.20L27.56 4.20Q27.56 4.12 27.76 4.00Q27.96 3.88 28.19 3.79Q28.42 3.69 28.62 3.66Q28.82 3.64 28.82 3.76L28.82 3.76Q28.82 3.88 28.81 4.35Q28.81 4.83 28.78 5.50L28.78 5.50Q28.92 5.50 28.98 5.48L28.98 5.48Q29.71 5.46 30.15 5.42Q30.60 5.39 30.88 5.41Q31.17 5.44 31.39 5.55Q31.61 5.66 31.88 5.91L31.88 5.91Q31.98 5.99 32.05 6.08L32.05 6.08Q32.12 6.17 32.16 6.27Q32.21 6.37 32.21 6.48ZM31.06 10.42L31.06 10.42Q31.23 9.93 31.34 9.58Q31.46 9.24 31.54 9.04L31.54 9.04Q31.64 8.79 31.71 8.64L31.71 8.64Q31.79 8.42 31.89 8.20Q31.99 7.98 32.10 7.80Q32.21 7.62 32.31 7.49Q32.40 7.37 32.47 7.33L32.47 7.33Q32.53 7.30 32.72 7.33Q32.92 7.36 33.16 7.46Q33.40 7.56 33.61 7.74Q33.82 7.92 33.91 8.18L33.91 8.18Q33.99 8.49 33.96 9.00Q33.93 9.50 33.89 10.04Q33.84 10.57 33.82 11.05Q33.80 11.53 33.88 11.77L33.88 11.77Q33.93 11.91 33.99 12.04L33.99 12.04Q34.04 12.15 34.12 12.27Q34.19 12.39 34.29 12.47L34.29 12.47Q33.89 12.62 33.65 12.69Q33.41 12.77 33.29 12.80L33.29 12.80Q33.14 12.84 33.09 12.81L33.09 12.81Q32.98 12.77 32.88 12.61Q32.79 12.44 32.72 12.09L32.72 12.09Q32.69 11.98 32.70 11.70Q32.72 11.43 32.74 11.09Q32.77 10.75 32.80 10.37Q32.83 9.99 32.85 9.67Q32.88 9.34 32.89 9.09Q32.89 8.85 32.88 8.76L32.88 8.76Q32.81 8.53 32.69 8.43Q32.57 8.33 32.50 8.41L32.50 8.41Q32.33 8.61 32.14 9.11Q31.94 9.61 31.76 10.19Q31.58 10.77 31.45 11.35Q31.32 11.92 31.29 12.29L31.29 12.29Q31.29 12.37 31.17 12.46Q31.04 12.55 30.88 12.62Q30.72 12.69 30.57 12.71Q30.42 12.73 30.37 12.66L30.37 12.66Q30.32 12.62 30.19 12.47Q30.06 12.32 30.05 11.96L30.05 11.96Q30.02 11.62 30.05 11.03Q30.08 10.43 30.06 9.78L30.06 9.78L30.06 8.76Q30.06 8.15 30.06 7.06Q30.05 5.97 30.04 4.18L30.04 4.18Q30.19 4.10 30.31 4.04Q30.43 3.98 30.54 3.94L30.54 3.94Q30.67 3.88 30.78 3.86L30.78 3.86Q31.36 3.71 31.39 3.86L31.39 3.86Q31.40 3.99 31.36 4.73L31.36 4.73Q31.35 5.04 31.32 5.52Q31.29 6.00 31.26 6.69Q31.23 7.37 31.18 8.29Q31.13 9.21 31.06 10.42ZM37.11 9.97L37.11 9.97Q37.41 10.08 37.68 10.17Q37.95 10.27 38.16 10.40Q38.36 10.54 38.49 10.73Q38.61 10.91 38.61 11.18L38.61 11.18Q38.61 11.51 38.47 11.80Q38.32 12.09 38.05 12.30Q37.78 12.52 37.39 12.65Q37.00 12.78 36.52 12.78L36.52 12.78Q35.98 12.78 35.66 12.68Q35.33 12.58 35.15 12.44Q34.97 12.30 34.92 12.17Q34.86 12.03 34.86 11.95L34.86 11.95Q34.86 11.79 34.93 11.59Q35 11.39 35.19 11.16L35.19 11.16Q35.27 11.06 35.37 10.98L35.37 10.98Q35.56 10.81 35.75 10.77L35.75 10.77Q35.72 11.09 35.83 11.29Q35.93 11.48 36.10 11.59Q36.27 11.70 36.48 11.74Q36.70 11.79 36.89 11.79L36.89 11.79Q37.08 11.79 37.28 11.73Q37.47 11.68 37.64 11.59Q37.80 11.50 37.91 11.38Q38.01 11.27 38.01 11.13L38.01 11.13Q38.01 10.98 37.88 10.88Q37.76 10.79 37.58 10.73Q37.39 10.66 37.18 10.63Q36.97 10.60 36.78 10.55L36.78 10.55Q36.59 10.51 36.26 10.44Q35.94 10.36 35.64 10.20Q35.33 10.04 35.10 9.76Q34.88 9.49 34.88 9.04L34.88 9.04Q34.88 8.52 35.14 8.13Q35.41 7.74 35.80 7.47Q36.19 7.21 36.63 7.07Q37.06 6.93 37.41 6.93L37.41 6.93Q37.58 6.93 37.79 6.98Q37.99 7.03 38.17 7.14Q38.35 7.26 38.47 7.45Q38.58 7.64 38.58 7.94L38.58 7.94Q38.58 8.24 38.53 8.43Q38.49 8.61 38.40 8.72Q38.31 8.82 38.19 8.85Q38.06 8.87 37.90 8.87L37.90 8.87Q37.79 8.87 37.69 8.85L37.69 8.85Q37.61 8.82 37.52 8.79Q37.42 8.76 37.34 8.70L37.34 8.70Q37.47 8.53 37.55 8.38Q37.63 8.23 37.63 8.01L37.63 8.01Q37.63 7.82 37.52 7.67Q37.42 7.52 37.19 7.52L37.19 7.52Q36.94 7.52 36.72 7.62Q36.49 7.71 36.32 7.88Q36.15 8.04 36.05 8.25Q35.94 8.46 35.94 8.71L35.94 8.71Q35.94 9.08 36.22 9.41Q36.50 9.73 37.11 9.97ZM43.35 11.87L43.35 11.87Q43.38 11.96 43.44 12.04L43.44 12.04Q43.48 12.11 43.55 12.17Q43.63 12.24 43.74 12.25L43.74 12.25Q43.64 12.44 43.54 12.51L43.54 12.51Q43.49 12.55 43.45 12.56L43.45 12.56Q43.33 12.61 43.08 12.61Q42.83 12.61 42.60 12.46L42.60 12.46Q42.52 12.39 42.45 12.25L42.45 12.25Q42.38 12.14 42.33 11.94Q42.29 11.74 42.26 11.43L42.26 11.43Q42.07 11.84 41.83 12.08Q41.59 12.32 41.36 12.43L41.36 12.43Q41.10 12.58 40.82 12.61L40.82 12.61Q40.48 12.63 40.17 12.49Q39.87 12.35 39.66 12.05Q39.44 11.76 39.33 11.33Q39.22 10.91 39.27 10.38L39.27 10.38Q39.31 9.82 39.48 9.38Q39.66 8.94 39.91 8.60Q40.15 8.26 40.43 8.02Q40.70 7.78 40.95 7.62Q41.21 7.46 41.39 7.39Q41.58 7.31 41.63 7.30L41.63 7.30Q41.78 7.26 41.89 7.27Q42 7.29 42.08 7.40L42.08 7.40Q42.11 7.44 42.15 7.49L42.15 7.49Q42.18 7.55 42.22 7.64Q42.26 7.72 42.29 7.83L42.29 7.83Q41.96 7.98 41.67 8.17Q41.38 8.35 41.15 8.61Q40.91 8.87 40.73 9.24Q40.55 9.61 40.46 10.14L40.46 10.14Q40.32 10.81 40.53 11.22Q40.74 11.63 41.11 11.57L41.11 11.57Q41.33 11.50 41.54 11.31L41.54 11.31Q41.71 11.14 41.91 10.81Q42.11 10.49 42.29 9.91L42.29 9.91Q42.36 9.09 42.40 8.62Q42.45 8.15 42.49 7.90L42.49 7.90Q42.55 7.62 42.57 7.52L42.57 7.52Q42.62 7.45 42.74 7.39Q42.86 7.33 43.01 7.29Q43.16 7.25 43.29 7.24Q43.41 7.23 43.45 7.25L43.45 7.25Q43.48 7.26 43.48 7.58Q43.48 7.90 43.46 8.39Q43.44 8.87 43.41 9.44Q43.38 10.01 43.36 10.51Q43.34 11.02 43.33 11.40Q43.33 11.77 43.35 11.87ZM47.55 8.30L47.55 8.30Q47.44 8.30 47.31 8.42Q47.18 8.53 47.06 8.73Q46.94 8.93 46.81 9.17Q46.69 9.41 46.59 9.65L46.59 9.65Q46.36 10.23 46.14 10.83Q45.92 11.43 45.88 11.87L45.88 11.87Q45.87 11.91 45.87 11.94Q45.87 11.98 45.87 12.00L45.87 12.00Q45.86 12.03 45.86 12.09L45.86 12.09Q45.83 12.28 45.78 12.39Q45.73 12.51 45.58 12.55L45.58 12.55Q45.42 12.58 45.25 12.59Q45.09 12.61 44.94 12.56L44.94 12.56Q44.84 12.54 44.80 12.46Q44.75 12.39 44.73 12.28Q44.71 12.18 44.70 12.09Q44.69 11.99 44.69 11.92L44.69 11.92Q44.69 11.84 44.71 11.41Q44.72 10.98 44.73 10.43Q44.75 9.88 44.75 9.36Q44.75 8.83 44.73 8.56L44.73 8.56Q44.71 8.37 44.68 8.20L44.68 8.20Q44.65 8.05 44.62 7.90Q44.58 7.75 44.52 7.64L44.52 7.64Q44.67 7.56 44.82 7.51Q44.97 7.45 45.09 7.42L45.09 7.42Q45.24 7.38 45.36 7.37L45.36 7.37Q45.69 7.34 45.88 7.37Q46.06 7.40 46.06 7.66L46.06 7.66Q46.06 7.89 46.03 8.37Q45.99 8.86 45.95 9.72L45.95 9.72Q46.10 9.38 46.31 8.95Q46.51 8.52 46.74 8.14Q46.98 7.77 47.22 7.51Q47.47 7.26 47.69 7.26L47.69 7.26Q47.84 7.26 48.04 7.32Q48.23 7.38 48.41 7.49Q48.59 7.59 48.73 7.71Q48.88 7.83 48.93 7.96L48.93 7.96Q48.99 8.09 49 8.38Q49.01 8.67 49 9.02L49 9.02Q49.11 8.76 49.25 8.52Q49.38 8.27 49.53 8.06Q49.67 7.85 49.82 7.70Q49.97 7.55 50.09 7.49L50.09 7.49Q50.26 7.42 50.49 7.46Q50.72 7.51 50.95 7.61Q51.17 7.71 51.34 7.85Q51.52 7.98 51.56 8.11L51.56 8.11Q51.60 8.24 51.63 8.53Q51.65 8.82 51.67 9.16Q51.68 9.50 51.68 9.86Q51.68 10.23 51.67 10.50L51.67 10.50Q51.64 11.29 51.68 11.75Q51.72 12.21 52.01 12.43L52.01 12.43Q51.82 12.55 51.65 12.61Q51.49 12.67 51.37 12.70L51.37 12.70Q51.21 12.74 51.11 12.74L51.11 12.74Q50.96 12.74 50.86 12.67Q50.76 12.59 50.71 12.47Q50.65 12.35 50.64 12.20Q50.63 12.04 50.63 11.89L50.63 11.89Q50.63 11.76 50.65 11.44Q50.67 11.12 50.68 10.71Q50.70 10.29 50.68 9.86Q50.67 9.43 50.62 9.07Q50.57 8.71 50.46 8.48Q50.35 8.24 50.16 8.24L50.16 8.24Q50.00 8.24 49.85 8.44Q49.70 8.64 49.56 8.96Q49.42 9.28 49.32 9.67Q49.22 10.06 49.14 10.45Q49.05 10.83 49.01 11.15Q48.97 11.47 48.97 11.66L48.97 11.66L48.96 11.54Q48.96 11.80 48.97 12.02Q48.97 12.24 48.99 12.46L48.99 12.46Q49 12.54 48.84 12.60Q48.67 12.66 48.47 12.65Q48.28 12.65 48.11 12.56Q47.95 12.48 47.95 12.29L47.95 12.29Q47.95 12.15 47.95 11.88Q47.95 11.61 47.94 11.27Q47.93 10.92 47.93 10.55Q47.92 10.17 47.91 9.83L47.91 9.83Q47.91 9.57 47.90 9.30Q47.89 9.02 47.87 8.80Q47.84 8.57 47.76 8.44Q47.69 8.30 47.55 8.30Z"></path></g><!----><!----></svg>