<svg version="1.1" id="Layer_1" xmlns="http://www.w3.org/2000/svg" xmlns:xlink="http://www.w3.org/1999/xlink" x="0px" y="0px"
	 width="100%" viewBox="0 0 1024 1024" enable-background="new 0 0 1024 1024" xml:space="preserve">
<path fill="#000000" opacity="1.000000" stroke="none" 
	d="
M447.003052,621.592041 
	C452.039215,624.854858 453.389404,629.451477 453.385925,634.739807 
	C453.374420,652.239563 453.430756,669.739258 453.426392,687.239014 
	C453.413055,740.894531 453.451904,794.550354 453.250092,848.205200 
	C453.230835,853.319946 454.743042,855.113647 459.770782,854.714661 
	C464.076324,854.372925 468.454956,854.377991 472.758698,854.738037 
	C477.746185,855.155212 479.016785,852.972351 478.968536,848.354431 
	C478.792755,831.523315 478.935425,814.689026 478.932037,797.855896 
	C478.915405,715.356873 478.876862,632.857849 478.907013,550.358826 
	C478.908600,546.043884 479.283264,541.706055 479.813934,537.419739 
	C480.634552,530.791382 485.827087,525.953125 493.403137,525.866699 
	C516.869934,525.598694 540.343872,525.569580 563.810120,525.855652 
	C572.231812,525.958374 577.237244,531.895630 577.300293,540.766479 
	C577.418701,557.432129 577.368225,574.099121 577.366638,590.765564 
	C577.358704,676.264587 577.343079,761.763611 577.332947,847.262634 
	C577.332092,854.651306 577.341614,854.654968 584.736511,854.667114 
	C589.069763,854.674194 593.406555,854.561584 597.735168,854.702881 
	C600.758728,854.801514 601.923523,853.527832 601.887451,850.566956 
	C601.800293,843.401550 601.863770,836.234314 601.862122,829.067810 
	C601.833008,701.402588 601.805115,573.737427 601.764832,446.072235 
	C601.763550,442.066956 601.940491,438.091522 602.500488,434.113464 
	C603.502441,426.997589 606.557495,423.464539 613.521057,421.692413 
	C616.452393,420.946411 619.424683,420.634491 622.438782,420.774078 
	C640.390381,421.605499 658.338562,421.825226 676.294617,420.806885 
	C680.609436,420.562225 684.914978,420.923218 689.226013,421.597076 
	C697.345642,422.866180 701.721252,427.245728 702.231628,435.458588 
	C702.458740,439.112579 702.352478,442.788971 702.352600,446.455200 
	C702.356323,580.120300 702.354065,713.785400 702.356262,847.450500 
	C702.356384,854.618896 702.371033,854.624146 709.440979,854.648865 
	C713.607544,854.663391 717.788513,854.444702 721.936646,854.723145 
	C725.912659,854.989929 727.387146,853.132629 727.443909,849.511169 
	C727.480408,847.179199 727.582581,844.847290 727.570496,842.515747 
	C726.699890,674.190063 727.192871,505.863159 727.118591,337.536804 
	C727.115601,330.709717 727.377136,323.877686 727.696960,317.056519 
	C728.118530,308.065796 732.145203,303.699921 741.017029,302.492432 
	C743.482910,302.156860 746.000549,301.977112 748.485901,302.043762 
	C767.787964,302.561401 787.086487,302.569824 806.389099,302.036255 
	C809.365112,301.953979 812.390869,302.275970 815.336365,302.759735 
	C822.110901,303.872253 825.404602,307.559265 826.414917,314.341370 
	C827.008484,318.325226 827.038452,322.307434 827.037842,326.304565 
	C827.011169,499.635773 826.981262,672.966980 826.951965,846.298218 
	C826.951843,846.964905 826.952026,847.631531 826.954041,848.298218 
	C826.973083,854.629211 827.248962,854.702393 833.428589,854.414001 
	C844.911316,853.878113 856.411194,853.591736 867.884949,854.598572 
	C873.403625,855.082947 878.952393,856.629456 880.887207,862.314880 
	C883.219421,869.167847 883.779541,876.420898 879.318665,882.943176 
	C877.234192,885.990845 874.156006,887.655762 870.428040,887.799011 
	C866.600708,887.946106 862.767029,887.971985 858.936096,887.972229 
	C641.605469,887.985779 424.274811,887.989990 206.944183,888.002014 
	C200.944519,888.002319 194.941940,888.214600 188.945816,888.087341 
	C177.734711,887.849487 173.980453,883.681580 173.548965,872.634644 
	C173.128937,861.881775 174.426895,854.449951 192.037491,854.055298 
	C202.364685,853.823853 212.702621,854.084229 223.035751,854.100830 
	C229.703125,854.111511 229.832596,853.995056 229.836700,847.496582 
	C229.848175,829.330139 229.921463,811.162964 229.771393,792.997742 
	C229.731247,788.138977 230.306656,783.362000 230.789368,778.573120 
	C231.380646,772.707275 235.588470,768.539307 242.298248,767.989197 
	C251.586899,767.227905 260.949524,767.117249 270.239960,768.125122 
	C275.246704,768.668335 280.165955,768.573547 285.164673,768.165894 
	C296.126190,767.272034 307.146240,766.887512 318.060760,768.383545 
	C326.194092,769.498413 329.307129,773.446350 329.339081,781.604797 
	C329.426514,803.937317 329.497131,826.271179 329.318420,848.602417 
	C329.282440,853.101318 330.519897,855.011780 335.218903,854.719666 
	C340.199371,854.409973 345.216339,854.571960 350.213593,854.688416 
	C353.360901,854.761780 354.903900,853.518921 354.736115,850.287170 
	C354.658447,848.791870 354.750214,847.288147 354.750061,845.788269 
	C354.742889,777.455750 354.728516,709.123230 354.729187,640.790710 
	C354.729370,623.605774 358.685913,619.635010 375.936890,619.609863 
	C396.094543,619.580444 416.252319,619.640137 436.410034,619.634338 
	C439.937836,619.633301 443.373810,620.034058 447.003052,621.592041 
M692.718567,677.128784 
	C692.773743,675.964172 692.843506,674.800110 692.882019,673.634949 
	C693.833435,644.806824 690.014343,616.110474 690.562073,587.272400 
	C690.741089,577.846375 689.559326,568.273926 686.688049,559.149231 
	C683.748779,549.808594 682.616882,540.315369 683.024109,530.566650 
	C683.325012,523.363708 682.360107,516.267212 680.508057,509.315735 
	C679.938354,507.177185 679.485229,504.604797 675.226685,504.651184 
	C674.626404,515.081055 672.244202,525.497070 675.478882,535.872192 
	C677.224060,541.469910 677.556458,546.646179 674.427063,551.690247 
	C673.290222,553.522705 671.793274,555.513550 669.210876,553.590576 
	C666.495850,551.568970 665.425049,553.414551 664.256409,555.440430 
	C660.178162,562.510315 657.984192,570.018188 657.983032,578.270996 
	C657.979919,599.737366 657.337158,621.177307 654.140869,642.460205 
	C652.484985,653.486084 649.801147,664.568665 651.305054,675.703125 
	C654.022156,695.819397 656.638611,715.993408 661.925476,735.667969 
	C665.891602,750.427551 663.709534,763.890015 654.403442,776.309998 
	C650.247131,781.857117 645.164368,783.803040 638.782471,782.537598 
	C634.497986,781.688049 630.924683,782.600464 627.463623,784.978577 
	C625.824097,786.105164 624.136047,787.583862 622.292542,787.914612 
	C615.789795,789.081299 613.919861,793.750732 612.884094,799.279175 
	C609.796387,815.759521 610.196655,832.429260 610.126160,849.076721 
	C610.110046,852.889709 612.322327,853.882263 615.602783,853.879150 
	C640.090942,853.855774 664.579224,853.823120 689.067200,853.885925 
	C692.343384,853.894287 694.026306,852.843262 694.042786,849.346497 
	C694.078125,841.867859 694.310059,834.390381 694.426086,826.911865 
	C694.627625,813.924194 694.889893,800.875244 693.079041,788.022095 
	C690.520081,769.859497 688.162537,751.721191 689.100098,733.349426 
	C689.532349,724.881592 690.765259,716.473206 690.962341,707.961365 
	C691.193237,697.987061 692.033630,688.026917 692.718567,677.128784 
M533.047974,750.557251 
	C531.811096,762.164978 527.079468,771.222046 515.334961,775.409790 
	C513.350464,776.117310 511.298523,777.355408 509.923340,778.916931 
	C505.832092,783.562439 500.689209,784.712097 494.983124,783.846802 
	C491.734253,783.354004 490.396088,784.698975 489.669403,787.534607 
	C488.585907,791.762390 488.164459,796.041870 488.109711,800.398315 
	C487.917389,815.705505 487.664062,831.012146 487.393158,846.318176 
	C487.292358,852.011230 488.896729,853.750000 495.344818,853.778015 
	C518.175903,853.877075 541.008179,853.772461 563.838745,853.923706 
	C568.245422,853.952881 569.826965,852.116760 569.676453,847.960632 
	C569.272705,836.808289 569.171509,825.641296 568.566772,814.501038 
	C567.981445,803.720093 568.108704,792.818298 564.561096,782.388000 
	C562.443176,776.160950 561.551880,769.756104 562.073608,763.184570 
	C563.265869,748.166992 561.817505,733.182800 559.660278,718.447998 
	C558.043640,707.406128 556.060181,696.473022 555.876465,685.290344 
	C555.712463,675.302856 552.171814,666.050476 549.484375,656.634888 
	C548.579651,653.464905 546.680542,649.837769 543.551208,649.052246 
	C540.161133,648.201233 540.242188,652.939087 538.211487,654.699463 
	C537.721069,655.124634 537.446167,655.788452 537.018188,656.297119 
	C530.003662,664.633362 527.518677,673.536499 530.858826,684.549011 
	C533.276062,692.518738 535.567627,701.038025 533.283386,709.632507 
	C531.742004,715.432007 531.853760,721.114990 533.036987,726.933594 
	C534.573975,734.491821 535.081726,742.105652 533.047974,750.557251 
M390.500000,853.890991 
	C405.639771,853.863525 420.779785,853.879333 435.919189,853.789368 
	C442.912720,853.747864 443.783661,852.267700 440.665070,846.229614 
	C438.081238,841.227051 434.403473,836.773315 433.136963,831.110229 
	C430.893463,821.078613 424.845886,813.048462 419.144562,804.869080 
	C417.557892,802.592834 415.707764,800.183167 412.494598,800.094604 
	C407.597046,799.959717 404.767853,796.872314 403.186890,792.909424 
	C400.751923,786.805969 396.701935,782.321228 391.737854,778.166199 
	C386.763275,774.002441 381.876923,773.081116 376.136566,775.927795 
	C374.068878,776.953125 372.043732,777.962280 369.521484,777.752991 
	C365.204865,777.394592 363.238464,779.505859 363.255096,783.959229 
	C363.335907,805.587158 363.358765,827.216309 363.191833,848.843384 
	C363.160187,852.937866 364.839264,853.996704 368.538361,853.911987 
	C375.522095,853.752014 382.512421,853.880493 390.500000,853.890991 
M739.972595,843.352417 
	C737.430054,844.544800 734.891052,846.177612 735.856628,849.293945 
	C736.797424,852.330444 739.407471,853.984741 742.838867,853.782349 
	C743.501221,853.743286 744.168823,853.801941 744.834045,853.802246 
	C766.954102,853.811951 789.074219,853.855286 811.193970,853.775024 
	C813.475586,853.766785 816.803650,854.942017 817.579956,851.606262 
	C818.332520,848.372742 819.165039,844.851196 815.344238,842.223572 
	C809.936951,838.504822 805.626831,833.714478 803.162415,827.437195 
	C802.568420,825.924377 801.575745,824.447449 800.425781,823.293274 
	C793.579163,816.421143 786.818542,809.211487 775.564087,812.208496 
	C772.065002,813.140259 768.727661,812.707642 765.277527,811.688416 
	C759.544006,809.994568 756.486572,810.946045 754.410034,816.450256 
	C751.664185,823.728943 746.832886,830.115051 745.460266,837.954773 
	C744.999146,840.588257 743.460876,842.499512 739.972595,843.352417 
M304.484863,853.820129 
	C308.148590,853.789978 311.822540,853.921265 315.473602,853.690735 
	C320.566589,853.369202 323.524078,849.156799 320.779663,845.075562 
	C316.662964,838.953491 312.340668,832.354004 304.444946,830.467712 
	C291.901672,827.471008 279.014008,827.147888 266.245209,827.493652 
	C254.481094,827.812134 247.809616,836.660522 241.829651,845.381287 
	C238.774765,849.836243 241.471802,853.754028 247.029709,853.772217 
	C265.849640,853.833801 284.669830,853.812500 304.484863,853.820129 
M501.387451,558.768555 
	C503.122894,553.905151 501.052521,546.048279 497.211884,542.922607 
	C494.195404,540.467651 491.358917,541.270569 489.856781,545.158325 
	C487.084473,552.333618 488.035339,559.581909 489.839386,566.753052 
	C490.698822,570.169312 492.747559,570.459717 495.315277,568.148621 
	C497.994904,565.736938 499.150360,562.347351 501.387451,558.768555 
z"/>
<path fill="#000000" opacity="1.000000" stroke="none" 
	d="
M693.703064,274.653931 
	C667.462830,309.427582 638.728394,341.579681 609.581299,373.428711 
	C566.589233,420.406189 518.808350,462.040924 469.491455,502.119232 
	C418.342865,543.685974 362.689209,578.381104 305.512421,610.722900 
	C260.456604,636.208496 212.597778,655.604492 163.957291,673.094849 
	C157.533737,675.404602 151.188644,677.986694 144.649765,679.906433 
	C137.868744,681.897400 133.523438,678.971741 133.594223,673.328064 
	C133.641266,669.576843 136.115097,668.126770 138.967957,666.941711 
	C154.042404,660.679565 169.167282,654.537720 184.210312,648.201355 
	C261.265778,615.744202 332.455231,573.282776 398.955231,522.711792 
	C445.053284,487.655914 488.318451,449.389221 529.932312,409.179749 
	C579.027893,361.741089 624.548584,311.125885 665.727478,256.652649 
	C679.998596,237.774139 693.361572,218.255020 706.045776,198.267120 
	C708.095764,195.036789 707.441040,193.369766 704.445007,191.483246 
	C698.243591,187.578461 692.162964,183.475632 686.119507,179.327759 
	C679.818481,175.003052 679.876465,171.802185 686.598450,168.648224 
	C714.797546,155.417160 743.049744,142.298401 771.334106,129.250275 
	C777.203125,126.542755 779.911011,128.496140 779.222351,135.142578 
	C778.040283,146.551285 776.414246,157.914062 774.969360,169.295441 
	C772.749512,186.780930 770.446045,204.256271 768.336609,221.755035 
	C767.293701,230.405914 764.207092,232.112823 756.935120,227.391556 
	C750.115173,222.963837 743.459534,218.283066 736.151306,213.319534 
	C722.930420,234.634949 708.947266,254.869949 693.703064,274.653931 
z"/>
<path fill="#000000" opacity="1.000000" stroke="none" 
	d="
M502.848328,274.824493 
	C486.285217,282.277252 477.996643,295.319641 475.375702,312.450745 
	C474.873444,315.733429 474.613251,319.057373 474.004517,322.318054 
	C473.590485,324.535980 473.370758,327.102661 470.130798,327.291931 
	C467.008270,327.474304 466.293854,325.305786 465.590729,322.975342 
	C463.572296,316.285645 461.449402,309.627075 459.471069,302.925720 
	C453.820251,283.784210 440.114624,273.770081 421.500977,269.278534 
	C418.751068,268.614929 416.004181,267.935120 413.240936,267.331360 
	C410.917816,266.823822 409.773987,265.358337 409.893158,263.077942 
	C410.014282,260.760040 411.930542,260.912415 413.584259,260.665222 
	C443.305756,256.222198 457.369110,237.737747 463.657990,210.886093 
	C464.186401,208.629929 464.416748,206.297882 464.689484,203.989700 
	C464.939301,201.875290 465.363525,199.937042 467.994720,199.786774 
	C470.311371,199.654495 471.855560,200.879166 472.467682,203.014542 
	C474.116699,208.766785 476.083069,214.476212 477.127838,220.344299 
	C480.094452,237.006744 489.478485,247.971664 505.354248,253.515671 
	C511.482574,255.655762 517.643127,257.703522 523.773315,259.838287 
	C525.654602,260.493408 527.911865,261.119690 527.912231,263.555023 
	C527.912537,265.873718 525.876221,266.882172 523.961731,267.552826 
	C517.055603,269.972076 510.117615,272.300293 502.848328,274.824493 
z"/>
<path fill="#000000" opacity="1.000000" stroke="none" 
	d="
M147.439453,327.548737 
	C164.057251,290.018799 190.807358,263.285553 228.456223,247.652267 
	C230.910126,246.633301 233.467056,245.842178 236.015884,245.077896 
	C238.475861,244.340240 240.851318,244.587708 241.883255,247.286026 
	C242.988327,250.175659 240.990158,251.535873 238.645599,252.483856 
	C238.028458,252.733398 237.393890,252.939728 236.768387,253.168762 
	C196.937164,267.752319 169.324615,295.081390 153.357330,334.106201 
	C147.405029,348.653931 146.373291,364.110626 147.892593,379.754883 
	C149.201004,393.227783 151.213806,406.495789 157.172699,418.843506 
	C157.888062,420.325806 158.728302,421.747864 159.762360,423.664337 
	C162.592361,421.792786 165.100204,419.966797 167.762344,418.403656 
	C177.614304,412.618866 188.011002,410.015778 199.309875,413.476746 
	C208.294708,416.228882 213.611496,422.671295 214.251892,431.445282 
	C214.937241,440.835358 210.248917,449.285553 202.162735,453.234680 
	C189.358444,459.488098 174.088242,456.000671 163.673553,444.396637 
	C161.697891,442.195343 159.864761,439.866119 157.657227,437.226929 
	C149.603699,444.225250 143.644714,452.370239 138.398712,461.019226 
	C119.973595,491.396301 114.602707,524.518250 118.075195,559.443420 
	C118.535522,564.073303 119.009117,568.702332 119.401421,573.338135 
	C119.619537,575.915588 119.669411,578.771423 116.253716,579.087280 
	C112.773155,579.409119 112.423149,576.303467 112.077324,573.930115 
	C111.166161,567.676697 110.166687,561.400024 109.863495,555.100708 
	C108.768906,532.359009 110.094170,509.853485 117.327728,488.010590 
	C124.074135,467.638702 134.279190,449.292938 149.308456,433.865692 
	C152.235886,430.860779 152.431885,428.494263 150.848892,424.709351 
	C139.628967,397.882538 136.552475,370.147797 142.700241,341.612213 
	C143.708847,336.930756 145.737976,332.469147 147.439453,327.548737 
M167.272552,428.613739 
	C165.843643,429.958801 163.893768,431.133942 165.388611,433.560791 
	C171.889893,444.115448 183.850327,451.810913 197.601379,446.321167 
	C203.530426,443.954132 207.052704,438.206116 206.455826,432.615784 
	C205.760071,426.099213 201.416153,421.625610 194.620392,420.263916 
	C184.273849,418.190735 175.794907,422.327637 167.272552,428.613739 
z"/>
<path fill="#000000" opacity="1.000000" stroke="none" 
	d="
M324.328644,645.547363 
	C330.637604,651.263306 330.614227,651.248352 326.264709,658.036743 
	C310.266479,683.005676 294.303558,707.997253 278.289276,732.955933 
	C270.975311,744.354858 262.477631,744.307190 255.318863,732.712524 
	C248.755081,722.081482 242.405121,711.317688 236.028763,700.572083 
	C232.745667,695.039368 233.807983,691.169189 239.510742,687.128723 
	C244.022522,683.932251 249.464966,684.311462 252.873398,688.824951 
	C256.472595,693.591125 259.349091,698.899902 262.601074,703.933105 
	C263.934692,705.997314 264.779694,708.417358 267.390656,710.513306 
	C271.531616,703.983643 275.564209,697.572998 279.648346,691.195312 
	C288.543427,677.305176 297.458710,663.427979 306.386780,649.558960 
	C307.105286,648.442749 307.907837,647.359619 308.803436,646.382080 
	C313.590759,641.156555 317.968689,640.868652 324.328644,645.547363 
z"/>
<path fill="#000000" opacity="1.000000" stroke="none" 
	d="
M317.873352,365.921997 
	C325.221741,354.568207 332.253845,343.438049 339.583679,332.507599 
	C344.748230,324.806030 347.180145,324.600708 354.396942,330.310577 
	C355.180359,330.930420 355.941254,331.605743 356.803955,332.093842 
	C360.919678,334.422272 361.204254,337.322357 358.713623,341.196991 
	C347.633575,358.434113 336.703125,375.767273 325.674103,393.037292 
	C320.204590,401.601837 314.715973,410.156219 309.094788,418.621399 
	C303.476135,427.082794 295.767456,427.916718 290.146515,419.707611 
	C281.687622,407.353790 274.174133,394.344421 266.475952,381.483704 
	C264.526825,378.227417 267.131104,373.567535 271.938629,370.512787 
	C276.543610,367.586823 281.636993,368.061737 284.858368,372.461700 
	C288.786835,377.827545 292.119110,383.628143 295.754028,389.211578 
	C296.820892,390.850311 297.427032,392.859467 299.948181,394.328003 
	C305.868774,384.948730 311.776520,375.589844 317.873352,365.921997 
z"/>
<path fill="#000000" opacity="1.000000" stroke="none" 
	d="
M290.533386,517.547974 
	C300.132904,502.314392 309.520691,487.376526 318.965790,472.474976 
	C320.476379,470.091705 322.084076,467.733368 323.924011,465.602844 
	C328.267151,460.573822 330.705200,460.290283 336.431458,463.766754 
	C344.405090,468.607544 345.115967,470.960144 340.077148,478.925293 
	C324.950867,502.836517 309.679260,526.655823 294.474426,550.517456 
	C292.937561,552.929260 291.146912,555.102600 288.798981,556.756714 
	C283.137390,560.745300 276.784058,560.414307 272.965973,554.650879 
	C265.068970,542.730225 257.812408,530.379700 250.487030,518.090027 
	C248.782059,515.229614 252.389557,509.061707 256.869629,506.316772 
	C261.083405,503.735016 265.260773,504.198395 268.324158,508.419373 
	C272.226532,513.796326 275.564667,519.582520 279.154541,525.186829 
	C280.023590,526.543579 280.925964,527.878967 281.974518,529.469116 
	C285.857819,525.975403 287.526855,521.494324 290.533386,517.547974 
z"/>
<path fill="#000000" opacity="1.000000" stroke="none" 
	d="
M510.499268,126.149788 
	C511.481445,122.913910 514.195740,122.293205 516.495483,121.859535 
	C535.468262,118.281815 546.520203,106.576691 551.541687,88.420929 
	C552.158569,86.190666 553.218323,84.076065 554.154846,81.943932 
	C554.624451,80.874954 555.252136,79.725632 556.614319,79.749817 
	C558.294189,79.779655 558.730835,81.215225 559.045105,82.500771 
	C560.109863,86.856384 561.195801,91.211487 562.078491,95.605980 
	C564.078369,105.561615 569.882507,112.319084 579.125916,116.246216 
	C583.873596,118.263298 588.661682,120.185295 593.405762,122.210762 
	C594.605469,122.722977 596.016602,123.278412 595.972839,124.911858 
	C595.929260,126.533257 594.503967,126.997559 593.286011,127.502052 
	C591.903625,128.074646 590.515381,128.701294 589.067688,129.037659 
	C573.866821,132.569565 565.200134,142.699295 560.652344,157.028854 
	C560.048706,158.930862 559.522156,160.865906 558.777039,162.711823 
	C558.135742,164.300446 557.026855,165.714493 555.186523,165.817902 
	C553.089539,165.935730 552.402100,164.062119 551.921021,162.556305 
	C549.823608,155.991074 546.900635,149.938873 542.530640,144.519318 
	C535.350342,135.614487 527.054138,128.946152 514.904175,128.873901 
	C513.145508,128.863434 511.092712,128.903809 510.499268,126.149788 
z"/>
<path fill="#000000" opacity="1.000000" stroke="none" 
	d="
M876.150391,775.141846 
	C896.923157,760.252869 907.927673,740.425171 909.950134,715.217773 
	C912.106140,688.345276 907.328003,663.190063 893.307312,640.016357 
	C889.762939,634.158142 885.281860,628.982849 880.681946,623.912598 
	C879.084717,622.152100 876.492004,619.952393 879.030518,617.539368 
	C881.579468,615.116394 884.295166,616.686768 886.444641,618.909973 
	C900.095703,633.028870 908.792908,649.814148 913.538757,668.797607 
	C919.166199,691.307556 920.402283,713.819092 913.841675,736.343201 
	C908.675415,754.080444 898.164429,768.148071 883.664185,779.370972 
	C882.484070,780.284424 881.241943,781.197388 879.888123,781.789124 
	C877.589600,782.793640 874.859985,783.965149 873.114502,781.287903 
	C871.194031,778.342163 873.847961,776.843140 876.150391,775.141846 
z"/>
</svg>